{"glyphs":{"0":{"ha":1389,"x_min":0,"x_max":1215,"o":"m 868 174 l 868 694 l 694 694 l 694 868 l 347 868 l 347 1042 l 868 1042 l 868 868 l 1042 868 l 1042 694 l 1215 694 l 1215 347 l 1042 347 l 1042 174 l 868 174 m 347 0 l 347 174 l 174 174 l 174 347 l 0 347 l 0 694 l 174 694 l 174 868 l 347 868 l 347 347 l 521 347 l 521 174 l 868 174 l 868 0 l 347 0 z "},"1":{"ha":1389,"x_min":0,"x_max":1042,"o":"m 0 0 l 0 174 l 347 174 l 347 694 l 174 694 l 174 868 l 347 868 l 347 1042 l 694 1042 l 694 174 l 1042 174 l 1042 0 l 0 0 z "},"2":{"ha":1389,"x_min":0,"x_max":1215,"o":"m 0 0 l 0 347 l 174 347 l 174 521 l 694 521 l 694 694 l 868 694 l 868 868 l 347 868 l 347 694 l 0 694 l 0 868 l 174 868 l 174 1042 l 1042 1042 l 1042 868 l 1215 868 l 1215 521 l 868 521 l 868 347 l 521 347 l 521 174 l 1215 174 l 1215 0 l 0 0 z "},"3":{"ha":1389,"x_min":0,"x_max":1215,"o":"m 174 0 l 174 174 l 0 174 l 0 347 l 347 347 l 347 174 l 868 174 l 868 521 l 1215 521 l 1215 174 l 1042 174 l 1042 0 l 174 0 m 347 521 l 347 694 l 694 694 l 694 868 l 174 868 l 174 1042 l 1215 1042 l 1215 868 l 1042 868 l 1042 694 l 868 694 l 868 521 l 347 521 z "},"4":{"ha":1389,"x_min":0,"x_max":1215,"o":"m 694 0 l 694 174 l 0 174 l 0 521 l 174 521 l 174 694 l 347 694 l 347 868 l 521 868 l 521 1042 l 1042 1042 l 1042 347 l 1215 347 l 1215 174 l 1042 174 l 1042 0 l 694 0 m 347 347 l 694 347 l 694 694 l 521 694 l 521 521 l 347 521 l 347 347 z "},"5":{"ha":1389,"x_min":0,"x_max":1215,"o":"m 174 0 l 174 174 l 0 174 l 0 347 l 347 347 l 347 174 l 868 174 l 868 521 l 0 521 l 0 1042 l 1042 1042 l 1042 868 l 347 868 l 347 694 l 1042 694 l 1042 521 l 1215 521 l 1215 174 l 1042 174 l 1042 0 l 174 0 z "},"6":{"ha":1389,"x_min":0,"x_max":1215,"o":"m 174 0 l 174 174 l 0 174 l 0 868 l 174 868 l 174 1042 l 1042 1042 l 1042 868 l 347 868 l 347 694 l 1042 694 l 1042 521 l 1215 521 l 1215 174 l 1042 174 l 1042 0 l 174 0 m 347 174 l 868 174 l 868 521 l 347 521 l 347 174 z "},"7":{"ha":1389,"x_min":0,"x_max":1215,"o":"m 347 0 l 347 347 l 521 347 l 521 521 l 694 521 l 694 694 l 868 694 l 868 868 l 347 868 l 347 694 l 0 694 l 0 1042 l 1215 1042 l 1215 694 l 1042 694 l 1042 521 l 868 521 l 868 347 l 694 347 l 694 0 l 347 0 z "},"8":{"ha":1389,"x_min":0,"x_max":1215,"o":"m 174 0 l 174 174 l 0 174 l 0 521 l 174 521 l 174 694 l 0 694 l 0 868 l 174 868 l 174 1042 l 1042 1042 l 1042 868 l 1215 868 l 1215 694 l 1042 694 l 1042 521 l 1215 521 l 1215 174 l 1042 174 l 1042 0 l 174 0 m 347 174 l 868 174 l 868 521 l 347 521 l 347 174 m 347 694 l 868 694 l 868 868 l 347 868 l 347 694 z "},"9":{"ha":1389,"x_min":0,"x_max":1215,"o":"m 174 0 l 174 174 l 868 174 l 868 347 l 174 347 l 174 521 l 0 521 l 0 868 l 174 868 l 174 1042 l 1042 1042 l 1042 868 l 1215 868 l 1215 174 l 1042 174 l 1042 0 l 174 0 m 347 521 l 868 521 l 868 868 l 347 868 l 347 521 z "}," ":{"ha":1389,"x_min":0,"x_max":0,"o":""},"A":{"ha":1389,"x_min":0,"x_max":1215,"o":"m 174 347 l 174 694 l 347 694 l 347 521 l 868 521 l 868 694 l 1042 694 l 1042 347 l 174 347 m 0 0 l 0 347 l 174 347 l 174 0 l 0 0 m 347 694 l 347 1042 l 521 1042 l 521 694 l 347 694 m 1042 0 l 1042 347 l 1215 347 l 1215 0 l 1042 0 m 694 694 l 694 1042 l 868 1042 l 868 694 l 694 694 m 521 1042 l 521 1215 l 694 1215 l 694 1042 l 521 1042 z "},"Á":{"ha":1389,"x_min":0,"x_max":1215,"o":"m 0 0 l 0 347 l 174 347 l 174 521 l 347 521 l 347 347 l 868 347 l 868 521 l 1042 521 l 1042 347 l 1215 347 l 1215 0 l 1042 0 l 1042 174 l 174 174 l 174 0 l 0 0 m 347 521 l 347 694 l 521 694 l 521 521 l 347 521 m 347 868 l 347 1042 l 521 1042 l 521 868 l 347 868 m 521 694 l 521 868 l 694 868 l 694 694 l 521 694 m 694 521 l 694 694 l 868 694 l 868 521 l 694 521 m 521 1042 l 521 1215 l 694 1215 l 694 1042 l 521 1042 z "},"Â":{"ha":1389,"x_min":0,"x_max":1215,"o":"m 0 0 l 0 347 l 174 347 l 174 521 l 347 521 l 347 347 l 868 347 l 868 521 l 1042 521 l 1042 347 l 1215 347 l 1215 0 l 1042 0 l 1042 174 l 174 174 l 174 0 l 0 0 m 347 521 l 347 694 l 521 694 l 521 521 l 347 521 m 521 694 l 521 868 l 694 868 l 694 694 l 521 694 m 694 521 l 694 694 l 868 694 l 868 521 l 694 521 m 521 1042 l 521 1215 l 694 1215 l 694 1042 l 521 1042 m 347 868 l 347 1042 l 521 1042 l 521 868 l 347 868 m 694 868 l 694 1042 l 868 1042 l 868 868 l 694 868 z "},"Ä":{"ha":1389,"x_min":0,"x_max":1215,"o":"m 174 347 l 174 694 l 347 694 l 347 521 l 868 521 l 868 694 l 1042 694 l 1042 347 l 174 347 m 0 0 l 0 347 l 174 347 l 174 0 l 0 0 m 347 694 l 347 868 l 521 868 l 521 694 l 347 694 m 1042 0 l 1042 347 l 1215 347 l 1215 0 l 1042 0 m 347 1042 l 347 1215 l 521 1215 l 521 1042 l 347 1042 m 521 868 l 521 1042 l 694 1042 l 694 868 l 521 868 m 694 694 l 694 868 l 868 868 l 868 694 l 694 694 m 694 1042 l 694 1215 l 868 1215 l 868 1042 l 694 1042 z "},"À":{"ha":1389,"x_min":0,"x_max":1215,"o":"m 0 0 l 0 347 l 174 347 l 174 521 l 347 521 l 347 347 l 868 347 l 868 521 l 1042 521 l 1042 347 l 1215 347 l 1215 0 l 1042 0 l 1042 174 l 174 174 l 174 0 l 0 0 m 347 521 l 347 694 l 521 694 l 521 521 l 347 521 m 521 694 l 521 868 l 694 868 l 694 694 l 521 694 m 694 521 l 694 694 l 868 694 l 868 521 l 694 521 m 521 1042 l 521 1215 l 694 1215 l 694 1042 l 521 1042 m 694 868 l 694 1042 l 868 1042 l 868 868 l 694 868 z "},"Å":{"ha":1389,"x_min":0,"x_max":1215,"o":"m 0 0 l 0 347 l 174 347 l 174 521 l 347 521 l 347 347 l 868 347 l 868 521 l 1042 521 l 1042 347 l 1215 347 l 1215 0 l 1042 0 l 1042 174 l 174 174 l 174 0 l 0 0 m 347 521 l 347 694 l 521 694 l 521 521 l 347 521 m 521 694 l 521 868 l 694 868 l 694 694 l 521 694 m 694 521 l 694 694 l 868 694 l 868 521 l 694 521 m 521 1042 l 521 1215 l 694 1215 l 694 1042 l 521 1042 m 347 868 l 347 1042 l 521 1042 l 521 868 l 347 868 m 521 694 l 521 868 l 694 868 l 694 694 l 521 694 m 694 868 l 694 1042 l 868 1042 l 868 868 l 694 868 z "},"Ã":{"ha":1389,"x_min":0,"x_max":1215,"o":"m 0 0 l 0 347 l 174 347 l 174 521 l 347 521 l 347 347 l 868 347 l 868 521 l 1042 521 l 1042 347 l 1215 347 l 1215 0 l 1042 0 l 1042 174 l 174 174 l 174 0 l 0 0 m 347 521 l 347 694 l 521 694 l 521 521 l 347 521 m 521 694 l 521 868 l 694 868 l 694 694 l 521 694 m 694 521 l 694 694 l 868 694 l 868 521 l 694 521 m 521 868 l 521 1042 l 868 1042 l 868 868 l 521 868 m 0 868 l 0 1042 l 174 1042 l 174 868 l 0 868 m 174 1042 l 174 1215 l 521 1215 l 521 1042 l 174 1042 m 868 1042 l 868 1215 l 1042 1215 l 1042 1042 l 868 1042 z "},"Æ":{"ha":1389,"x_min":0,"x_max":1215,"o":"m 694 0 l 694 347 l 174 347 l 174 694 l 347 694 l 347 521 l 694 521 l 694 1042 l 521 1042 l 521 1215 l 1215 1215 l 1215 1042 l 868 1042 l 868 694 l 1042 694 l 1042 521 l 868 521 l 868 174 l 1215 174 l 1215 0 l 694 0 m 0 0 l 0 347 l 174 347 l 174 0 l 0 0 m 347 694 l 347 1042 l 521 1042 l 521 694 l 347 694 z "},"B":{"ha":1389,"x_min":0,"x_max":1215,"o":"m 0 0 l 0 1215 l 868 1215 l 868 1042 l 174 1042 l 174 694 l 868 694 l 868 1042 l 1042 1042 l 1042 521 l 174 521 l 174 174 l 1042 174 l 1042 0 l 0 0 m 1042 174 l 1042 521 l 1215 521 l 1215 174 l 1042 174 z "},"C":{"ha":1389,"x_min":0,"x_max":1215,"o":"m 347 1042 l 347 1215 l 1042 1215 l 1042 1042 l 347 1042 m 174 174 l 174 347 l 347 347 l 347 174 l 174 174 m 0 347 l 0 868 l 174 868 l 174 347 l 0 347 m 347 0 l 347 174 l 1042 174 l 1042 0 l 347 0 m 174 868 l 174 1042 l 347 1042 l 347 868 l 174 868 m 1042 174 l 1042 347 l 1215 347 l 1215 174 l 1042 174 m 1042 868 l 1042 1042 l 1215 1042 l 1215 868 l 1042 868 z "},"Ç":{"ha":1389,"x_min":0,"x_max":1215,"o":"m 347 1042 l 347 1215 l 1042 1215 l 1042 1042 l 347 1042 m 174 347 l 174 521 l 347 521 l 347 347 l 174 347 m 0 521 l 0 868 l 174 868 l 174 521 l 0 521 m 347 174 l 347 347 l 1042 347 l 1042 174 l 347 174 m 174 868 l 174 1042 l 347 1042 l 347 868 l 174 868 m 1042 347 l 1042 521 l 1215 521 l 1215 347 l 1042 347 m 1042 868 l 1042 1042 l 1215 1042 l 1215 868 l 1042 868 m 391 -174 l 391 0 l 564 0 l 564 174 l 738 174 l 738 -174 l 391 -174 z "},"D":{"ha":1389,"x_min":0,"x_max":1215,"o":"m 0 0 l 0 1215 l 868 1215 l 868 1042 l 174 1042 l 174 174 l 868 174 l 868 0 l 0 0 m 868 174 l 868 347 l 1042 347 l 1042 174 l 868 174 m 1042 347 l 1042 868 l 1215 868 l 1215 347 l 1042 347 m 868 868 l 868 1042 l 1042 1042 l 1042 868 l 868 868 z "},"Ð":{"ha":1389,"x_min":0,"x_max":1215,"o":"m 0 521 l 0 694 l 694 694 l 694 521 l 0 521 m 0 1215 l 868 1215 l 868 1042 l 174 1042 l 174 174 l 868 174 l 868 0 l 0 0 l 0 1215 m 868 347 l 1042 347 l 1042 174 l 868 174 l 868 347 m 1042 868 l 1215 868 l 1215 347 l 1042 347 l 1042 868 m 868 1042 l 1042 1042 l 1042 868 l 868 868 l 868 1042 z "},"E":{"ha":1389,"x_min":0,"x_max":1215,"o":"m 0 0 l 0 1215 l 1215 1215 l 1215 1042 l 174 1042 l 174 694 l 1042 694 l 1042 521 l 174 521 l 174 174 l 1215 174 l 1215 0 l 0 0 z "},"É":{"ha":1389,"x_min":0,"x_max":1215,"o":"m 0 0 l 0 868 l 521 868 l 521 1042 l 694 1042 l 694 868 l 1215 868 l 1215 694 l 174 694 l 174 521 l 1042 521 l 1042 347 l 174 347 l 174 174 l 1215 174 l 1215 0 l 0 0 m 694 1042 l 694 1215 l 868 1215 l 868 1042 l 694 1042 z "},"Ê":{"ha":1389,"x_min":0,"x_max":1215,"o":"m 0 0 l 0 868 l 1215 868 l 1215 694 l 174 694 l 174 521 l 1042 521 l 1042 347 l 174 347 l 174 174 l 1215 174 l 1215 0 l 0 0 m 521 1042 l 521 1215 l 694 1215 l 694 1042 l 521 1042 m 347 868 l 347 1042 l 521 1042 l 521 868 l 347 868 m 694 868 l 694 1042 l 868 1042 l 868 868 l 694 868 z "},"Ë":{"ha":1389,"x_min":0,"x_max":1215,"o":"m 0 0 l 0 868 l 1215 868 l 1215 694 l 174 694 l 174 521 l 1042 521 l 1042 347 l 174 347 l 174 174 l 1215 174 l 1215 0 l 0 0 m 694 1042 l 694 1215 l 868 1215 l 868 1042 l 694 1042 m 347 1042 l 347 1215 l 521 1215 l 521 1042 l 347 1042 z "},"È":{"ha":1389,"x_min":0,"x_max":1215,"o":"m 0 0 l 0 868 l 521 868 l 521 1042 l 694 1042 l 694 868 l 1215 868 l 1215 694 l 174 694 l 174 521 l 1042 521 l 1042 347 l 174 347 l 174 174 l 1215 174 l 1215 0 l 0 0 m 347 1042 l 347 1215 l 521 1215 l 521 1042 l 347 1042 z "},"F":{"ha":1389,"x_min":0,"x_max":1215,"o":"m 0 0 l 0 1215 l 1215 1215 l 1215 1042 l 174 1042 l 174 694 l 1042 694 l 1042 521 l 174 521 l 174 0 l 0 0 z "},"G":{"ha":1389,"x_min":0,"x_max":1215,"o":"m 1042 174 l 1042 521 l 521 521 l 521 694 l 1215 694 l 1215 174 l 1042 174 m 174 174 l 174 347 l 347 347 l 347 174 l 174 174 m 0 347 l 0 868 l 174 868 l 174 347 l 0 347 m 347 0 l 347 174 l 1042 174 l 1042 0 l 347 0 m 174 868 l 174 1042 l 347 1042 l 347 868 l 174 868 m 347 1042 l 347 1215 l 1042 1215 l 1042 1042 l 347 1042 m 1042 868 l 1042 1042 l 1215 1042 l 1215 868 l 1042 868 z "},"H":{"ha":1389,"x_min":0,"x_max":1215,"o":"m 0 0 l 0 1215 l 174 1215 l 174 694 l 1042 694 l 1042 1215 l 1215 1215 l 1215 0 l 1042 0 l 1042 521 l 174 521 l 174 0 l 0 0 z "},"I":{"ha":1389,"x_min":174,"x_max":1042,"o":"m 174 0 l 174 174 l 521 174 l 521 1042 l 174 1042 l 174 1215 l 1042 1215 l 1042 1042 l 694 1042 l 694 174 l 1042 174 l 1042 0 l 174 0 z "},"Í":{"ha":1389,"x_min":0,"x_max":868,"o":"m 0 0 l 0 174 l 347 174 l 347 694 l 0 694 l 0 868 l 347 868 l 347 1042 l 521 1042 l 521 868 l 868 868 l 868 694 l 521 694 l 521 174 l 868 174 l 868 0 l 0 0 m 521 1042 l 521 1215 l 694 1215 l 694 1042 l 521 1042 z "},"Î":{"ha":1389,"x_min":0,"x_max":868,"o":"m 0 0 l 0 174 l 347 174 l 347 694 l 0 694 l 0 868 l 868 868 l 868 694 l 521 694 l 521 174 l 868 174 l 868 0 l 0 0 m 347 1042 l 347 1215 l 521 1215 l 521 1042 l 347 1042 m 174 868 l 174 1042 l 347 1042 l 347 868 l 174 868 m 521 868 l 521 1042 l 694 1042 l 694 868 l 521 868 z "},"Ï":{"ha":1389,"x_min":0,"x_max":868,"o":"m 0 0 l 0 174 l 347 174 l 347 694 l 0 694 l 0 868 l 868 868 l 868 694 l 521 694 l 521 174 l 868 174 l 868 0 l 0 0 m 521 1042 l 521 1215 l 694 1215 l 694 1042 l 521 1042 m 174 1042 l 174 1215 l 347 1215 l 347 1042 l 174 1042 z "},"Ì":{"ha":1389,"x_min":0,"x_max":868,"o":"m 0 0 l 0 174 l 347 174 l 347 694 l 0 694 l 0 868 l 347 868 l 347 1042 l 521 1042 l 521 868 l 868 868 l 868 694 l 521 694 l 521 174 l 868 174 l 868 0 l 0 0 m 174 1042 l 174 1215 l 347 1215 l 347 1042 l 174 1042 z "},"J":{"ha":1389,"x_min":0,"x_max":1215,"o":"m 694 174 l 694 1042 l 174 1042 l 174 1215 l 1215 1215 l 1215 1042 l 868 1042 l 868 174 l 694 174 m 0 174 l 0 521 l 174 521 l 174 174 l 0 174 m 174 0 l 174 174 l 694 174 l 694 0 l 174 0 z "},"K":{"ha":1389,"x_min":0,"x_max":1215,"o":"m 0 0 l 0 1215 l 174 1215 l 174 521 l 347 521 l 347 347 l 174 347 l 174 0 l 0 0 m 347 521 l 347 694 l 521 694 l 521 868 l 694 868 l 694 521 l 347 521 m 694 347 l 694 521 l 868 521 l 868 347 l 694 347 m 868 174 l 868 347 l 1042 347 l 1042 174 l 868 174 m 1042 0 l 1042 174 l 1215 174 l 1215 0 l 1042 0 m 694 868 l 694 1042 l 868 1042 l 868 868 l 694 868 m 868 1042 l 868 1215 l 1042 1215 l 1042 1042 l 868 1042 z "},"L":{"ha":1389,"x_min":0,"x_max":1215,"o":"m 0 0 l 0 1215 l 174 1215 l 174 174 l 1215 174 l 1215 0 l 0 0 z "},"M":{"ha":1389,"x_min":0,"x_max":1215,"o":"m 1042 0 l 1042 868 l 868 868 l 868 1042 l 1042 1042 l 1042 1215 l 1215 1215 l 1215 0 l 1042 0 m 0 0 l 0 1215 l 174 1215 l 174 1042 l 347 1042 l 347 868 l 174 868 l 174 0 l 0 0 m 347 694 l 347 868 l 521 868 l 521 694 l 347 694 m 521 521 l 521 694 l 694 694 l 694 521 l 521 521 m 694 694 l 694 868 l 868 868 l 868 694 l 694 694 z "},"N":{"ha":1389,"x_min":0,"x_max":1215,"o":"m 1042 0 l 1042 174 l 868 174 l 868 347 l 1042 347 l 1042 1215 l 1215 1215 l 1215 0 l 1042 0 m 0 0 l 0 1215 l 174 1215 l 174 1042 l 347 1042 l 347 868 l 174 868 l 174 0 l 0 0 m 347 694 l 347 868 l 521 868 l 521 694 l 347 694 m 521 521 l 521 694 l 694 694 l 694 521 l 521 521 m 694 347 l 694 521 l 868 521 l 868 347 l 694 347 z "},"Ñ":{"ha":1389,"x_min":0,"x_max":1215,"o":"m 0 0 l 0 868 l 174 868 l 174 1042 l 347 1042 l 347 694 l 174 694 l 174 0 l 0 0 m 347 521 l 347 694 l 521 694 l 521 521 l 347 521 m 521 347 l 521 521 l 694 521 l 694 347 l 521 347 m 694 174 l 694 347 l 868 347 l 868 174 l 694 174 m 868 0 l 868 174 l 1042 174 l 1042 868 l 1215 868 l 1215 0 l 868 0 m 347 1042 l 347 1215 l 694 1215 l 694 1042 l 347 1042 m 694 868 l 694 1042 l 1042 1042 l 1042 868 l 694 868 m 1042 1042 l 1042 1215 l 1215 1215 l 1215 1042 l 1042 1042 z "},"O":{"ha":1389,"x_min":0,"x_max":1215,"o":"m 347 1042 l 347 1215 l 868 1215 l 868 1042 l 347 1042 m 174 174 l 174 347 l 347 347 l 347 174 l 174 174 m 0 347 l 0 868 l 174 868 l 174 347 l 0 347 m 347 0 l 347 174 l 868 174 l 868 0 l 347 0 m 174 868 l 174 1042 l 347 1042 l 347 868 l 174 868 m 868 174 l 868 347 l 1042 347 l 1042 174 l 868 174 m 1042 347 l 1042 868 l 1215 868 l 1215 347 l 1042 347 m 868 868 l 868 1042 l 1042 1042 l 1042 868 l 868 868 z "},"Ó":{"ha":1389,"x_min":0,"x_max":1215,"o":"m 174 694 l 174 868 l 347 868 l 347 1042 l 521 1042 l 521 868 l 1042 868 l 1042 694 l 174 694 m 0 174 l 0 694 l 174 694 l 174 174 l 0 174 m 174 0 l 174 174 l 1042 174 l 1042 0 l 174 0 m 1042 174 l 1042 694 l 1215 694 l 1215 174 l 1042 174 m 521 1042 l 521 1215 l 694 1215 l 694 1042 l 521 1042 z "},"Ô":{"ha":1389,"x_min":0,"x_max":1215,"o":"m 174 694 l 174 868 l 1042 868 l 1042 694 l 174 694 m 0 174 l 0 694 l 174 694 l 174 174 l 0 174 m 174 0 l 174 174 l 1042 174 l 1042 0 l 174 0 m 1042 174 l 1042 694 l 1215 694 l 1215 174 l 1042 174 m 521 1042 l 521 1215 l 694 1215 l 694 1042 l 521 1042 m 347 868 l 347 1042 l 521 1042 l 521 868 l 347 868 m 694 868 l 694 1042 l 868 1042 l 868 868 l 694 868 z "},"Ö":{"ha":1389,"x_min":0,"x_max":1215,"o":"m 347 868 l 347 1215 l 521 1215 l 521 1042 l 694 1042 l 694 1215 l 868 1215 l 868 868 l 347 868 m 174 174 l 174 347 l 347 347 l 347 174 l 174 174 m 0 347 l 0 694 l 174 694 l 174 347 l 0 347 m 347 0 l 347 174 l 868 174 l 868 0 l 347 0 m 174 694 l 174 868 l 347 868 l 347 694 l 174 694 m 868 174 l 868 347 l 1042 347 l 1042 174 l 868 174 m 1042 347 l 1042 694 l 1215 694 l 1215 347 l 1042 347 m 868 694 l 868 868 l 1042 868 l 1042 694 l 868 694 z "},"Ò":{"ha":1389,"x_min":0,"x_max":1215,"o":"m 174 694 l 174 868 l 694 868 l 694 1042 l 868 1042 l 868 868 l 1042 868 l 1042 694 l 174 694 m 0 174 l 0 694 l 174 694 l 174 174 l 0 174 m 174 0 l 174 174 l 1042 174 l 1042 0 l 174 0 m 1042 174 l 1042 694 l 1215 694 l 1215 174 l 1042 174 m 521 1042 l 521 1215 l 694 1215 l 694 1042 l 521 1042 z "},"Ø":{"ha":1389,"x_min":0,"x_max":1215,"o":"m 1042 1042 l 1042 1215 l 1215 1215 l 1215 1042 l 1042 1042 m 0 0 l 0 174 l 174 174 l 174 0 l 0 0 m 174 174 l 174 347 l 347 347 l 347 174 l 174 174 m 347 347 l 347 521 l 521 521 l 521 347 l 347 347 m 521 521 l 521 694 l 694 694 l 694 521 l 521 521 m 694 694 l 694 868 l 868 868 l 868 694 l 694 694 m 868 868 l 868 1042 l 1042 1042 l 1042 868 l 868 868 m 347 1215 l 868 1215 l 868 1042 l 347 1042 l 347 1215 m 174 347 l 347 347 l 347 174 l 174 174 l 174 347 m 0 868 l 174 868 l 174 347 l 0 347 l 0 868 m 347 174 l 868 174 l 868 0 l 347 0 l 347 174 m 174 1042 l 347 1042 l 347 868 l 174 868 l 174 1042 m 868 347 l 1042 347 l 1042 174 l 868 174 l 868 347 m 1042 868 l 1215 868 l 1215 347 l 1042 347 l 1042 868 m 868 1042 l 1042 1042 l 1042 868 l 868 868 l 868 1042 z "},"Õ":{"ha":1389,"x_min":0,"x_max":1215,"o":"m 174 694 l 174 868 l 1042 868 l 1042 694 l 174 694 m 0 174 l 0 694 l 174 694 l 174 174 l 0 174 m 174 0 l 174 174 l 1042 174 l 1042 0 l 174 0 m 1042 174 l 1042 694 l 1215 694 l 1215 174 l 1042 174 m 521 868 l 521 1042 l 868 1042 l 868 868 l 521 868 m 0 868 l 0 1042 l 174 1042 l 174 868 l 0 868 m 174 1042 l 174 1215 l 521 1215 l 521 1042 l 174 1042 m 868 1042 l 868 1215 l 1042 1215 l 1042 1042 l 868 1042 z "},"Œ":{"ha":1389,"x_min":0,"x_max":1215,"o":"m 694 0 l 694 174 l 521 174 l 521 347 l 694 347 l 694 868 l 521 868 l 521 1042 l 694 1042 l 694 1215 l 1215 1215 l 1215 1042 l 868 1042 l 868 694 l 1042 694 l 1042 521 l 868 521 l 868 174 l 1215 174 l 1215 0 l 694 0 m 174 174 l 174 347 l 347 347 l 347 174 l 174 174 m 347 0 l 347 174 l 521 174 l 521 0 l 347 0 m 0 347 l 0 868 l 174 868 l 174 347 l 0 347 m 174 868 l 174 1042 l 347 1042 l 347 868 l 174 868 m 347 1042 l 347 1215 l 521 1215 l 521 1042 l 347 1042 z "},"P":{"ha":1389,"x_min":0,"x_max":1215,"o":"m 0 0 l 0 1215 l 1042 1215 l 1042 1042 l 174 1042 l 174 694 l 1042 694 l 1042 521 l 174 521 l 174 0 l 0 0 m 1042 694 l 1042 1042 l 1215 1042 l 1215 694 l 1042 694 z "},"Þ":{"ha":1389,"x_min":0,"x_max":1215,"o":"m 0 0 l 0 1215 l 174 1215 l 174 1042 l 1042 1042 l 1042 868 l 174 868 l 174 521 l 1042 521 l 1042 347 l 174 347 l 174 0 l 0 0 m 1042 521 l 1042 868 l 1215 868 l 1215 521 l 1042 521 z "},"Q":{"ha":1389,"x_min":0,"x_max":1215,"o":"m 347 1042 l 347 1215 l 868 1215 l 868 1042 l 347 1042 m 174 174 l 174 347 l 347 347 l 347 174 l 174 174 m 0 347 l 0 868 l 174 868 l 174 347 l 0 347 m 347 0 l 347 174 l 868 174 l 868 0 l 347 0 m 174 868 l 174 1042 l 347 1042 l 347 868 l 174 868 m 694 347 l 694 521 l 868 521 l 868 347 l 694 347 m 868 174 l 868 347 l 1042 347 l 1042 174 l 868 174 m 1042 0 l 1042 174 l 1215 174 l 1215 0 l 1042 0 m 1042 347 l 1042 868 l 1215 868 l 1215 347 l 1042 347 m 868 868 l 868 1042 l 1042 1042 l 1042 868 l 868 868 z "},"R":{"ha":1389,"x_min":0,"x_max":1215,"o":"m 0 0 l 0 1215 l 1042 1215 l 1042 1042 l 174 1042 l 174 694 l 1042 694 l 1042 521 l 868 521 l 868 347 l 694 347 l 694 521 l 174 521 l 174 0 l 0 0 m 868 174 l 868 347 l 1042 347 l 1042 174 l 868 174 m 1042 0 l 1042 174 l 1215 174 l 1215 0 l 1042 0 m 1042 694 l 1042 1042 l 1215 1042 l 1215 694 l 1042 694 z "},"S":{"ha":1389,"x_min":0,"x_max":1215,"o":"m 174 521 l 174 694 l 1042 694 l 1042 521 l 174 521 m 0 174 l 0 347 l 174 347 l 174 174 l 0 174 m 174 0 l 174 174 l 1042 174 l 1042 0 l 174 0 m 0 694 l 0 1042 l 174 1042 l 174 694 l 0 694 m 1042 174 l 1042 521 l 1215 521 l 1215 174 l 1042 174 m 174 1042 l 174 1215 l 868 1215 l 868 1042 l 174 1042 m 868 868 l 868 1042 l 1042 1042 l 1042 868 l 868 868 z "},"T":{"ha":1389,"x_min":0,"x_max":1215,"o":"m 521 0 l 521 1042 l 0 1042 l 0 1215 l 1215 1215 l 1215 1042 l 694 1042 l 694 0 l 521 0 z "},"U":{"ha":1389,"x_min":0,"x_max":1215,"o":"m 347 0 l 347 174 l 1042 174 l 1042 1215 l 1215 1215 l 1215 0 l 347 0 m 174 174 l 174 347 l 347 347 l 347 174 l 174 174 m 0 347 l 0 1215 l 174 1215 l 174 347 l 0 347 z "},"Ú":{"ha":1389,"x_min":0,"x_max":1215,"o":"m 347 0 l 347 174 l 1042 174 l 1042 868 l 1215 868 l 1215 0 l 347 0 m 174 174 l 174 347 l 347 347 l 347 174 l 174 174 m 0 347 l 0 868 l 174 868 l 174 347 l 0 347 m 347 868 l 347 1042 l 521 1042 l 521 868 l 347 868 m 521 1042 l 521 1215 l 694 1215 l 694 1042 l 521 1042 z "},"Û":{"ha":1389,"x_min":0,"x_max":1215,"o":"m 347 0 l 347 174 l 1042 174 l 1042 868 l 1215 868 l 1215 0 l 347 0 m 174 174 l 174 347 l 347 347 l 347 174 l 174 174 m 0 347 l 0 868 l 174 868 l 174 347 l 0 347 m 521 1042 l 521 1215 l 694 1215 l 694 1042 l 521 1042 m 347 868 l 347 1042 l 521 1042 l 521 868 l 347 868 m 694 868 l 694 1042 l 868 1042 l 868 868 l 694 868 z "},"Ü":{"ha":1389,"x_min":0,"x_max":1215,"o":"m 347 0 l 347 174 l 1042 174 l 1042 868 l 1215 868 l 1215 0 l 347 0 m 174 174 l 174 347 l 347 347 l 347 174 l 174 174 m 0 347 l 0 868 l 174 868 l 174 347 l 0 347 m 347 1042 l 347 1215 l 521 1215 l 521 1042 l 347 1042 m 694 1042 l 694 1215 l 868 1215 l 868 1042 l 694 1042 z "},"Ù":{"ha":1389,"x_min":0,"x_max":1215,"o":"m 347 0 l 347 174 l 1042 174 l 1042 868 l 1215 868 l 1215 0 l 347 0 m 174 174 l 174 347 l 347 347 l 347 174 l 174 174 m 0 347 l 0 868 l 174 868 l 174 347 l 0 347 m 347 1042 l 347 1215 l 521 1215 l 521 1042 l 347 1042 m 521 868 l 521 1042 l 694 1042 l 694 868 l 521 868 z "},"V":{"ha":1389,"x_min":0,"x_max":1215,"o":"m 1042 868 l 1042 1215 l 1215 1215 l 1215 868 l 1042 868 m 521 0 l 521 174 l 694 174 l 694 0 l 521 0 m 347 174 l 347 521 l 521 521 l 521 174 l 347 174 m 174 521 l 174 868 l 347 868 l 347 521 l 174 521 m 0 868 l 0 1215 l 174 1215 l 174 868 l 0 868 m 694 174 l 694 521 l 868 521 l 868 174 l 694 174 m 868 521 l 868 868 l 1042 868 l 1042 521 l 868 521 z "},"W":{"ha":1389,"x_min":0,"x_max":1215,"o":"m 1042 0 l 1042 174 l 868 174 l 868 521 l 1042 521 l 1042 1215 l 1215 1215 l 1215 0 l 1042 0 m 0 0 l 0 1215 l 174 1215 l 174 521 l 347 521 l 347 174 l 174 174 l 174 0 l 0 0 m 347 521 l 347 868 l 521 868 l 521 521 l 347 521 m 694 521 l 694 868 l 868 868 l 868 521 l 694 521 m 521 868 l 521 1042 l 694 1042 l 694 868 l 521 868 z "},"Ẃ":{"ha":1389,"x_min":0,"x_max":1215,"o":"m 1042 0 l 1042 174 l 868 174 l 868 347 l 1042 347 l 1042 868 l 1215 868 l 1215 0 l 1042 0 m 0 0 l 0 868 l 174 868 l 174 347 l 347 347 l 347 174 l 174 174 l 174 0 l 0 0 m 347 347 l 347 521 l 521 521 l 521 347 l 347 347 m 521 521 l 521 694 l 694 694 l 694 521 l 521 521 m 694 347 l 694 521 l 868 521 l 868 347 l 694 347 m 694 1042 l 694 1215 l 868 1215 l 868 1042 l 694 1042 m 521 868 l 521 1042 l 694 1042 l 694 868 l 521 868 z "},"Ŵ":{"ha":1389,"x_min":0,"x_max":1215,"o":"m 1042 0 l 1042 174 l 868 174 l 868 347 l 1042 347 l 1042 868 l 1215 868 l 1215 0 l 1042 0 m 0 0 l 0 868 l 174 868 l 174 347 l 347 347 l 347 174 l 174 174 l 174 0 l 0 0 m 347 347 l 347 521 l 521 521 l 521 347 l 347 347 m 521 521 l 521 694 l 694 694 l 694 521 l 521 521 m 694 347 l 694 521 l 868 521 l 868 347 l 694 347 m 521 1042 l 521 1215 l 694 1215 l 694 1042 l 521 1042 m 347 868 l 347 1042 l 521 1042 l 521 868 l 347 868 m 694 868 l 694 1042 l 868 1042 l 868 868 l 694 868 z "},"Ẅ":{"ha":1389,"x_min":0,"x_max":1215,"o":"m 1042 0 l 1042 174 l 868 174 l 868 347 l 1042 347 l 1042 868 l 1215 868 l 1215 0 l 1042 0 m 0 0 l 0 868 l 174 868 l 174 347 l 347 347 l 347 174 l 174 174 l 174 0 l 0 0 m 347 347 l 347 521 l 521 521 l 521 347 l 347 347 m 521 521 l 521 694 l 694 694 l 694 521 l 521 521 m 694 347 l 694 521 l 868 521 l 868 347 l 694 347 m 694 1042 l 694 1215 l 868 1215 l 868 1042 l 694 1042 m 347 1042 l 347 1215 l 521 1215 l 521 1042 l 347 1042 z "},"Ẁ":{"ha":1389,"x_min":0,"x_max":1215,"o":"m 1042 0 l 1042 174 l 868 174 l 868 347 l 1042 347 l 1042 868 l 1215 868 l 1215 0 l 1042 0 m 0 0 l 0 868 l 174 868 l 174 347 l 347 347 l 347 174 l 174 174 l 174 0 l 0 0 m 347 347 l 347 521 l 521 521 l 521 347 l 347 347 m 521 521 l 521 694 l 694 694 l 694 521 l 521 521 m 694 347 l 694 521 l 868 521 l 868 347 l 694 347 m 347 1042 l 347 1215 l 521 1215 l 521 1042 l 347 1042 m 521 868 l 521 1042 l 694 1042 l 694 868 l 521 868 z "},"X":{"ha":1389,"x_min":0,"x_max":1215,"o":"m 868 868 l 868 1215 l 1215 1215 l 1215 1042 l 1042 1042 l 1042 868 l 868 868 m 0 0 l 0 174 l 174 174 l 174 347 l 347 347 l 347 0 l 0 0 m 347 347 l 347 521 l 521 521 l 521 347 l 347 347 m 174 868 l 174 1042 l 0 1042 l 0 1215 l 347 1215 l 347 868 l 174 868 m 347 694 l 347 868 l 521 868 l 521 694 l 347 694 m 521 521 l 521 694 l 694 694 l 694 521 l 521 521 m 694 347 l 694 521 l 868 521 l 868 347 l 694 347 m 868 0 l 868 347 l 1042 347 l 1042 174 l 1215 174 l 1215 0 l 868 0 m 694 694 l 694 868 l 868 868 l 868 694 l 694 694 z "},"Y":{"ha":1389,"x_min":0,"x_max":1215,"o":"m 521 0 l 521 694 l 694 694 l 694 0 l 521 0 m 0 1042 l 0 1215 l 174 1215 l 174 1042 l 0 1042 m 174 868 l 174 1042 l 347 1042 l 347 868 l 174 868 m 347 694 l 347 868 l 521 868 l 521 694 l 347 694 m 694 694 l 694 868 l 868 868 l 868 694 l 694 694 m 868 868 l 868 1042 l 1042 1042 l 1042 868 l 868 868 m 1042 1042 l 1042 1215 l 1215 1215 l 1215 1042 l 1042 1042 z "},"Ý":{"ha":1389,"x_min":0,"x_max":1215,"o":"m 521 0 l 521 521 l 694 521 l 694 0 l 521 0 m 0 868 l 0 1042 l 174 1042 l 174 868 l 0 868 m 174 694 l 174 868 l 347 868 l 347 694 l 174 694 m 347 521 l 347 694 l 521 694 l 521 521 l 347 521 m 694 521 l 694 694 l 868 694 l 868 521 l 694 521 m 868 694 l 868 868 l 1042 868 l 1042 694 l 868 694 m 1042 868 l 1042 1042 l 1215 1042 l 1215 868 l 1042 868 m 694 1042 l 694 1215 l 868 1215 l 868 1042 l 694 1042 m 521 868 l 521 1042 l 694 1042 l 694 868 l 521 868 z "},"Ŷ":{"ha":1389,"x_min":0,"x_max":1215,"o":"m 521 0 l 521 521 l 694 521 l 694 0 l 521 0 m 0 868 l 0 1042 l 174 1042 l 174 868 l 0 868 m 174 694 l 174 868 l 347 868 l 347 694 l 174 694 m 347 521 l 347 694 l 521 694 l 521 521 l 347 521 m 694 521 l 694 694 l 868 694 l 868 521 l 694 521 m 868 694 l 868 868 l 1042 868 l 1042 694 l 868 694 m 1042 868 l 1042 1042 l 1215 1042 l 1215 868 l 1042 868 m 521 1042 l 521 1215 l 694 1215 l 694 1042 l 521 1042 m 347 868 l 347 1042 l 521 1042 l 521 868 l 347 868 m 694 868 l 694 1042 l 868 1042 l 868 868 l 694 868 z "},"Ÿ":{"ha":1389,"x_min":0,"x_max":1215,"o":"m 521 0 l 521 521 l 694 521 l 694 0 l 521 0 m 0 868 l 0 1042 l 174 1042 l 174 868 l 0 868 m 174 694 l 174 868 l 347 868 l 347 694 l 174 694 m 347 521 l 347 694 l 521 694 l 521 521 l 347 521 m 694 521 l 694 694 l 868 694 l 868 521 l 694 521 m 868 694 l 868 868 l 1042 868 l 1042 694 l 868 694 m 1042 868 l 1042 1042 l 1215 1042 l 1215 868 l 1042 868 m 694 1042 l 694 1215 l 868 1215 l 868 1042 l 694 1042 m 347 1042 l 347 1215 l 521 1215 l 521 1042 l 347 1042 z "},"Ỳ":{"ha":1389,"x_min":0,"x_max":1215,"o":"m 521 0 l 521 521 l 694 521 l 694 0 l 521 0 m 0 868 l 0 1042 l 174 1042 l 174 868 l 0 868 m 174 694 l 174 868 l 347 868 l 347 694 l 174 694 m 347 521 l 347 694 l 521 694 l 521 521 l 347 521 m 694 521 l 694 694 l 868 694 l 868 521 l 694 521 m 868 694 l 868 868 l 1042 868 l 1042 694 l 868 694 m 1042 868 l 1042 1042 l 1215 1042 l 1215 868 l 1042 868 m 347 1042 l 347 1215 l 521 1215 l 521 1042 l 347 1042 m 521 868 l 521 1042 l 694 1042 l 694 868 l 521 868 z "},"Z":{"ha":1389,"x_min":0,"x_max":1215,"o":"m 868 868 l 868 1042 l 0 1042 l 0 1215 l 1215 1215 l 1215 1042 l 1042 1042 l 1042 868 l 868 868 m 0 0 l 0 174 l 174 174 l 174 347 l 347 347 l 347 174 l 1215 174 l 1215 0 l 0 0 m 347 347 l 347 521 l 521 521 l 521 347 l 347 347 m 521 521 l 521 694 l 694 694 l 694 521 l 521 521 m 694 694 l 694 868 l 868 868 l 868 694 l 694 694 z "},"a":{"ha":1389,"x_min":0,"x_max":1042,"o":"m 174 0 l 174 174 l 694 174 l 694 347 l 174 347 l 174 521 l 694 521 l 694 694 l 868 694 l 868 174 l 1042 174 l 1042 0 l 174 0 m 0 174 l 0 347 l 174 347 l 174 174 l 0 174 m 174 694 l 174 868 l 694 868 l 694 694 l 174 694 z "},"á":{"ha":1389,"x_min":0,"x_max":1042,"o":"m 174 0 l 174 174 l 694 174 l 694 347 l 174 347 l 174 521 l 694 521 l 694 694 l 868 694 l 868 174 l 1042 174 l 1042 0 l 174 0 m 0 174 l 0 347 l 174 347 l 174 174 l 0 174 m 174 694 l 174 868 l 347 868 l 347 1042 l 521 1042 l 521 868 l 694 868 l 694 694 l 174 694 m 521 1042 l 521 1215 l 694 1215 l 694 1042 l 521 1042 z "},"â":{"ha":1389,"x_min":0,"x_max":1042,"o":"m 174 0 l 174 174 l 694 174 l 694 347 l 174 347 l 174 521 l 694 521 l 694 694 l 868 694 l 868 174 l 1042 174 l 1042 0 l 174 0 m 0 174 l 0 347 l 174 347 l 174 174 l 0 174 m 174 694 l 174 1042 l 347 1042 l 347 868 l 521 868 l 521 1042 l 694 1042 l 694 694 l 174 694 m 347 1042 l 347 1215 l 521 1215 l 521 1042 l 347 1042 z "},"ä":{"ha":1389,"x_min":0,"x_max":1042,"o":"m 174 0 l 174 174 l 694 174 l 694 347 l 174 347 l 174 521 l 694 521 l 694 694 l 868 694 l 868 174 l 1042 174 l 1042 0 l 174 0 m 0 174 l 0 347 l 174 347 l 174 174 l 0 174 m 174 694 l 174 868 l 694 868 l 694 694 l 174 694 m 174 1042 l 174 1215 l 347 1215 l 347 1042 l 174 1042 m 521 1042 l 521 1215 l 694 1215 l 694 1042 l 521 1042 z "},"à":{"ha":1389,"x_min":0,"x_max":1042,"o":"m 174 0 l 174 174 l 694 174 l 694 347 l 174 347 l 174 521 l 694 521 l 694 694 l 868 694 l 868 174 l 1042 174 l 1042 0 l 174 0 m 0 174 l 0 347 l 174 347 l 174 174 l 0 174 m 174 694 l 174 868 l 347 868 l 347 1042 l 521 1042 l 521 868 l 694 868 l 694 694 l 174 694 m 174 1042 l 174 1215 l 347 1215 l 347 1042 l 174 1042 z "},"å":{"ha":1389,"x_min":0,"x_max":1042,"o":"m 347 1042 l 347 1215 l 521 1215 l 521 1042 l 347 1042 m 174 868 l 174 1042 l 347 1042 l 347 868 l 174 868 m 347 694 l 347 868 l 521 868 l 521 694 l 347 694 m 521 868 l 521 1042 l 694 1042 l 694 868 l 521 868 m 174 174 l 694 174 l 694 347 l 174 347 l 174 521 l 694 521 l 694 694 l 868 694 l 868 174 l 1042 174 l 1042 0 l 174 0 l 174 174 m 0 347 l 174 347 l 174 174 l 0 174 l 0 347 m 174 868 l 694 868 l 694 694 l 174 694 l 174 868 z "},"ã":{"ha":1389,"x_min":0,"x_max":1042,"o":"m 174 0 l 174 174 l 694 174 l 694 347 l 174 347 l 174 521 l 694 521 l 694 694 l 868 694 l 868 174 l 1042 174 l 1042 0 l 174 0 m 0 174 l 0 347 l 174 347 l 174 174 l 0 174 m 174 694 l 174 868 l 694 868 l 694 694 l 174 694 m 521 868 l 521 1042 l 868 1042 l 868 868 l 521 868 m 0 868 l 0 1042 l 174 1042 l 174 868 l 0 868 m 174 1042 l 174 1215 l 521 1215 l 521 1042 l 174 1042 m 868 1042 l 868 1215 l 1042 1215 l 1042 1042 l 868 1042 z "},"æ":{"ha":1389,"x_min":0,"x_max":1042,"o":"m 174 0 l 174 174 l 521 174 l 521 347 l 174 347 l 174 521 l 521 521 l 521 694 l 694 694 l 694 521 l 868 521 l 868 694 l 1042 694 l 1042 347 l 694 347 l 694 174 l 1042 174 l 1042 0 l 174 0 m 0 174 l 0 347 l 174 347 l 174 174 l 0 174 m 174 694 l 174 868 l 521 868 l 521 694 l 174 694 m 694 694 l 694 868 l 868 868 l 868 694 l 694 694 z "},"b":{"ha":1389,"x_min":0,"x_max":1042,"o":"m 0 0 l 0 1215 l 174 1215 l 174 694 l 868 694 l 868 521 l 174 521 l 174 174 l 868 174 l 868 0 l 0 0 m 868 174 l 868 521 l 1042 521 l 1042 174 l 868 174 z "},"c":{"ha":1389,"x_min":0,"x_max":1042,"o":"m 174 694 l 174 868 l 868 868 l 868 694 l 174 694 m 0 174 l 0 694 l 174 694 l 174 174 l 0 174 m 174 0 l 174 174 l 868 174 l 868 0 l 174 0 m 868 174 l 868 347 l 1042 347 l 1042 174 l 868 174 m 868 521 l 868 694 l 1042 694 l 1042 521 l 868 521 z "},"ç":{"ha":1389,"x_min":0,"x_max":1042,"o":"m 347 -174 l 347 0 l 521 0 l 521 174 l 174 174 l 174 347 l 868 347 l 868 174 l 694 174 l 694 -174 l 347 -174 m 0 347 l 0 694 l 174 694 l 174 347 l 0 347 m 174 694 l 174 868 l 868 868 l 868 694 l 174 694 m 868 521 l 868 694 l 1042 694 l 1042 521 l 868 521 z "},"d":{"ha":1389,"x_min":0,"x_max":1042,"o":"m 174 0 l 174 174 l 868 174 l 868 521 l 174 521 l 174 694 l 868 694 l 868 1215 l 1042 1215 l 1042 0 l 174 0 m 0 174 l 0 521 l 174 521 l 174 174 l 0 174 z "},"ð":{"ha":1389,"x_min":0,"x_max":1042,"o":"m 694 174 l 694 521 l 174 521 l 174 694 l 694 694 l 694 868 l 521 868 l 521 1042 l 694 1042 l 694 1215 l 868 1215 l 868 1042 l 1042 1042 l 1042 868 l 868 868 l 868 174 l 694 174 m 0 174 l 0 521 l 174 521 l 174 174 l 0 174 m 174 0 l 174 174 l 694 174 l 694 0 l 174 0 z "},"e":{"ha":1389,"x_min":0,"x_max":1042,"o":"m 0 174 l 0 694 l 174 694 l 174 521 l 868 521 l 868 694 l 1042 694 l 1042 347 l 174 347 l 174 174 l 0 174 m 174 0 l 174 174 l 1042 174 l 1042 0 l 174 0 m 174 694 l 174 868 l 868 868 l 868 694 l 174 694 z "},"é":{"ha":1389,"x_min":0,"x_max":1215,"o":"m 174 174 l 174 694 l 347 694 l 347 521 l 1042 521 l 1042 694 l 1215 694 l 1215 347 l 347 347 l 347 174 l 174 174 m 347 0 l 347 174 l 1215 174 l 1215 0 l 347 0 m 0 868 l 0 1042 l 347 1042 l 347 868 l 0 868 m 347 694 l 347 868 l 1042 868 l 1042 694 l 347 694 m 347 1042 l 347 1215 l 694 1215 l 694 1042 l 347 1042 z "},"ê":{"ha":1389,"x_min":0,"x_max":1042,"o":"m 0 174 l 0 694 l 174 694 l 174 521 l 868 521 l 868 694 l 1042 694 l 1042 347 l 174 347 l 174 174 l 0 174 m 174 0 l 174 174 l 1042 174 l 1042 0 l 174 0 m 174 694 l 174 1042 l 347 1042 l 347 868 l 521 868 l 521 1042 l 694 1042 l 694 868 l 868 868 l 868 694 l 174 694 m 347 1042 l 347 1215 l 521 1215 l 521 1042 l 347 1042 z "},"ë":{"ha":1389,"x_min":0,"x_max":1042,"o":"m 0 174 l 0 694 l 174 694 l 174 521 l 868 521 l 868 694 l 1042 694 l 1042 347 l 174 347 l 174 174 l 0 174 m 174 0 l 174 174 l 1042 174 l 1042 0 l 174 0 m 174 694 l 174 868 l 868 868 l 868 694 l 174 694 m 174 1042 l 174 1215 l 347 1215 l 347 1042 l 174 1042 m 521 1042 l 521 1215 l 694 1215 l 694 1042 l 521 1042 z "},"è":{"ha":1389,"x_min":0,"x_max":1042,"o":"m 0 174 l 0 694 l 174 694 l 174 521 l 868 521 l 868 694 l 1042 694 l 1042 347 l 174 347 l 174 174 l 0 174 m 174 0 l 174 174 l 1042 174 l 1042 0 l 174 0 m 174 694 l 174 868 l 521 868 l 521 1042 l 694 1042 l 694 868 l 868 868 l 868 694 l 174 694 m 347 1042 l 347 1215 l 521 1215 l 521 1042 l 347 1042 z "},"f":{"ha":1389,"x_min":0,"x_max":1042,"o":"m 347 0 l 347 521 l 0 521 l 0 694 l 347 694 l 347 1042 l 521 1042 l 521 694 l 1042 694 l 1042 521 l 521 521 l 521 0 l 347 0 m 521 1042 l 521 1215 l 868 1215 l 868 1042 l 521 1042 m 868 868 l 868 1042 l 1042 1042 l 1042 868 l 868 868 z "},"g":{"ha":1389,"x_min":0,"x_max":1042,"o":"m 868 0 l 868 174 l 174 174 l 174 347 l 868 347 l 868 694 l 174 694 l 174 868 l 1042 868 l 1042 0 l 868 0 m 0 -174 l 0 0 l 868 0 l 868 -174 l 0 -174 m 0 347 l 0 694 l 174 694 l 174 347 l 0 347 z "},"h":{"ha":1389,"x_min":0,"x_max":868,"o":"m 0 0 l 0 1215 l 174 1215 l 174 694 l 694 694 l 694 521 l 174 521 l 174 0 l 0 0 m 694 0 l 694 521 l 868 521 l 868 0 l 694 0 z "},"i":{"ha":1389,"x_min":521,"x_max":694,"o":"m 521 0 l 521 694 l 694 694 l 694 0 l 521 0 m 521 868 l 521 1042 l 694 1042 l 694 868 l 521 868 z "},"í":{"ha":1389,"x_min":521,"x_max":868,"o":"m 521 0 l 521 694 l 694 694 l 694 0 l 521 0 m 521 868 l 521 1042 l 694 1042 l 694 868 l 521 868 m 694 1042 l 694 1215 l 868 1215 l 868 1042 l 694 1042 z "},"î":{"ha":1389,"x_min":347,"x_max":868,"o":"m 521 0 l 521 694 l 694 694 l 694 0 l 521 0 m 347 868 l 347 1042 l 521 1042 l 521 868 l 347 868 m 521 1042 l 521 1215 l 694 1215 l 694 1042 l 521 1042 m 694 868 l 694 1042 l 868 1042 l 868 868 l 694 868 z "},"ï":{"ha":1389,"x_min":347,"x_max":868,"o":"m 521 0 l 521 694 l 694 694 l 694 0 l 521 0 m 347 868 l 347 1042 l 521 1042 l 521 868 l 347 868 m 694 868 l 694 1042 l 868 1042 l 868 868 l 694 868 z "},"ì":{"ha":1389,"x_min":347,"x_max":694,"o":"m 521 0 l 521 694 l 694 694 l 694 0 l 521 0 m 347 1042 l 347 1215 l 521 1215 l 521 1042 l 347 1042 m 521 868 l 521 1042 l 694 1042 l 694 868 l 521 868 z "},"j":{"ha":1389,"x_min":174,"x_max":694,"o":"m 521 0 l 521 694 l 694 694 l 694 0 l 521 0 m 174 -174 l 174 0 l 521 0 l 521 -174 l 174 -174 m 521 868 l 521 1042 l 694 1042 l 694 868 l 521 868 z "},"k":{"ha":1389,"x_min":0,"x_max":1042,"o":"m 0 0 l 0 1215 l 174 1215 l 174 521 l 347 521 l 347 347 l 174 347 l 174 0 l 0 0 m 347 174 l 347 347 l 694 347 l 694 174 l 347 174 m 694 0 l 694 174 l 1042 174 l 1042 0 l 694 0 m 347 521 l 347 694 l 694 694 l 694 521 l 347 521 m 694 694 l 694 868 l 1042 868 l 1042 694 l 694 694 z "},"l":{"ha":1389,"x_min":521,"x_max":694,"o":"m 521 0 l 521 1215 l 694 1215 l 694 0 l 521 0 z "},"m":{"ha":1389,"x_min":0,"x_max":1215,"o":"m 0 0 l 0 868 l 521 868 l 521 694 l 174 694 l 174 0 l 0 0 m 521 0 l 521 694 l 694 694 l 694 0 l 521 0 m 1042 0 l 1042 694 l 1215 694 l 1215 0 l 1042 0 m 694 694 l 694 868 l 1042 868 l 1042 694 l 694 694 z "},"n":{"ha":1389,"x_min":0,"x_max":868,"o":"m 0 0 l 0 868 l 694 868 l 694 694 l 174 694 l 174 0 l 0 0 m 694 0 l 694 694 l 868 694 l 868 0 l 694 0 z "},"ñ":{"ha":1389,"x_min":0,"x_max":1042,"o":"m 0 0 l 0 1042 l 174 1042 l 174 1215 l 521 1215 l 521 1042 l 868 1042 l 868 1215 l 1042 1215 l 1042 1042 l 868 1042 l 868 868 l 694 868 l 694 694 l 868 694 l 868 0 l 694 0 l 694 694 l 174 694 l 174 0 l 0 0 m 174 868 l 521 868 l 521 1042 l 174 1042 l 174 868 z "},"o":{"ha":1389,"x_min":0,"x_max":1042,"o":"m 174 694 l 174 868 l 868 868 l 868 694 l 174 694 m 0 174 l 0 694 l 174 694 l 174 174 l 0 174 m 174 0 l 174 174 l 868 174 l 868 0 l 174 0 m 868 174 l 868 694 l 1042 694 l 1042 174 l 868 174 z "},"ó":{"ha":1389,"x_min":0,"x_max":1042,"o":"m 174 694 l 174 868 l 347 868 l 347 1042 l 521 1042 l 521 868 l 868 868 l 868 694 l 174 694 m 0 174 l 0 694 l 174 694 l 174 174 l 0 174 m 174 0 l 174 174 l 868 174 l 868 0 l 174 0 m 868 174 l 868 694 l 1042 694 l 1042 174 l 868 174 m 521 1042 l 521 1215 l 694 1215 l 694 1042 l 521 1042 z "},"ô":{"ha":1389,"x_min":0,"x_max":1042,"o":"m 174 694 l 174 1042 l 347 1042 l 347 868 l 521 868 l 521 1042 l 694 1042 l 694 868 l 868 868 l 868 694 l 174 694 m 0 174 l 0 694 l 174 694 l 174 174 l 0 174 m 174 0 l 174 174 l 868 174 l 868 0 l 174 0 m 868 174 l 868 694 l 1042 694 l 1042 174 l 868 174 m 347 1042 l 347 1215 l 521 1215 l 521 1042 l 347 1042 z "},"ö":{"ha":1389,"x_min":0,"x_max":1042,"o":"m 174 694 l 174 868 l 868 868 l 868 694 l 174 694 m 0 174 l 0 694 l 174 694 l 174 174 l 0 174 m 174 0 l 174 174 l 868 174 l 868 0 l 174 0 m 174 1042 l 174 1215 l 347 1215 l 347 1042 l 174 1042 m 868 174 l 868 694 l 1042 694 l 1042 174 l 868 174 m 521 1042 l 521 1215 l 694 1215 l 694 1042 l 521 1042 z "},"ò":{"ha":1389,"x_min":0,"x_max":1042,"o":"m 174 694 l 174 868 l 347 868 l 347 1042 l 521 1042 l 521 868 l 868 868 l 868 694 l 174 694 m 0 174 l 0 694 l 174 694 l 174 174 l 0 174 m 174 0 l 174 174 l 868 174 l 868 0 l 174 0 m 174 1042 l 174 1215 l 347 1215 l 347 1042 l 174 1042 m 868 174 l 868 694 l 1042 694 l 1042 174 l 868 174 z "},"ø":{"ha":1389,"x_min":0,"x_max":1215,"o":"m 1042 868 l 1042 1042 l 1215 1042 l 1215 868 l 1042 868 m 0 -174 l 0 0 l 174 0 l 174 -174 l 0 -174 m 174 0 l 174 174 l 347 174 l 347 0 l 174 0 m 347 174 l 347 347 l 521 347 l 521 174 l 347 174 m 521 347 l 521 521 l 694 521 l 694 347 l 521 347 m 694 521 l 694 694 l 868 694 l 868 521 l 694 521 m 868 694 l 868 868 l 1042 868 l 1042 694 l 868 694 m 174 868 l 868 868 l 868 694 l 174 694 l 174 868 m 0 694 l 174 694 l 174 174 l 0 174 l 0 694 m 174 174 l 868 174 l 868 0 l 174 0 l 174 174 m 868 694 l 1042 694 l 1042 174 l 868 174 l 868 694 z "},"õ":{"ha":1389,"x_min":0,"x_max":1042,"o":"m 174 694 l 174 868 l 868 868 l 868 694 l 174 694 m 0 174 l 0 694 l 174 694 l 174 174 l 0 174 m 174 0 l 174 174 l 868 174 l 868 0 l 174 0 m 868 174 l 868 694 l 1042 694 l 1042 174 l 868 174 m 521 868 l 521 1042 l 868 1042 l 868 868 l 521 868 m 0 868 l 0 1042 l 174 1042 l 174 868 l 0 868 m 174 1042 l 174 1215 l 521 1215 l 521 1042 l 174 1042 m 868 1042 l 868 1215 l 1042 1215 l 1042 1042 l 868 1042 z "},"œ":{"ha":1389,"x_min":0,"x_max":1042,"o":"m 521 174 l 521 694 l 694 694 l 694 521 l 868 521 l 868 694 l 1042 694 l 1042 347 l 694 347 l 694 174 l 521 174 m 174 0 l 174 174 l 521 174 l 521 0 l 174 0 m 0 174 l 0 694 l 174 694 l 174 174 l 0 174 m 694 0 l 694 174 l 1042 174 l 1042 0 l 694 0 m 174 694 l 174 868 l 521 868 l 521 694 l 174 694 m 694 694 l 694 868 l 868 868 l 868 694 l 694 694 z "},"p":{"ha":1389,"x_min":0,"x_max":1042,"o":"m 0 -174 l 0 868 l 868 868 l 868 694 l 174 694 l 174 347 l 868 347 l 868 174 l 174 174 l 174 -174 l 0 -174 m 868 347 l 868 694 l 1042 694 l 1042 347 l 868 347 z "},"þ":{"ha":1389,"x_min":0,"x_max":1042,"o":"m 0 -174 l 0 1215 l 174 1215 l 174 868 l 868 868 l 868 694 l 174 694 l 174 347 l 868 347 l 868 174 l 174 174 l 174 -174 l 0 -174 m 868 347 l 868 694 l 1042 694 l 1042 347 l 868 347 z "},"q":{"ha":1389,"x_min":0,"x_max":1042,"o":"m 868 -174 l 868 174 l 174 174 l 174 347 l 868 347 l 868 694 l 174 694 l 174 868 l 1042 868 l 1042 -174 l 868 -174 m 0 347 l 0 694 l 174 694 l 174 347 l 0 347 z "},"r":{"ha":1389,"x_min":0,"x_max":1042,"o":"m 0 0 l 0 868 l 174 868 l 174 521 l 347 521 l 347 347 l 174 347 l 174 0 l 0 0 m 347 521 l 347 694 l 521 694 l 521 521 l 347 521 m 521 694 l 521 868 l 1042 868 l 1042 694 l 521 694 z "},"s":{"ha":1389,"x_min":0,"x_max":1042,"o":"m 0 0 l 0 174 l 868 174 l 868 0 l 0 0 m 0 521 l 0 694 l 174 694 l 174 521 l 0 521 m 174 347 l 174 521 l 868 521 l 868 347 l 174 347 m 868 174 l 868 347 l 1042 347 l 1042 174 l 868 174 m 174 694 l 174 868 l 868 868 l 868 694 l 174 694 z "},"ß":{"ha":1389,"x_min":0,"x_max":1042,"o":"m 0 0 l 0 1215 l 694 1215 l 694 1042 l 174 1042 l 174 0 l 0 0 m 347 174 l 347 347 l 521 347 l 521 174 l 347 174 m 521 0 l 521 174 l 868 174 l 868 0 l 521 0 m 868 174 l 868 521 l 1042 521 l 1042 174 l 868 174 m 347 521 l 347 694 l 694 694 l 694 1042 l 868 1042 l 868 521 l 347 521 z "},"t":{"ha":1389,"x_min":0,"x_max":868,"o":"m 347 174 l 347 694 l 0 694 l 0 868 l 347 868 l 347 1042 l 521 1042 l 521 868 l 868 868 l 868 694 l 521 694 l 521 174 l 347 174 m 521 0 l 521 174 l 868 174 l 868 0 l 521 0 z "},"u":{"ha":1389,"x_min":0,"x_max":868,"o":"m 174 0 l 174 174 l 694 174 l 694 868 l 868 868 l 868 0 l 174 0 m 0 174 l 0 868 l 174 868 l 174 174 l 0 174 z "},"ú":{"ha":1389,"x_min":0,"x_max":868,"o":"m 174 0 l 174 174 l 694 174 l 694 868 l 868 868 l 868 0 l 174 0 m 0 174 l 0 868 l 174 868 l 174 174 l 0 174 m 347 868 l 347 1042 l 521 1042 l 521 868 l 347 868 m 521 1042 l 521 1215 l 694 1215 l 694 1042 l 521 1042 z "},"û":{"ha":1389,"x_min":0,"x_max":868,"o":"m 174 0 l 174 174 l 694 174 l 694 868 l 868 868 l 868 0 l 174 0 m 0 174 l 0 868 l 174 868 l 174 174 l 0 174 m 174 868 l 174 1042 l 347 1042 l 347 868 l 174 868 m 347 1042 l 347 1215 l 521 1215 l 521 1042 l 347 1042 m 521 868 l 521 1042 l 694 1042 l 694 868 l 521 868 z "},"ü":{"ha":1389,"x_min":0,"x_max":868,"o":"m 174 0 l 174 174 l 694 174 l 694 868 l 868 868 l 868 0 l 174 0 m 0 174 l 0 868 l 174 868 l 174 174 l 0 174 m 174 1042 l 174 1215 l 347 1215 l 347 1042 l 174 1042 m 521 1042 l 521 1215 l 694 1215 l 694 1042 l 521 1042 z "},"ù":{"ha":1389,"x_min":0,"x_max":868,"o":"m 174 0 l 174 174 l 694 174 l 694 868 l 868 868 l 868 0 l 174 0 m 0 174 l 0 868 l 174 868 l 174 174 l 0 174 m 174 1042 l 174 1215 l 347 1215 l 347 1042 l 174 1042 m 347 868 l 347 1042 l 521 1042 l 521 868 l 347 868 z "},"v":{"ha":1389,"x_min":0,"x_max":868,"o":"m 694 347 l 694 868 l 868 868 l 868 347 l 694 347 m 174 174 l 174 347 l 347 347 l 347 174 l 174 174 m 347 0 l 347 174 l 521 174 l 521 0 l 347 0 m 0 347 l 0 868 l 174 868 l 174 347 l 0 347 m 521 174 l 521 347 l 694 347 l 694 174 l 521 174 z "},"w":{"ha":1389,"x_min":0,"x_max":1215,"o":"m 1042 174 l 1042 868 l 1215 868 l 1215 174 l 1042 174 m 174 0 l 174 174 l 347 174 l 347 0 l 174 0 m 0 174 l 0 868 l 174 868 l 174 174 l 0 174 m 347 174 l 347 347 l 521 347 l 521 174 l 347 174 m 694 174 l 694 347 l 868 347 l 868 174 l 694 174 m 868 0 l 868 174 l 1042 174 l 1042 0 l 868 0 m 521 347 l 521 694 l 694 694 l 694 347 l 521 347 z "},"ẃ":{"ha":1389,"x_min":0,"x_max":1215,"o":"m 1042 174 l 1042 868 l 1215 868 l 1215 174 l 1042 174 m 174 0 l 174 174 l 347 174 l 347 0 l 174 0 m 0 174 l 0 868 l 174 868 l 174 174 l 0 174 m 347 174 l 347 347 l 521 347 l 521 174 l 347 174 m 694 174 l 694 347 l 868 347 l 868 174 l 694 174 m 868 0 l 868 174 l 1042 174 l 1042 0 l 868 0 m 521 347 l 521 694 l 694 694 l 694 347 l 521 347 m 694 1042 l 694 1215 l 868 1215 l 868 1042 l 694 1042 m 521 868 l 521 1042 l 694 1042 l 694 868 l 521 868 z "},"ŵ":{"ha":1389,"x_min":0,"x_max":1215,"o":"m 1042 174 l 1042 868 l 1215 868 l 1215 174 l 1042 174 m 174 0 l 174 174 l 347 174 l 347 0 l 174 0 m 0 174 l 0 868 l 174 868 l 174 174 l 0 174 m 347 174 l 347 347 l 521 347 l 521 174 l 347 174 m 694 174 l 694 347 l 868 347 l 868 174 l 694 174 m 868 0 l 868 174 l 1042 174 l 1042 0 l 868 0 m 521 347 l 521 694 l 694 694 l 694 347 l 521 347 m 521 1042 l 521 1215 l 694 1215 l 694 1042 l 521 1042 m 347 868 l 347 1042 l 521 1042 l 521 868 l 347 868 m 694 868 l 694 1042 l 868 1042 l 868 868 l 694 868 z "},"ẅ":{"ha":1389,"x_min":0,"x_max":1215,"o":"m 1042 174 l 1042 868 l 1215 868 l 1215 174 l 1042 174 m 174 0 l 174 174 l 347 174 l 347 0 l 174 0 m 0 174 l 0 868 l 174 868 l 174 174 l 0 174 m 347 174 l 347 347 l 521 347 l 521 174 l 347 174 m 694 174 l 694 347 l 868 347 l 868 174 l 694 174 m 868 0 l 868 174 l 1042 174 l 1042 0 l 868 0 m 521 347 l 521 694 l 694 694 l 694 347 l 521 347 m 694 1042 l 694 1215 l 868 1215 l 868 1042 l 694 1042 m 347 1042 l 347 1215 l 521 1215 l 521 1042 l 347 1042 z "},"ẁ":{"ha":1389,"x_min":0,"x_max":1215,"o":"m 1042 174 l 1042 868 l 1215 868 l 1215 174 l 1042 174 m 174 0 l 174 174 l 347 174 l 347 0 l 174 0 m 0 174 l 0 868 l 174 868 l 174 174 l 0 174 m 347 174 l 347 347 l 521 347 l 521 174 l 347 174 m 694 174 l 694 347 l 868 347 l 868 174 l 694 174 m 868 0 l 868 174 l 1042 174 l 1042 0 l 868 0 m 521 347 l 521 694 l 694 694 l 694 347 l 521 347 m 347 1042 l 347 1215 l 521 1215 l 521 1042 l 347 1042 m 521 868 l 521 1042 l 694 1042 l 694 868 l 521 868 z "},"x":{"ha":1389,"x_min":0,"x_max":1215,"o":"m 868 0 l 868 174 l 1215 174 l 1215 0 l 868 0 m 174 0 l 174 174 l 347 174 l 347 0 l 174 0 m 347 174 l 347 347 l 521 347 l 521 174 l 347 174 m 0 694 l 0 868 l 347 868 l 347 694 l 0 694 m 347 521 l 347 694 l 521 694 l 521 521 l 347 521 m 521 347 l 521 521 l 694 521 l 694 347 l 521 347 m 694 174 l 694 347 l 868 347 l 868 174 l 694 174 m 694 521 l 694 694 l 868 694 l 868 521 l 694 521 m 868 694 l 868 868 l 1042 868 l 1042 694 l 868 694 z "},"y":{"ha":1389,"x_min":0,"x_max":868,"o":"m 694 0 l 694 174 l 174 174 l 174 347 l 694 347 l 694 868 l 868 868 l 868 0 l 694 0 m 0 -174 l 0 0 l 694 0 l 694 -174 l 0 -174 m 0 347 l 0 868 l 174 868 l 174 347 l 0 347 z "},"ý":{"ha":1389,"x_min":0,"x_max":868,"o":"m 694 0 l 694 174 l 174 174 l 174 347 l 694 347 l 694 868 l 868 868 l 868 0 l 694 0 m 0 -174 l 0 0 l 694 0 l 694 -174 l 0 -174 m 0 347 l 0 868 l 174 868 l 174 347 l 0 347 m 521 1042 l 521 1215 l 694 1215 l 694 1042 l 521 1042 m 347 868 l 347 1042 l 521 1042 l 521 868 l 347 868 z "},"ŷ":{"ha":1389,"x_min":0,"x_max":868,"o":"m 694 0 l 694 174 l 174 174 l 174 347 l 694 347 l 694 868 l 868 868 l 868 0 l 694 0 m 0 -174 l 0 0 l 694 0 l 694 -174 l 0 -174 m 0 347 l 0 868 l 174 868 l 174 347 l 0 347 m 347 1042 l 347 1215 l 521 1215 l 521 1042 l 347 1042 m 174 868 l 174 1042 l 347 1042 l 347 868 l 174 868 m 521 868 l 521 1042 l 694 1042 l 694 868 l 521 868 z "},"ÿ":{"ha":1389,"x_min":0,"x_max":868,"o":"m 694 0 l 694 174 l 174 174 l 174 347 l 694 347 l 694 868 l 868 868 l 868 0 l 694 0 m 0 -174 l 0 0 l 694 0 l 694 -174 l 0 -174 m 0 347 l 0 868 l 174 868 l 174 347 l 0 347 m 521 1042 l 521 1215 l 694 1215 l 694 1042 l 521 1042 m 174 1042 l 174 1215 l 347 1215 l 347 1042 l 174 1042 z "},"ỳ":{"ha":1389,"x_min":0,"x_max":868,"o":"m 694 0 l 694 174 l 174 174 l 174 347 l 694 347 l 694 868 l 868 868 l 868 0 l 694 0 m 0 -174 l 0 0 l 694 0 l 694 -174 l 0 -174 m 0 347 l 0 868 l 174 868 l 174 347 l 0 347 m 174 1042 l 174 1215 l 347 1215 l 347 1042 l 174 1042 m 347 868 l 347 1042 l 521 1042 l 521 868 l 347 868 z "},"z":{"ha":1389,"x_min":0,"x_max":1042,"o":"m 694 521 l 694 694 l 0 694 l 0 868 l 1042 868 l 1042 694 l 868 694 l 868 521 l 694 521 m 0 0 l 0 174 l 174 174 l 174 347 l 347 347 l 347 174 l 1042 174 l 1042 0 l 0 0 m 347 347 l 347 521 l 694 521 l 694 347 l 347 347 z "},"º":{"ha":1389,"x_min":0,"x_max":1042,"o":"m 174 694 l 174 868 l 868 868 l 868 694 l 174 694 m 0 174 l 0 694 l 174 694 l 174 174 l 0 174 m 174 0 l 174 174 l 868 174 l 868 0 l 174 0 m 868 174 l 868 694 l 1042 694 l 1042 174 l 868 174 z "},"円":{"ha":1389,"x_min":0,"x_max":1215,"o":"m 0 0 l 0 1215 l 1215 1215 l 1215 0 l 868 0 l 868 174 l 1042 174 l 1042 521 l 174 521 l 174 0 l 0 0 m 174 694 l 521 694 l 521 1042 l 174 1042 l 174 694 m 694 694 l 1042 694 l 1042 1042 l 694 1042 l 694 694 z "},"あ":{"ha":1389,"x_min":0,"x_max":1215,"o":"m 1042 0 l 1042 347 l 868 347 l 868 521 l 521 521 l 521 174 l 347 174 l 347 347 l 174 347 l 174 521 l 347 521 l 347 868 l 0 868 l 0 1042 l 347 1042 l 347 1215 l 521 1215 l 521 1042 l 1042 1042 l 1042 868 l 521 868 l 521 694 l 1042 694 l 1042 521 l 1215 521 l 1215 0 l 1042 0 m 0 0 l 0 347 l 174 347 l 174 0 l 0 0 m 174 -174 l 174 0 l 521 0 l 521 -174 l 174 -174 m 521 0 l 521 174 l 694 174 l 694 0 l 521 0 m 868 -174 l 868 0 l 1042 0 l 1042 -174 l 868 -174 m 694 174 l 694 347 l 868 347 l 868 174 l 694 174 z "},"ぁ":{"ha":1389,"x_min":0,"x_max":1042,"o":"m 521 0 l 521 174 l 174 174 l 174 347 l 347 347 l 347 521 l 174 521 l 174 694 l 347 694 l 347 868 l 521 868 l 521 694 l 868 694 l 868 521 l 521 521 l 521 347 l 868 347 l 868 174 l 694 174 l 694 0 l 521 0 m 0 0 l 0 174 l 174 174 l 174 0 l 0 0 m 174 -174 l 174 0 l 521 0 l 521 -174 l 174 -174 m 868 -174 l 868 174 l 1042 174 l 1042 -174 l 868 -174 z "},"い":{"ha":1389,"x_min":0,"x_max":1215,"o":"m 0 174 l 0 1042 l 174 1042 l 174 174 l 0 174 m 174 0 l 174 174 l 347 174 l 347 0 l 174 0 m 347 -174 l 347 0 l 521 0 l 521 -174 l 347 -174 m 521 0 l 521 174 l 694 174 l 694 0 l 521 0 m 1042 174 l 1042 868 l 1215 868 l 1215 174 l 1042 174 m 868 868 l 868 1042 l 1042 1042 l 1042 868 l 868 868 z "},"ぃ":{"ha":1389,"x_min":0,"x_max":868,"o":"m 0 0 l 0 521 l 174 521 l 174 0 l 0 0 m 174 -174 l 174 0 l 347 0 l 347 -174 l 174 -174 m 694 0 l 694 347 l 868 347 l 868 0 l 694 0 m 521 347 l 521 521 l 694 521 l 694 347 l 521 347 z "},"う":{"ha":1389,"x_min":0,"x_max":868,"o":"m 0 1042 l 0 1215 l 694 1215 l 694 1042 l 0 1042 m 174 -174 l 174 0 l 521 0 l 521 -174 l 174 -174 m 0 521 l 0 694 l 174 694 l 174 521 l 0 521 m 521 0 l 521 174 l 694 174 l 694 0 l 521 0 m 174 694 l 174 868 l 694 868 l 694 694 l 174 694 m 694 174 l 694 694 l 868 694 l 868 174 l 694 174 z "},"ぅ":{"ha":1389,"x_min":0,"x_max":694,"o":"m 174 694 l 174 868 l 521 868 l 521 694 l 174 694 m 174 -174 l 174 0 l 521 0 l 521 -174 l 174 -174 m 0 174 l 0 347 l 174 347 l 174 174 l 0 174 m 174 347 l 174 521 l 521 521 l 521 347 l 174 347 m 521 0 l 521 347 l 694 347 l 694 0 l 521 0 z "},"え":{"ha":1389,"x_min":0,"x_max":1215,"o":"m 694 521 l 694 694 l 174 694 l 174 868 l 1042 868 l 1042 694 l 868 694 l 868 521 l 694 521 m 0 -174 l 0 0 l 174 0 l 174 -174 l 0 -174 m 174 0 l 174 174 l 347 174 l 347 0 l 174 0 m 694 0 l 694 174 l 347 174 l 347 347 l 521 347 l 521 521 l 694 521 l 694 347 l 868 347 l 868 0 l 694 0 m 868 -174 l 868 0 l 1215 0 l 1215 -174 l 868 -174 m 347 1042 l 347 1215 l 694 1215 l 694 1042 l 347 1042 z "},"ぇ":{"ha":1389,"x_min":0,"x_max":694,"o":"m 174 0 l 174 174 l 347 174 l 347 347 l 0 347 l 0 521 l 694 521 l 694 347 l 521 347 l 521 0 l 174 0 m 0 -174 l 0 0 l 174 0 l 174 -174 l 0 -174 m 521 -174 l 521 0 l 694 0 l 694 -174 l 521 -174 m 174 694 l 174 868 l 521 868 l 521 694 l 174 694 z "},"お":{"ha":1389,"x_min":0,"x_max":1215,"o":"m 174 -174 l 174 0 l 347 0 l 347 347 l 174 347 l 174 521 l 347 521 l 347 868 l 0 868 l 0 1042 l 347 1042 l 347 1215 l 521 1215 l 521 1042 l 868 1042 l 868 868 l 521 868 l 521 694 l 1042 694 l 1042 521 l 521 521 l 521 -174 l 174 -174 m 0 0 l 0 347 l 174 347 l 174 0 l 0 0 m 868 -174 l 868 0 l 1042 0 l 1042 -174 l 868 -174 m 1042 0 l 1042 521 l 1215 521 l 1215 0 l 1042 0 m 1042 868 l 1042 1215 l 1215 1215 l 1215 868 l 1042 868 z "},"ぉ":{"ha":1389,"x_min":0,"x_max":1042,"o":"m 174 -174 l 174 0 l 347 0 l 347 174 l 174 174 l 174 347 l 347 347 l 347 521 l 174 521 l 174 694 l 347 694 l 347 868 l 521 868 l 521 694 l 694 694 l 694 521 l 521 521 l 521 347 l 694 347 l 694 174 l 521 174 l 521 -174 l 174 -174 m 0 0 l 0 174 l 174 174 l 174 0 l 0 0 m 694 -174 l 694 174 l 868 174 l 868 -174 l 694 -174 m 868 521 l 868 694 l 1042 694 l 1042 521 l 868 521 z "},"か":{"ha":1389,"x_min":0,"x_max":1215,"o":"m 174 347 l 174 694 l 0 694 l 0 868 l 174 868 l 174 1215 l 347 1215 l 347 868 l 694 868 l 694 694 l 347 694 l 347 347 l 174 347 m 0 174 l 0 347 l 174 347 l 174 174 l 0 174 m 347 -174 l 347 0 l 694 0 l 694 -174 l 347 -174 m 694 0 l 694 694 l 868 694 l 868 0 l 694 0 m 1042 521 l 1042 868 l 1215 868 l 1215 521 l 1042 521 m 868 868 l 868 1042 l 1042 1042 l 1042 868 l 868 868 z "},"ゕ":{"ha":1389,"x_min":0,"x_max":1042,"o":"m 174 174 l 174 347 l 0 347 l 0 521 l 174 521 l 174 694 l 347 694 l 347 521 l 521 521 l 521 347 l 347 347 l 347 174 l 174 174 m 0 0 l 0 174 l 174 174 l 174 0 l 0 0 m 347 -174 l 347 0 l 521 0 l 521 -174 l 347 -174 m 521 0 l 521 347 l 694 347 l 694 0 l 521 0 m 694 521 l 694 694 l 868 694 l 868 521 l 694 521 m 868 347 l 868 521 l 1042 521 l 1042 347 l 868 347 z "},"が":{"ha":1389,"x_min":0,"x_max":1215,"o":"m 174 347 l 174 694 l 0 694 l 0 868 l 174 868 l 174 1215 l 347 1215 l 347 868 l 694 868 l 694 694 l 347 694 l 347 347 l 174 347 m 0 174 l 0 347 l 174 347 l 174 174 l 0 174 m 347 -174 l 347 0 l 694 0 l 694 -174 l 347 -174 m 694 0 l 694 694 l 868 694 l 868 0 l 694 0 m 1042 521 l 1042 868 l 1215 868 l 1215 521 l 1042 521 m 868 868 l 868 1042 l 1042 1042 l 1042 868 l 868 868 m 521 1389 l 521 1563 l 694 1563 l 694 1389 l 521 1389 m 694 1215 l 694 1389 l 868 1389 l 868 1215 l 694 1215 m 868 1563 l 868 1736 l 1042 1736 l 1042 1563 l 868 1563 m 1042 1389 l 1042 1563 l 1215 1563 l 1215 1389 l 1042 1389 z "},"き":{"ha":1389,"x_min":0,"x_max":1215,"o":"m 694 174 l 694 347 l 868 347 l 868 521 l 0 521 l 0 694 l 694 694 l 694 868 l 0 868 l 0 1042 l 521 1042 l 521 1215 l 694 1215 l 694 1042 l 1215 1042 l 1215 868 l 868 868 l 868 694 l 1215 694 l 1215 521 l 1042 521 l 1042 174 l 694 174 m 0 0 l 0 347 l 174 347 l 174 0 l 0 0 m 174 -174 l 174 0 l 1042 0 l 1042 -174 l 174 -174 z "},"ぎ":{"ha":1389,"x_min":0,"x_max":1215,"o":"m 694 174 l 694 347 l 868 347 l 868 521 l 0 521 l 0 694 l 694 694 l 694 868 l 0 868 l 0 1042 l 521 1042 l 521 1215 l 694 1215 l 694 1042 l 1215 1042 l 1215 868 l 868 868 l 868 694 l 1215 694 l 1215 521 l 1042 521 l 1042 174 l 694 174 m 0 0 l 0 347 l 174 347 l 174 0 l 0 0 m 174 -174 l 174 0 l 1042 0 l 1042 -174 l 174 -174 m 521 1389 l 521 1563 l 694 1563 l 694 1389 l 521 1389 m 694 1215 l 694 1389 l 868 1389 l 868 1215 l 694 1215 m 868 1563 l 868 1736 l 1042 1736 l 1042 1563 l 868 1563 m 1042 1389 l 1042 1563 l 1215 1563 l 1215 1389 l 1042 1389 z "},"く":{"ha":1389,"x_min":0,"x_max":694,"o":"m 0 347 l 0 694 l 174 694 l 174 347 l 0 347 m 174 174 l 174 347 l 347 347 l 347 174 l 174 174 m 347 0 l 347 174 l 521 174 l 521 0 l 347 0 m 521 -174 l 521 0 l 694 0 l 694 -174 l 521 -174 m 174 694 l 174 868 l 347 868 l 347 694 l 174 694 m 347 868 l 347 1042 l 521 1042 l 521 868 l 347 868 m 521 1042 l 521 1215 l 694 1215 l 694 1042 l 521 1042 z "},"ぐ":{"ha":1389,"x_min":0,"x_max":1215,"o":"m 0 347 l 0 694 l 174 694 l 174 347 l 0 347 m 174 174 l 174 347 l 347 347 l 347 174 l 174 174 m 347 0 l 347 174 l 521 174 l 521 0 l 347 0 m 521 -174 l 521 0 l 694 0 l 694 -174 l 521 -174 m 174 694 l 174 868 l 347 868 l 347 694 l 174 694 m 521 521 l 521 694 l 694 694 l 694 521 l 521 521 m 694 347 l 694 521 l 868 521 l 868 347 l 694 347 m 347 868 l 347 1042 l 521 1042 l 521 868 l 347 868 m 521 1042 l 521 1215 l 694 1215 l 694 1042 l 521 1042 m 868 694 l 868 868 l 1042 868 l 1042 694 l 868 694 m 1042 521 l 1042 694 l 1215 694 l 1215 521 l 1042 521 z "},"け":{"ha":1389,"x_min":0,"x_max":1215,"o":"m 868 0 l 868 694 l 521 694 l 521 868 l 868 868 l 868 1215 l 1042 1215 l 1042 868 l 1215 868 l 1215 694 l 1042 694 l 1042 0 l 868 0 m 0 0 l 0 1042 l 174 1042 l 174 0 l 0 0 m 694 -174 l 694 0 l 868 0 l 868 -174 l 694 -174 z "},"げ":{"ha":1389,"x_min":0,"x_max":1215,"o":"m 868 0 l 868 694 l 521 694 l 521 868 l 868 868 l 868 1215 l 1042 1215 l 1042 868 l 1215 868 l 1215 694 l 1042 694 l 1042 0 l 868 0 m 0 0 l 0 1042 l 174 1042 l 174 0 l 0 0 m 694 -174 l 694 0 l 868 0 l 868 -174 l 694 -174 m 521 1389 l 521 1563 l 694 1563 l 694 1389 l 521 1389 m 694 1215 l 694 1389 l 868 1389 l 868 1215 l 694 1215 m 868 1563 l 868 1736 l 1042 1736 l 1042 1563 l 868 1563 m 1042 1389 l 1042 1563 l 1215 1563 l 1215 1389 l 1042 1389 z "},"ゖ":{"ha":1389,"x_min":0,"x_max":868,"o":"m 521 0 l 521 347 l 347 347 l 347 521 l 521 521 l 521 694 l 694 694 l 694 521 l 868 521 l 868 347 l 694 347 l 694 0 l 521 0 m 0 -174 l 0 694 l 174 694 l 174 -174 l 0 -174 m 347 -174 l 347 0 l 521 0 l 521 -174 l 347 -174 z "},"こ":{"ha":1389,"x_min":0,"x_max":1215,"o":"m 174 -174 l 174 0 l 1215 0 l 1215 -174 l 174 -174 m 0 0 l 0 174 l 174 174 l 174 0 l 0 0 m 174 868 l 174 1042 l 1042 1042 l 1042 868 l 174 868 m 1042 694 l 1042 868 l 1215 868 l 1215 694 l 1042 694 z "},"ご":{"ha":1389,"x_min":0,"x_max":1215,"o":"m 174 -174 l 174 0 l 1215 0 l 1215 -174 l 174 -174 m 0 0 l 0 174 l 174 174 l 174 0 l 0 0 m 174 868 l 174 1042 l 1042 1042 l 1042 868 l 174 868 m 1042 694 l 1042 868 l 1215 868 l 1215 694 l 1042 694 m 521 1389 l 521 1563 l 694 1563 l 694 1389 l 521 1389 m 694 1215 l 694 1389 l 868 1389 l 868 1215 l 694 1215 m 868 1563 l 868 1736 l 1042 1736 l 1042 1563 l 868 1563 m 1042 1389 l 1042 1563 l 1215 1563 l 1215 1389 l 1042 1389 z "},"さ":{"ha":1389,"x_min":0,"x_max":1215,"o":"m 174 347 l 174 521 l 694 521 l 694 694 l 0 694 l 0 868 l 521 868 l 521 1042 l 694 1042 l 694 868 l 1215 868 l 1215 694 l 868 694 l 868 521 l 1042 521 l 1042 347 l 174 347 m 0 0 l 0 347 l 174 347 l 174 0 l 0 0 m 174 -174 l 174 0 l 1042 0 l 1042 -174 l 174 -174 m 347 1042 l 347 1215 l 521 1215 l 521 1042 l 347 1042 z "},"ざ":{"ha":1389,"x_min":0,"x_max":1215,"o":"m 174 347 l 174 521 l 694 521 l 694 694 l 0 694 l 0 868 l 521 868 l 521 1042 l 694 1042 l 694 868 l 1215 868 l 1215 694 l 868 694 l 868 521 l 1042 521 l 1042 347 l 174 347 m 0 0 l 0 347 l 174 347 l 174 0 l 0 0 m 174 -174 l 174 0 l 1042 0 l 1042 -174 l 174 -174 m 347 1042 l 347 1215 l 521 1215 l 521 1042 l 347 1042 m 521 1389 l 521 1563 l 694 1563 l 694 1389 l 521 1389 m 694 1215 l 694 1389 l 868 1389 l 868 1215 l 694 1215 m 868 1563 l 868 1736 l 1042 1736 l 1042 1563 l 868 1563 m 1042 1389 l 1042 1563 l 1215 1563 l 1215 1389 l 1042 1389 z "},"し":{"ha":1389,"x_min":0,"x_max":868,"o":"m 0 0 l 0 1215 l 174 1215 l 174 0 l 0 0 m 174 -174 l 174 0 l 694 0 l 694 -174 l 174 -174 m 694 0 l 694 347 l 868 347 l 868 0 l 694 0 z "},"じ":{"ha":1389,"x_min":0,"x_max":1042,"o":"m 0 0 l 0 1215 l 174 1215 l 174 0 l 0 0 m 174 -174 l 174 0 l 694 0 l 694 -174 l 174 -174 m 694 0 l 694 347 l 868 347 l 868 0 l 694 0 m 347 868 l 347 1042 l 521 1042 l 521 868 l 347 868 m 521 694 l 521 868 l 694 868 l 694 694 l 521 694 m 694 1042 l 694 1215 l 868 1215 l 868 1042 l 694 1042 m 868 868 l 868 1042 l 1042 1042 l 1042 868 l 868 868 z "},"す":{"ha":1389,"x_min":0,"x_max":1215,"o":"m 868 0 l 868 174 l 347 174 l 347 347 l 868 347 l 868 521 l 347 521 l 347 694 l 868 694 l 868 868 l 0 868 l 0 1042 l 868 1042 l 868 1215 l 1042 1215 l 1042 1042 l 1215 1042 l 1215 868 l 1042 868 l 1042 0 l 868 0 m 521 -174 l 521 0 l 868 0 l 868 -174 l 521 -174 m 174 347 l 174 521 l 347 521 l 347 347 l 174 347 z "},"ず":{"ha":1389,"x_min":0,"x_max":1215,"o":"m 868 0 l 868 174 l 347 174 l 347 347 l 868 347 l 868 521 l 347 521 l 347 694 l 868 694 l 868 868 l 0 868 l 0 1042 l 868 1042 l 868 1215 l 1042 1215 l 1042 1042 l 1215 1042 l 1215 868 l 1042 868 l 1042 0 l 868 0 m 521 -174 l 521 0 l 868 0 l 868 -174 l 521 -174 m 174 347 l 174 521 l 347 521 l 347 347 l 174 347 m 521 1389 l 521 1563 l 694 1563 l 694 1389 l 521 1389 m 694 1215 l 694 1389 l 868 1389 l 868 1215 l 694 1215 m 868 1563 l 868 1736 l 1042 1736 l 1042 1563 l 868 1563 m 1042 1389 l 1042 1563 l 1215 1563 l 1215 1389 l 1042 1389 z "},"せ":{"ha":1389,"x_min":0,"x_max":1215,"o":"m 174 0 l 174 694 l 0 694 l 0 868 l 174 868 l 174 1215 l 347 1215 l 347 868 l 868 868 l 868 1215 l 1042 1215 l 1042 868 l 1215 868 l 1215 694 l 1042 694 l 1042 347 l 868 347 l 868 694 l 347 694 l 347 0 l 174 0 m 347 -174 l 347 0 l 1042 0 l 1042 -174 l 347 -174 m 694 174 l 694 347 l 868 347 l 868 174 l 694 174 z "},"ぜ":{"ha":1389,"x_min":0,"x_max":1215,"o":"m 174 0 l 174 694 l 0 694 l 0 868 l 174 868 l 174 1215 l 347 1215 l 347 868 l 868 868 l 868 1215 l 1042 1215 l 1042 868 l 1215 868 l 1215 694 l 1042 694 l 1042 347 l 868 347 l 868 694 l 347 694 l 347 0 l 174 0 m 347 -174 l 347 0 l 1042 0 l 1042 -174 l 347 -174 m 694 174 l 694 347 l 868 347 l 868 174 l 694 174 m 521 1389 l 521 1563 l 694 1563 l 694 1389 l 521 1389 m 694 1215 l 694 1389 l 868 1389 l 868 1215 l 694 1215 m 868 1563 l 868 1736 l 1042 1736 l 1042 1563 l 868 1563 m 1042 1389 l 1042 1563 l 1215 1563 l 1215 1389 l 1042 1389 z "},"そ":{"ha":1389,"x_min":0,"x_max":1215,"o":"m 521 347 l 521 521 l 0 521 l 0 694 l 347 694 l 347 868 l 521 868 l 521 694 l 1215 694 l 1215 521 l 694 521 l 694 347 l 521 347 m 347 0 l 347 347 l 521 347 l 521 0 l 347 0 m 521 -174 l 521 0 l 1042 0 l 1042 -174 l 521 -174 m 521 868 l 521 1042 l 174 1042 l 174 1215 l 1042 1215 l 1042 1042 l 694 1042 l 694 868 l 521 868 z "},"ぞ":{"ha":1389,"x_min":0,"x_max":1215,"o":"m 521 347 l 521 521 l 0 521 l 0 694 l 347 694 l 347 868 l 521 868 l 521 694 l 1215 694 l 1215 521 l 694 521 l 694 347 l 521 347 m 347 0 l 347 347 l 521 347 l 521 0 l 347 0 m 521 -174 l 521 0 l 1042 0 l 1042 -174 l 521 -174 m 521 868 l 521 1042 l 174 1042 l 174 1215 l 694 1215 l 694 1389 l 868 1389 l 868 1215 l 1042 1215 l 1042 1042 l 694 1042 l 694 868 l 521 868 m 521 1389 l 521 1563 l 694 1563 l 694 1389 l 521 1389 m 868 1563 l 868 1736 l 1042 1736 l 1042 1563 l 868 1563 m 1042 1389 l 1042 1563 l 1215 1563 l 1215 1389 l 1042 1389 z "},"た":{"ha":1389,"x_min":0,"x_max":1215,"o":"m 174 174 l 174 694 l 0 694 l 0 868 l 347 868 l 347 1215 l 521 1215 l 521 868 l 1042 868 l 1042 694 l 347 694 l 347 174 l 174 174 m 0 -174 l 0 174 l 174 174 l 174 -174 l 0 -174 m 521 0 l 521 174 l 694 174 l 694 0 l 521 0 m 694 -174 l 694 0 l 1215 0 l 1215 -174 l 694 -174 m 521 347 l 521 521 l 1215 521 l 1215 347 l 521 347 z "},"だ":{"ha":1389,"x_min":0,"x_max":1215,"o":"m 174 174 l 174 694 l 0 694 l 0 868 l 347 868 l 347 1215 l 521 1215 l 521 868 l 1042 868 l 1042 694 l 347 694 l 347 174 l 174 174 m 0 -174 l 0 174 l 174 174 l 174 -174 l 0 -174 m 521 0 l 521 174 l 694 174 l 694 0 l 521 0 m 694 -174 l 694 0 l 1215 0 l 1215 -174 l 694 -174 m 521 347 l 521 521 l 1215 521 l 1215 347 l 521 347 m 521 1389 l 521 1563 l 694 1563 l 694 1389 l 521 1389 m 694 1215 l 694 1389 l 868 1389 l 868 1215 l 694 1215 m 868 1563 l 868 1736 l 1042 1736 l 1042 1563 l 868 1563 m 1042 1389 l 1042 1563 l 1215 1563 l 1215 1389 l 1042 1389 z "},"ち":{"ha":1389,"x_min":0,"x_max":1215,"o":"m 174 174 l 174 694 l 0 694 l 0 868 l 347 868 l 347 1215 l 521 1215 l 521 868 l 1042 868 l 1042 694 l 347 694 l 347 521 l 1042 521 l 1042 347 l 347 347 l 347 174 l 174 174 m 521 -174 l 521 0 l 1042 0 l 1042 -174 l 521 -174 m 1042 0 l 1042 347 l 1215 347 l 1215 0 l 1042 0 z "},"ぢ":{"ha":1389,"x_min":0,"x_max":1215,"o":"m 174 174 l 174 694 l 0 694 l 0 868 l 347 868 l 347 1215 l 521 1215 l 521 868 l 1042 868 l 1042 694 l 347 694 l 347 521 l 1042 521 l 1042 347 l 347 347 l 347 174 l 174 174 m 521 -174 l 521 0 l 1042 0 l 1042 -174 l 521 -174 m 1042 0 l 1042 347 l 1215 347 l 1215 0 l 1042 0 m 521 1389 l 521 1563 l 694 1563 l 694 1389 l 521 1389 m 694 1215 l 694 1389 l 868 1389 l 868 1215 l 694 1215 m 868 1563 l 868 1736 l 1042 1736 l 1042 1563 l 868 1563 m 1042 1389 l 1042 1563 l 1215 1563 l 1215 1389 l 1042 1389 z "},"つ":{"ha":1389,"x_min":0,"x_max":1042,"o":"m 0 694 l 0 868 l 868 868 l 868 694 l 0 694 m 174 -174 l 174 0 l 694 0 l 694 -174 l 174 -174 m 694 0 l 694 174 l 868 174 l 868 0 l 694 0 m 868 174 l 868 694 l 1042 694 l 1042 174 l 868 174 z "},"っ":{"ha":1389,"x_min":0,"x_max":868,"o":"m 0 521 l 0 694 l 694 694 l 694 521 l 0 521 m 174 -174 l 174 0 l 521 0 l 521 -174 l 174 -174 m 521 0 l 521 174 l 694 174 l 694 0 l 521 0 m 694 174 l 694 521 l 868 521 l 868 174 l 694 174 z "},"づ":{"ha":1389,"x_min":0,"x_max":1042,"o":"m 0 694 l 0 868 l 868 868 l 868 694 l 0 694 m 174 -174 l 174 0 l 694 0 l 694 -174 l 174 -174 m 694 0 l 694 174 l 868 174 l 868 0 l 694 0 m 868 174 l 868 694 l 1042 694 l 1042 174 l 868 174 m 347 1389 l 347 1563 l 521 1563 l 521 1389 l 347 1389 m 521 1215 l 521 1389 l 694 1389 l 694 1215 l 521 1215 m 694 1563 l 694 1736 l 868 1736 l 868 1563 l 694 1563 m 868 1389 l 868 1563 l 1042 1563 l 1042 1389 l 868 1389 z "},"て":{"ha":1389,"x_min":0,"x_max":1215,"o":"m 694 694 l 694 868 l 0 868 l 0 1042 l 1215 1042 l 1215 868 l 1042 868 l 1042 694 l 694 694 m 521 0 l 521 174 l 694 174 l 694 0 l 521 0 m 347 174 l 347 521 l 521 521 l 521 174 l 347 174 m 694 -174 l 694 0 l 1042 0 l 1042 -174 l 694 -174 m 521 521 l 521 694 l 694 694 l 694 521 l 521 521 z "},"で":{"ha":1389,"x_min":0,"x_max":1215,"o":"m 694 694 l 694 868 l 0 868 l 0 1042 l 1215 1042 l 1215 868 l 1042 868 l 1042 694 l 694 694 m 521 0 l 521 174 l 694 174 l 694 0 l 521 0 m 347 174 l 347 521 l 521 521 l 521 174 l 347 174 m 694 -174 l 694 0 l 1042 0 l 1042 -174 l 694 -174 m 521 521 l 521 694 l 694 694 l 694 521 l 521 521 m 521 1389 l 521 1563 l 694 1563 l 694 1389 l 521 1389 m 694 1215 l 694 1389 l 868 1389 l 868 1215 l 694 1215 m 868 1563 l 868 1736 l 1042 1736 l 1042 1563 l 868 1563 m 1042 1389 l 1042 1563 l 1215 1563 l 1215 1389 l 1042 1389 z "},"と":{"ha":1389,"x_min":0,"x_max":1215,"o":"m 347 521 l 347 1215 l 521 1215 l 521 694 l 694 694 l 694 521 l 347 521 m 0 0 l 0 347 l 174 347 l 174 0 l 0 0 m 174 -174 l 174 0 l 1215 0 l 1215 -174 l 174 -174 m 174 347 l 174 521 l 347 521 l 347 347 l 174 347 m 694 694 l 694 868 l 1042 868 l 1042 694 l 694 694 z "},"ど":{"ha":1389,"x_min":0,"x_max":1215,"o":"m 347 521 l 347 1215 l 521 1215 l 521 694 l 694 694 l 694 521 l 347 521 m 0 0 l 0 347 l 174 347 l 174 0 l 0 0 m 174 -174 l 174 0 l 1215 0 l 1215 -174 l 174 -174 m 174 347 l 174 521 l 347 521 l 347 347 l 174 347 m 694 694 l 694 868 l 1042 868 l 1042 694 l 694 694 m 521 1389 l 521 1563 l 694 1563 l 694 1389 l 521 1389 m 694 1215 l 694 1389 l 868 1389 l 868 1215 l 694 1215 m 868 1563 l 868 1736 l 1042 1736 l 1042 1563 l 868 1563 m 1042 1389 l 1042 1563 l 1215 1563 l 1215 1389 l 1042 1389 z "},"な":{"ha":1389,"x_min":0,"x_max":1215,"o":"m 174 521 l 174 694 l 0 694 l 0 868 l 347 868 l 347 1215 l 521 1215 l 521 868 l 694 868 l 694 694 l 347 694 l 347 521 l 174 521 m 174 0 l 174 174 l 347 174 l 347 0 l 174 0 m 0 347 l 0 521 l 174 521 l 174 347 l 0 347 m 347 -174 l 347 0 l 868 0 l 868 -174 l 347 -174 m 868 0 l 868 174 l 347 174 l 347 347 l 868 347 l 868 521 l 1042 521 l 1042 174 l 1215 174 l 1215 0 l 868 0 m 868 868 l 868 1042 l 1042 1042 l 1042 868 l 868 868 m 1042 694 l 1042 868 l 1215 868 l 1215 694 l 1042 694 z "},"に":{"ha":1389,"x_min":0,"x_max":1215,"o":"m 0 -174 l 0 1042 l 174 1042 l 174 -174 l 0 -174 m 347 0 l 347 347 l 521 347 l 521 0 l 347 0 m 521 -174 l 521 0 l 1215 0 l 1215 -174 l 521 -174 m 521 868 l 521 1042 l 1215 1042 l 1215 868 l 521 868 z "},"ぬ":{"ha":1389,"x_min":0,"x_max":1215,"o":"m 0 0 l 0 521 l 174 521 l 174 1042 l 347 1042 l 347 694 l 521 694 l 521 521 l 347 521 l 347 347 l 174 347 l 174 0 l 0 0 m 174 -174 l 174 0 l 347 0 l 347 -174 l 174 -174 m 347 0 l 347 347 l 521 347 l 521 0 l 347 0 m 521 347 l 521 521 l 694 521 l 694 347 l 521 347 m 694 -174 l 694 174 l 868 174 l 868 0 l 1042 0 l 1042 174 l 868 174 l 868 347 l 1042 347 l 1042 694 l 1215 694 l 1215 -174 l 694 -174 m 694 521 l 694 694 l 521 694 l 521 868 l 694 868 l 694 1215 l 868 1215 l 868 868 l 1042 868 l 1042 694 l 868 694 l 868 521 l 694 521 z "},"ね":{"ha":1389,"x_min":0,"x_max":1215,"o":"m 347 -174 l 347 174 l 174 174 l 174 347 l 347 347 l 347 694 l 0 694 l 0 868 l 347 868 l 347 1215 l 521 1215 l 521 694 l 694 694 l 694 521 l 521 521 l 521 -174 l 347 -174 m 0 0 l 0 174 l 174 174 l 174 0 l 0 0 m 694 -174 l 694 174 l 868 174 l 868 0 l 1042 0 l 1042 174 l 868 174 l 868 347 l 1042 347 l 1042 694 l 1215 694 l 1215 -174 l 694 -174 m 694 694 l 694 868 l 1042 868 l 1042 694 l 694 694 z "},"の":{"ha":1389,"x_min":0,"x_max":1215,"o":"m 521 0 l 521 868 l 347 868 l 347 1042 l 868 1042 l 868 868 l 694 868 l 694 0 l 521 0 m 174 -174 l 174 0 l 521 0 l 521 -174 l 174 -174 m 0 0 l 0 694 l 174 694 l 174 0 l 0 0 m 868 -174 l 868 0 l 1042 0 l 1042 -174 l 868 -174 m 174 694 l 174 868 l 347 868 l 347 694 l 174 694 m 1042 0 l 1042 694 l 1215 694 l 1215 0 l 1042 0 m 868 694 l 868 868 l 1042 868 l 1042 694 l 868 694 z "},"は":{"ha":1389,"x_min":0,"x_max":1215,"o":"m 868 0 l 868 347 l 521 347 l 521 521 l 868 521 l 868 868 l 521 868 l 521 1042 l 868 1042 l 868 1215 l 1042 1215 l 1042 1042 l 1215 1042 l 1215 868 l 1042 868 l 1042 347 l 1215 347 l 1215 174 l 1042 174 l 1042 0 l 868 0 m 0 -174 l 0 1042 l 174 1042 l 174 -174 l 0 -174 m 347 0 l 347 347 l 521 347 l 521 0 l 347 0 m 521 -174 l 521 0 l 868 0 l 868 -174 l 521 -174 z "},"ば":{"ha":1389,"x_min":0,"x_max":1215,"o":"m 868 0 l 868 347 l 521 347 l 521 521 l 868 521 l 868 868 l 521 868 l 521 1042 l 868 1042 l 868 1215 l 1042 1215 l 1042 1042 l 1215 1042 l 1215 868 l 1042 868 l 1042 347 l 1215 347 l 1215 174 l 1042 174 l 1042 0 l 868 0 m 0 -174 l 0 1042 l 174 1042 l 174 -174 l 0 -174 m 347 0 l 347 347 l 521 347 l 521 0 l 347 0 m 521 -174 l 521 0 l 868 0 l 868 -174 l 521 -174 m 521 1389 l 521 1563 l 694 1563 l 694 1389 l 521 1389 m 694 1215 l 694 1389 l 868 1389 l 868 1215 l 694 1215 m 868 1563 l 868 1736 l 1042 1736 l 1042 1563 l 868 1563 m 1042 1389 l 1042 1563 l 1215 1563 l 1215 1389 l 1042 1389 z "},"ぱ":{"ha":1389,"x_min":0,"x_max":1215,"o":"m 868 0 l 868 347 l 521 347 l 521 521 l 868 521 l 868 868 l 521 868 l 521 1042 l 868 1042 l 868 1215 l 694 1215 l 694 1736 l 1215 1736 l 1215 1215 l 1042 1215 l 1042 1042 l 1215 1042 l 1215 868 l 1042 868 l 1042 347 l 1215 347 l 1215 174 l 1042 174 l 1042 0 l 868 0 m 0 -174 l 0 1042 l 174 1042 l 174 -174 l 0 -174 m 347 0 l 347 347 l 521 347 l 521 0 l 347 0 m 521 -174 l 521 0 l 868 0 l 868 -174 l 521 -174 m 868 1389 l 1042 1389 l 1042 1563 l 868 1563 l 868 1389 z "},"ひ":{"ha":1389,"x_min":0,"x_max":1215,"o":"m 694 0 l 694 347 l 868 347 l 868 868 l 1042 868 l 1042 694 l 1215 694 l 1215 521 l 1042 521 l 1042 174 l 868 174 l 868 0 l 694 0 m 0 0 l 0 347 l 174 347 l 174 0 l 0 0 m 174 -174 l 174 0 l 694 0 l 694 -174 l 174 -174 m 174 347 l 174 694 l 347 694 l 347 347 l 174 347 m 347 694 l 347 868 l 0 868 l 0 1042 l 694 1042 l 694 868 l 521 868 l 521 694 l 347 694 z "},"び":{"ha":1389,"x_min":0,"x_max":1215,"o":"m 694 0 l 694 347 l 868 347 l 868 868 l 1042 868 l 1042 694 l 1215 694 l 1215 521 l 1042 521 l 1042 174 l 868 174 l 868 0 l 694 0 m 0 0 l 0 347 l 174 347 l 174 0 l 0 0 m 174 -174 l 174 0 l 694 0 l 694 -174 l 174 -174 m 174 347 l 174 694 l 347 694 l 347 347 l 174 347 m 347 694 l 347 868 l 0 868 l 0 1042 l 694 1042 l 694 868 l 521 868 l 521 694 l 347 694 m 521 1389 l 521 1563 l 694 1563 l 694 1389 l 521 1389 m 694 1215 l 694 1389 l 868 1389 l 868 1215 l 694 1215 m 868 1563 l 868 1736 l 1042 1736 l 1042 1563 l 868 1563 m 1042 1389 l 1042 1563 l 1215 1563 l 1215 1389 l 1042 1389 z "},"ぴ":{"ha":1389,"x_min":0,"x_max":1215,"o":"m 694 0 l 694 347 l 868 347 l 868 868 l 1042 868 l 1042 694 l 1215 694 l 1215 521 l 1042 521 l 1042 174 l 868 174 l 868 0 l 694 0 m 0 0 l 0 347 l 174 347 l 174 0 l 0 0 m 174 -174 l 174 0 l 694 0 l 694 -174 l 174 -174 m 174 347 l 174 694 l 347 694 l 347 347 l 174 347 m 347 694 l 347 868 l 0 868 l 0 1042 l 694 1042 l 694 868 l 521 868 l 521 694 l 347 694 m 694 1215 l 694 1736 l 1215 1736 l 1215 1215 l 694 1215 m 868 1389 l 1042 1389 l 1042 1563 l 868 1563 l 868 1389 z "},"ふ":{"ha":1389,"x_min":0,"x_max":1215,"o":"m 694 694 l 694 868 l 347 868 l 347 1042 l 868 1042 l 868 694 l 694 694 m 0 0 l 0 347 l 174 347 l 174 0 l 0 0 m 347 -174 l 347 0 l 694 0 l 694 -174 l 347 -174 m 174 347 l 174 521 l 347 521 l 347 347 l 174 347 m 694 0 l 694 521 l 868 521 l 868 0 l 694 0 m 521 521 l 521 694 l 694 694 l 694 521 l 521 521 m 1042 0 l 1042 347 l 1215 347 l 1215 0 l 1042 0 z "},"ぶ":{"ha":1389,"x_min":0,"x_max":1215,"o":"m 694 694 l 694 868 l 347 868 l 347 1042 l 868 1042 l 868 694 l 694 694 m 0 0 l 0 347 l 174 347 l 174 0 l 0 0 m 347 -174 l 347 0 l 694 0 l 694 -174 l 347 -174 m 174 347 l 174 521 l 347 521 l 347 347 l 174 347 m 694 0 l 694 521 l 868 521 l 868 0 l 694 0 m 521 521 l 521 694 l 694 694 l 694 521 l 521 521 m 1042 0 l 1042 347 l 1215 347 l 1215 0 l 1042 0 m 521 1389 l 521 1563 l 694 1563 l 694 1389 l 521 1389 m 694 1215 l 694 1389 l 868 1389 l 868 1215 l 694 1215 m 868 1563 l 868 1736 l 1042 1736 l 1042 1563 l 868 1563 m 1042 1389 l 1042 1563 l 1215 1563 l 1215 1389 l 1042 1389 z "},"ぷ":{"ha":1389,"x_min":0,"x_max":1215,"o":"m 694 1215 l 694 1736 l 1215 1736 l 1215 1215 l 694 1215 m 0 0 l 0 347 l 174 347 l 174 0 l 0 0 m 347 -174 l 347 0 l 694 0 l 694 -174 l 347 -174 m 174 347 l 174 521 l 347 521 l 347 347 l 174 347 m 694 0 l 694 521 l 868 521 l 868 0 l 694 0 m 521 521 l 521 694 l 694 694 l 694 521 l 521 521 m 1042 0 l 1042 347 l 1215 347 l 1215 0 l 1042 0 m 694 694 l 694 868 l 347 868 l 347 1042 l 868 1042 l 868 694 l 694 694 m 868 1389 l 1042 1389 l 1042 1563 l 868 1563 l 868 1389 z "},"へ":{"ha":1389,"x_min":0,"x_max":1215,"o":"m 1042 0 l 1042 174 l 1215 174 l 1215 0 l 1042 0 m 0 347 l 0 521 l 174 521 l 174 347 l 0 347 m 174 521 l 174 694 l 347 694 l 347 521 l 174 521 m 347 694 l 347 868 l 521 868 l 521 694 l 347 694 m 521 521 l 521 694 l 694 694 l 694 521 l 521 521 m 694 347 l 694 521 l 868 521 l 868 347 l 694 347 m 868 174 l 868 347 l 1042 347 l 1042 174 l 868 174 z "},"べ":{"ha":1389,"x_min":0,"x_max":1215,"o":"m 868 1563 l 868 1736 l 1042 1736 l 1042 1563 l 868 1563 m 0 347 l 0 521 l 174 521 l 174 347 l 0 347 m 174 521 l 174 694 l 347 694 l 347 521 l 174 521 m 347 694 l 347 868 l 521 868 l 521 694 l 347 694 m 521 521 l 521 694 l 694 694 l 694 521 l 521 521 m 694 347 l 694 521 l 868 521 l 868 347 l 694 347 m 868 174 l 868 347 l 1042 347 l 1042 174 l 868 174 m 1042 0 l 1042 174 l 1215 174 l 1215 0 l 1042 0 m 521 1389 l 521 1563 l 694 1563 l 694 1389 l 521 1389 m 694 1215 l 694 1389 l 868 1389 l 868 1215 l 694 1215 m 1042 1389 l 1042 1563 l 1215 1563 l 1215 1389 l 1042 1389 z "},"ぺ":{"ha":1389,"x_min":0,"x_max":1215,"o":"m 694 1215 l 694 1736 l 1215 1736 l 1215 1215 l 694 1215 m 0 347 l 0 521 l 174 521 l 174 347 l 0 347 m 174 521 l 174 694 l 347 694 l 347 521 l 174 521 m 347 694 l 347 868 l 521 868 l 521 694 l 347 694 m 521 521 l 521 694 l 694 694 l 694 521 l 521 521 m 694 347 l 694 521 l 868 521 l 868 347 l 694 347 m 868 174 l 868 347 l 1042 347 l 1042 174 l 868 174 m 1042 0 l 1042 174 l 1215 174 l 1215 0 l 1042 0 m 868 1389 l 1042 1389 l 1042 1563 l 868 1563 l 868 1389 z "},"ほ":{"ha":1389,"x_min":0,"x_max":1215,"o":"m 868 0 l 868 347 l 521 347 l 521 521 l 868 521 l 868 694 l 521 694 l 521 868 l 868 868 l 868 1042 l 521 1042 l 521 1215 l 1215 1215 l 1215 1042 l 1042 1042 l 1042 868 l 1215 868 l 1215 694 l 1042 694 l 1042 347 l 1215 347 l 1215 174 l 1042 174 l 1042 0 l 868 0 m 0 -174 l 0 1042 l 174 1042 l 174 -174 l 0 -174 m 347 0 l 347 347 l 521 347 l 521 0 l 347 0 m 521 -174 l 521 0 l 868 0 l 868 -174 l 521 -174 z "},"ぼ":{"ha":1389,"x_min":0,"x_max":1215,"o":"m 868 0 l 868 347 l 521 347 l 521 521 l 868 521 l 868 694 l 521 694 l 521 868 l 868 868 l 868 1042 l 521 1042 l 521 1215 l 694 1215 l 694 1389 l 868 1389 l 868 1215 l 1215 1215 l 1215 1042 l 1042 1042 l 1042 868 l 1215 868 l 1215 694 l 1042 694 l 1042 347 l 1215 347 l 1215 174 l 1042 174 l 1042 0 l 868 0 m 0 -174 l 0 1042 l 174 1042 l 174 -174 l 0 -174 m 347 0 l 347 347 l 521 347 l 521 0 l 347 0 m 521 -174 l 521 0 l 868 0 l 868 -174 l 521 -174 m 521 1389 l 521 1563 l 694 1563 l 694 1389 l 521 1389 m 868 1563 l 868 1736 l 1042 1736 l 1042 1563 l 868 1563 m 1042 1389 l 1042 1563 l 1215 1563 l 1215 1389 l 1042 1389 z "},"ぽ":{"ha":1389,"x_min":0,"x_max":1215,"o":"m 868 0 l 868 347 l 521 347 l 521 521 l 868 521 l 868 694 l 521 694 l 521 868 l 868 868 l 868 1042 l 521 1042 l 521 1215 l 694 1215 l 694 1736 l 1215 1736 l 1215 1042 l 1042 1042 l 1042 868 l 1215 868 l 1215 694 l 1042 694 l 1042 347 l 1215 347 l 1215 174 l 1042 174 l 1042 0 l 868 0 m 0 -174 l 0 1042 l 174 1042 l 174 -174 l 0 -174 m 347 0 l 347 347 l 521 347 l 521 0 l 347 0 m 521 -174 l 521 0 l 868 0 l 868 -174 l 521 -174 m 868 1389 l 1042 1389 l 1042 1563 l 868 1563 l 868 1389 z "},"ま":{"ha":1389,"x_min":0,"x_max":1042,"o":"m 174 -174 l 174 0 l 694 0 l 694 174 l 174 174 l 174 347 l 694 347 l 694 521 l 174 521 l 174 694 l 694 694 l 694 868 l 174 868 l 174 1042 l 694 1042 l 694 1215 l 868 1215 l 868 1042 l 1042 1042 l 1042 868 l 868 868 l 868 694 l 1042 694 l 1042 521 l 868 521 l 868 174 l 1042 174 l 1042 0 l 868 0 l 868 -174 l 174 -174 m 0 0 l 0 174 l 174 174 l 174 0 l 0 0 z "},"み":{"ha":1389,"x_min":0,"x_max":1215,"o":"m 868 0 l 868 521 l 694 521 l 694 347 l 521 347 l 521 521 l 174 521 l 174 694 l 521 694 l 521 1042 l 174 1042 l 174 1215 l 694 1215 l 694 694 l 868 694 l 868 868 l 1042 868 l 1042 694 l 1215 694 l 1215 521 l 1042 521 l 1042 0 l 868 0 m 174 -174 l 174 0 l 347 0 l 347 -174 l 174 -174 m 0 0 l 0 521 l 174 521 l 174 0 l 0 0 m 347 0 l 347 347 l 521 347 l 521 0 l 347 0 m 694 -174 l 694 0 l 868 0 l 868 -174 l 694 -174 z "},"む":{"ha":1389,"x_min":0,"x_max":1215,"o":"m 347 -174 l 347 0 l 174 0 l 174 174 l 347 174 l 347 521 l 174 521 l 174 694 l 347 694 l 347 868 l 0 868 l 0 1042 l 347 1042 l 347 1215 l 521 1215 l 521 1042 l 694 1042 l 694 868 l 521 868 l 521 0 l 1042 0 l 1042 -174 l 347 -174 m 0 174 l 0 521 l 174 521 l 174 174 l 0 174 m 1042 0 l 1042 347 l 1215 347 l 1215 0 l 1042 0 m 1042 694 l 1042 1042 l 1215 1042 l 1215 694 l 1042 694 z "},"め":{"ha":1389,"x_min":0,"x_max":1215,"o":"m 694 347 l 694 694 l 521 694 l 521 868 l 694 868 l 694 1215 l 868 1215 l 868 694 l 1042 694 l 1042 521 l 868 521 l 868 347 l 694 347 m 174 -174 l 174 0 l 347 0 l 347 -174 l 174 -174 m 0 0 l 0 521 l 174 521 l 174 0 l 0 0 m 347 0 l 347 174 l 521 174 l 521 347 l 694 347 l 694 0 l 347 0 m 868 -174 l 868 0 l 1042 0 l 1042 -174 l 868 -174 m 347 347 l 347 521 l 174 521 l 174 1042 l 347 1042 l 347 694 l 521 694 l 521 347 l 347 347 m 1042 0 l 1042 521 l 1215 521 l 1215 0 l 1042 0 z "},"も":{"ha":1389,"x_min":0,"x_max":1215,"o":"m 347 0 l 347 347 l 0 347 l 0 521 l 347 521 l 347 694 l 0 694 l 0 868 l 347 868 l 347 1215 l 521 1215 l 521 868 l 868 868 l 868 694 l 521 694 l 521 521 l 868 521 l 868 347 l 521 347 l 521 0 l 347 0 m 521 -174 l 521 0 l 1042 0 l 1042 -174 l 521 -174 m 1042 0 l 1042 174 l 1215 174 l 1215 0 l 1042 0 z "},"や":{"ha":1389,"x_min":0,"x_max":1215,"o":"m 174 174 l 174 694 l 0 694 l 0 868 l 174 868 l 174 1215 l 347 1215 l 347 868 l 694 868 l 694 1215 l 868 1215 l 868 868 l 1042 868 l 1042 694 l 347 694 l 347 174 l 174 174 m 347 -174 l 347 174 l 521 174 l 521 -174 l 347 -174 m 521 347 l 521 521 l 694 521 l 694 347 l 521 347 m 694 174 l 694 347 l 1042 347 l 1042 174 l 694 174 m 1042 347 l 1042 694 l 1215 694 l 1215 347 l 1042 347 z "},"ゃ":{"ha":1389,"x_min":0,"x_max":1042,"o":"m 174 174 l 174 347 l 0 347 l 0 521 l 174 521 l 174 868 l 347 868 l 347 694 l 521 694 l 521 868 l 694 868 l 694 694 l 868 694 l 868 521 l 694 521 l 694 347 l 521 347 l 521 521 l 347 521 l 347 174 l 174 174 m 347 -174 l 347 174 l 521 174 l 521 -174 l 347 -174 m 694 0 l 694 174 l 868 174 l 868 0 l 694 0 m 868 174 l 868 521 l 1042 521 l 1042 174 l 868 174 z "},"ゆ":{"ha":1389,"x_min":0,"x_max":1215,"o":"m 521 0 l 521 174 l 694 174 l 694 868 l 347 868 l 347 1042 l 694 1042 l 694 1215 l 868 1215 l 868 1042 l 1042 1042 l 1042 868 l 868 868 l 868 174 l 1042 174 l 1042 0 l 521 0 m 347 -174 l 347 0 l 521 0 l 521 -174 l 347 -174 m 347 174 l 347 347 l 521 347 l 521 174 l 347 174 m 0 174 l 0 1042 l 174 1042 l 174 868 l 347 868 l 347 694 l 174 694 l 174 174 l 0 174 m 1042 174 l 1042 868 l 1215 868 l 1215 174 l 1042 174 z "},"ゅ":{"ha":1389,"x_min":0,"x_max":1042,"o":"m 521 -174 l 521 0 l 347 0 l 347 174 l 521 174 l 521 521 l 347 521 l 347 694 l 521 694 l 521 868 l 694 868 l 694 694 l 868 694 l 868 521 l 694 521 l 694 174 l 868 174 l 868 0 l 694 0 l 694 -174 l 521 -174 m 0 174 l 0 694 l 174 694 l 174 521 l 347 521 l 347 347 l 174 347 l 174 174 l 0 174 m 868 174 l 868 521 l 1042 521 l 1042 174 l 868 174 z "},"よ":{"ha":1389,"x_min":0,"x_max":1215,"o":"m 0 0 l 0 347 l 694 347 l 694 1215 l 868 1215 l 868 868 l 1215 868 l 1215 694 l 868 694 l 868 347 l 1042 347 l 1042 174 l 868 174 l 868 0 l 694 0 l 694 174 l 174 174 l 174 0 l 0 0 m 174 -174 l 174 0 l 694 0 l 694 -174 l 174 -174 m 1042 0 l 1042 174 l 1215 174 l 1215 0 l 1042 0 z "},"ょ":{"ha":1389,"x_min":0,"x_max":868,"o":"m 174 -174 l 174 0 l 521 0 l 521 174 l 174 174 l 174 347 l 521 347 l 521 868 l 694 868 l 694 694 l 868 694 l 868 521 l 694 521 l 694 174 l 868 174 l 868 0 l 694 0 l 694 -174 l 174 -174 m 0 0 l 0 174 l 174 174 l 174 0 l 0 0 z "},"ら":{"ha":1389,"x_min":0,"x_max":1042,"o":"m 0 347 l 0 868 l 174 868 l 174 521 l 347 521 l 347 347 l 0 347 m 174 -174 l 174 0 l 868 0 l 868 -174 l 174 -174 m 347 521 l 347 694 l 868 694 l 868 521 l 347 521 m 868 0 l 868 521 l 1042 521 l 1042 0 l 868 0 m 174 1042 l 174 1215 l 521 1215 l 521 1042 l 174 1042 m 521 868 l 521 1042 l 868 1042 l 868 868 l 521 868 z "},"り":{"ha":1389,"x_min":0,"x_max":868,"o":"m 694 174 l 694 1215 l 868 1215 l 868 174 l 694 174 m 174 -174 l 174 0 l 521 0 l 521 -174 l 174 -174 m 521 0 l 521 174 l 694 174 l 694 0 l 521 0 m 0 347 l 0 1215 l 174 1215 l 174 347 l 0 347 z "},"る":{"ha":1389,"x_min":0,"x_max":1215,"o":"m 694 868 l 694 1042 l 174 1042 l 174 1215 l 1042 1215 l 1042 1042 l 868 1042 l 868 868 l 694 868 m 174 0 l 174 174 l 347 174 l 347 0 l 174 0 m 0 347 l 0 521 l 174 521 l 174 347 l 0 347 m 347 -174 l 347 0 l 694 0 l 694 174 l 868 174 l 868 0 l 1042 0 l 1042 -174 l 347 -174 m 347 174 l 347 347 l 694 347 l 694 174 l 347 174 m 174 521 l 174 694 l 347 694 l 347 868 l 694 868 l 694 694 l 1042 694 l 1042 521 l 174 521 m 1042 0 l 1042 521 l 1215 521 l 1215 0 l 1042 0 z "},"れ":{"ha":1389,"x_min":0,"x_max":1215,"o":"m 347 -174 l 347 174 l 174 174 l 174 347 l 347 347 l 347 694 l 0 694 l 0 868 l 347 868 l 347 1215 l 521 1215 l 521 694 l 694 694 l 694 521 l 521 521 l 521 -174 l 347 -174 m 0 0 l 0 174 l 174 174 l 174 0 l 0 0 m 1042 -174 l 1042 0 l 1215 0 l 1215 -174 l 1042 -174 m 868 0 l 868 347 l 1042 347 l 1042 0 l 868 0 m 694 694 l 694 868 l 1042 868 l 1042 694 l 694 694 m 1042 347 l 1042 694 l 1215 694 l 1215 347 l 1042 347 z "},"ろ":{"ha":1389,"x_min":0,"x_max":1215,"o":"m 694 868 l 694 1042 l 174 1042 l 174 1215 l 1042 1215 l 1042 1042 l 868 1042 l 868 868 l 694 868 m 0 347 l 0 521 l 174 521 l 174 347 l 0 347 m 347 -174 l 347 0 l 1042 0 l 1042 -174 l 347 -174 m 174 521 l 174 694 l 347 694 l 347 868 l 694 868 l 694 694 l 1042 694 l 1042 521 l 174 521 m 1042 0 l 1042 521 l 1215 521 l 1215 0 l 1042 0 z "},"わ":{"ha":1389,"x_min":0,"x_max":1215,"o":"m 347 -174 l 347 174 l 174 174 l 174 347 l 347 347 l 347 694 l 174 694 l 174 521 l 0 521 l 0 868 l 347 868 l 347 1215 l 521 1215 l 521 694 l 694 694 l 694 521 l 521 521 l 521 -174 l 347 -174 m 0 0 l 0 174 l 174 174 l 174 0 l 0 0 m 868 -174 l 868 0 l 1042 0 l 1042 -174 l 868 -174 m 1042 0 l 1042 694 l 1215 694 l 1215 0 l 1042 0 m 694 694 l 694 868 l 1042 868 l 1042 694 l 694 694 z "},"ゎ":{"ha":1389,"x_min":0,"x_max":868,"o":"m 174 -174 l 174 0 l 0 0 l 0 174 l 174 174 l 174 347 l 0 347 l 0 521 l 174 521 l 174 694 l 347 694 l 347 521 l 694 521 l 694 347 l 347 347 l 347 -174 l 174 -174 m 521 -174 l 521 0 l 694 0 l 694 -174 l 521 -174 m 694 0 l 694 347 l 868 347 l 868 0 l 694 0 z "},"ゐ":{"ha":1389,"x_min":0,"x_max":1215,"o":"m 347 0 l 347 521 l 174 521 l 174 694 l 347 694 l 347 868 l 0 868 l 0 1042 l 521 1042 l 521 868 l 868 868 l 868 694 l 521 694 l 521 0 l 347 0 m 174 -174 l 174 0 l 347 0 l 347 -174 l 174 -174 m 0 0 l 0 521 l 174 521 l 174 0 l 0 0 m 694 -174 l 694 174 l 868 174 l 868 0 l 1042 0 l 1042 174 l 868 174 l 868 347 l 1042 347 l 1042 521 l 1215 521 l 1215 -174 l 694 -174 m 868 521 l 868 694 l 1042 694 l 1042 521 l 868 521 z "},"ゑ":{"ha":1389,"x_min":0,"x_max":1215,"o":"m 174 694 l 174 868 l 521 868 l 521 1042 l 174 1042 l 174 1215 l 1042 1215 l 1042 1042 l 868 1042 l 868 868 l 1042 868 l 1042 694 l 174 694 m 0 -174 l 0 0 l 174 0 l 174 -174 l 0 -174 m 521 -174 l 521 0 l 694 0 l 694 -174 l 521 -174 m 0 521 l 0 694 l 174 694 l 174 521 l 0 521 m 174 0 l 174 174 l 347 174 l 347 521 l 694 521 l 694 347 l 1042 347 l 1042 0 l 694 0 l 694 174 l 521 174 l 521 0 l 174 0 m 1042 -174 l 1042 0 l 1215 0 l 1215 -174 l 1042 -174 m 1042 347 l 1042 694 l 1215 694 l 1215 347 l 1042 347 z "},"を":{"ha":1389,"x_min":0,"x_max":868,"o":"m 521 174 l 521 347 l 347 347 l 347 521 l 174 521 l 174 868 l 0 868 l 0 1042 l 347 1042 l 347 1215 l 521 1215 l 521 1042 l 694 1042 l 694 868 l 347 868 l 347 694 l 521 694 l 521 521 l 694 521 l 694 174 l 521 174 m 174 0 l 174 347 l 347 347 l 347 0 l 174 0 m 0 347 l 0 521 l 174 521 l 174 347 l 0 347 m 347 -174 l 347 0 l 868 0 l 868 -174 l 347 -174 m 694 521 l 694 694 l 868 694 l 868 521 l 694 521 z "},"ん":{"ha":1389,"x_min":0,"x_max":1215,"o":"m 174 174 l 174 521 l 347 521 l 347 868 l 521 868 l 521 521 l 694 521 l 694 347 l 347 347 l 347 174 l 174 174 m 0 -174 l 0 174 l 174 174 l 174 -174 l 0 -174 m 694 0 l 694 347 l 868 347 l 868 0 l 694 0 m 868 -174 l 868 0 l 1215 0 l 1215 -174 l 868 -174 m 521 868 l 521 1215 l 694 1215 l 694 868 l 521 868 z "},"ゔ":{"ha":1389,"x_min":0,"x_max":1042,"o":"m 0 1042 l 0 1215 l 521 1215 l 521 1389 l 694 1389 l 694 1042 l 0 1042 m 174 -174 l 174 0 l 521 0 l 521 -174 l 174 -174 m 0 521 l 0 694 l 174 694 l 174 521 l 0 521 m 521 0 l 521 174 l 694 174 l 694 0 l 521 0 m 174 694 l 174 868 l 694 868 l 694 694 l 174 694 m 694 174 l 694 694 l 868 694 l 868 174 l 694 174 m 347 1389 l 347 1563 l 521 1563 l 521 1389 l 347 1389 m 694 1563 l 694 1736 l 868 1736 l 868 1563 l 694 1563 m 868 1389 l 868 1563 l 1042 1563 l 1042 1389 l 868 1389 z "},"ゟ":{"ha":1389,"x_min":0,"x_max":1215,"o":"m 174 0 l 174 521 l 347 521 l 347 1215 l 521 1215 l 521 868 l 1215 868 l 1215 694 l 521 694 l 521 521 l 1042 521 l 1042 347 l 347 347 l 347 0 l 174 0 m 0 -174 l 0 0 l 174 0 l 174 -174 l 0 -174 m 521 -174 l 521 0 l 1042 0 l 1042 -174 l 521 -174 m 1042 0 l 1042 347 l 1215 347 l 1215 0 l 1042 0 z "},"ア":{"ha":1389,"x_min":0,"x_max":1215,"o":"m 1042 521 l 1042 868 l 0 868 l 0 1042 l 1215 1042 l 1215 521 l 1042 521 m 174 -174 l 174 0 l 521 0 l 521 -174 l 174 -174 m 521 0 l 521 694 l 694 694 l 694 521 l 1042 521 l 1042 347 l 694 347 l 694 0 l 521 0 z "},"ァ":{"ha":1389,"x_min":0,"x_max":868,"o":"m 694 174 l 694 521 l 0 521 l 0 694 l 868 694 l 868 174 l 694 174 m 174 -174 l 174 0 l 347 0 l 347 -174 l 174 -174 m 347 0 l 347 347 l 521 347 l 521 174 l 694 174 l 694 0 l 347 0 z "},"イ":{"ha":1389,"x_min":0,"x_max":1042,"o":"m 521 -174 l 521 521 l 347 521 l 347 694 l 694 694 l 694 -174 l 521 -174 m 0 347 l 0 521 l 347 521 l 347 347 l 0 347 m 694 694 l 694 868 l 868 868 l 868 694 l 694 694 m 868 868 l 868 1215 l 1042 1215 l 1042 868 l 868 868 z "},"ィ":{"ha":1389,"x_min":0,"x_max":694,"o":"m 347 -174 l 347 174 l 0 174 l 0 347 l 347 347 l 347 521 l 521 521 l 521 -174 l 347 -174 m 521 521 l 521 694 l 694 694 l 694 521 l 521 521 z "},"ウ":{"ha":1389,"x_min":0,"x_max":1215,"o":"m 1042 174 l 1042 694 l 174 694 l 174 347 l 0 347 l 0 868 l 521 868 l 521 1215 l 694 1215 l 694 868 l 1215 868 l 1215 174 l 1042 174 m 521 -174 l 521 0 l 868 0 l 868 -174 l 521 -174 m 868 0 l 868 174 l 1042 174 l 1042 0 l 868 0 z "},"ゥ":{"ha":1389,"x_min":0,"x_max":868,"o":"m 0 174 l 0 521 l 347 521 l 347 694 l 521 694 l 521 521 l 868 521 l 868 174 l 694 174 l 694 347 l 174 347 l 174 174 l 0 174 m 174 -174 l 174 0 l 521 0 l 521 -174 l 174 -174 m 521 0 l 521 174 l 694 174 l 694 0 l 521 0 z "},"エ":{"ha":1389,"x_min":0,"x_max":1215,"o":"m 0 -174 l 0 0 l 521 0 l 521 868 l 174 868 l 174 1042 l 1042 1042 l 1042 868 l 694 868 l 694 0 l 1215 0 l 1215 -174 l 0 -174 z "},"ェ":{"ha":1389,"x_min":0,"x_max":868,"o":"m 0 -174 l 0 0 l 347 0 l 347 347 l 174 347 l 174 521 l 694 521 l 694 347 l 521 347 l 521 0 l 868 0 l 868 -174 l 0 -174 z "},"オ":{"ha":1389,"x_min":0,"x_max":1215,"o":"m 521 -174 l 521 0 l 694 0 l 694 521 l 521 521 l 521 694 l 0 694 l 0 868 l 694 868 l 694 1215 l 868 1215 l 868 868 l 1215 868 l 1215 694 l 868 694 l 868 -174 l 521 -174 m 0 0 l 0 174 l 174 174 l 174 0 l 0 0 m 174 174 l 174 347 l 347 347 l 347 174 l 174 174 m 347 347 l 347 521 l 521 521 l 521 347 l 347 347 z "},"ォ":{"ha":1389,"x_min":0,"x_max":868,"o":"m 521 -174 l 521 174 l 347 174 l 347 347 l 0 347 l 0 521 l 521 521 l 521 694 l 694 694 l 694 521 l 868 521 l 868 347 l 694 347 l 694 -174 l 521 -174 m 0 -174 l 0 0 l 174 0 l 174 -174 l 0 -174 m 174 0 l 174 174 l 347 174 l 347 0 l 174 0 z "},"カ":{"ha":1389,"x_min":0,"x_max":1215,"o":"m 1042 0 l 1042 694 l 521 694 l 521 174 l 347 174 l 347 694 l 174 694 l 174 868 l 347 868 l 347 1215 l 521 1215 l 521 868 l 1215 868 l 1215 0 l 1042 0 m 0 -174 l 0 0 l 174 0 l 174 -174 l 0 -174 m 174 0 l 174 174 l 347 174 l 347 0 l 174 0 m 694 -174 l 694 0 l 1042 0 l 1042 -174 l 694 -174 z "},"ヵ":{"ha":1389,"x_min":0,"x_max":868,"o":"m 694 0 l 694 347 l 347 347 l 347 174 l 174 174 l 174 347 l 0 347 l 0 521 l 174 521 l 174 694 l 347 694 l 347 521 l 868 521 l 868 0 l 694 0 m 0 0 l 0 174 l 174 174 l 174 0 l 0 0 m 521 -174 l 521 0 l 694 0 l 694 -174 l 521 -174 z "},"ガ":{"ha":1389,"x_min":0,"x_max":1215,"o":"m 1042 0 l 1042 694 l 521 694 l 521 174 l 347 174 l 347 694 l 174 694 l 174 868 l 347 868 l 347 1215 l 521 1215 l 521 868 l 1215 868 l 1215 0 l 1042 0 m 0 -174 l 0 0 l 174 0 l 174 -174 l 0 -174 m 174 0 l 174 174 l 347 174 l 347 0 l 174 0 m 694 -174 l 694 0 l 1042 0 l 1042 -174 l 694 -174 m 521 1389 l 521 1563 l 694 1563 l 694 1389 l 521 1389 m 694 1215 l 694 1389 l 868 1389 l 868 1215 l 694 1215 m 868 1563 l 868 1736 l 1042 1736 l 1042 1563 l 868 1563 m 1042 1389 l 1042 1563 l 1215 1563 l 1215 1389 l 1042 1389 z "},"キ":{"ha":1389,"x_min":0,"x_max":1215,"o":"m 521 -174 l 521 347 l 0 347 l 0 521 l 521 521 l 521 868 l 0 868 l 0 1042 l 521 1042 l 521 1215 l 694 1215 l 694 1042 l 1215 1042 l 1215 868 l 694 868 l 694 521 l 1215 521 l 1215 347 l 694 347 l 694 -174 l 521 -174 z "},"ギ":{"ha":1389,"x_min":0,"x_max":1215,"o":"m 521 -174 l 521 347 l 0 347 l 0 521 l 521 521 l 521 868 l 0 868 l 0 1042 l 521 1042 l 521 1215 l 694 1215 l 694 1042 l 1215 1042 l 1215 868 l 694 868 l 694 521 l 1215 521 l 1215 347 l 694 347 l 694 -174 l 521 -174 m 521 1389 l 521 1563 l 694 1563 l 694 1389 l 521 1389 m 694 1215 l 694 1389 l 868 1389 l 868 1215 l 694 1215 m 868 1563 l 868 1736 l 1042 1736 l 1042 1563 l 868 1563 m 1042 1389 l 1042 1563 l 1215 1563 l 1215 1389 l 1042 1389 z "},"ク":{"ha":1389,"x_min":0,"x_max":1042,"o":"m 868 174 l 868 868 l 347 868 l 347 694 l 174 694 l 174 1042 l 1042 1042 l 1042 174 l 868 174 m 174 -174 l 174 0 l 694 0 l 694 -174 l 174 -174 m 0 521 l 0 694 l 174 694 l 174 521 l 0 521 m 694 0 l 694 174 l 868 174 l 868 0 l 694 0 z "},"グ":{"ha":1389,"x_min":0,"x_max":1215,"o":"m 868 174 l 868 868 l 347 868 l 347 694 l 174 694 l 174 1042 l 1042 1042 l 1042 174 l 868 174 m 174 -174 l 174 0 l 694 0 l 694 -174 l 174 -174 m 0 521 l 0 694 l 174 694 l 174 521 l 0 521 m 694 0 l 694 174 l 868 174 l 868 0 l 694 0 m 521 1389 l 521 1563 l 694 1563 l 694 1389 l 521 1389 m 694 1215 l 694 1389 l 868 1389 l 868 1215 l 694 1215 m 868 1563 l 868 1736 l 1042 1736 l 1042 1563 l 868 1563 m 1042 1389 l 1042 1563 l 1215 1563 l 1215 1389 l 1042 1389 z "},"ケ":{"ha":1389,"x_min":0,"x_max":1215,"o":"m 868 174 l 868 694 l 347 694 l 347 521 l 174 521 l 174 1215 l 347 1215 l 347 868 l 1215 868 l 1215 694 l 1042 694 l 1042 174 l 868 174 m 347 -174 l 347 0 l 694 0 l 694 -174 l 347 -174 m 0 347 l 0 521 l 174 521 l 174 347 l 0 347 m 694 0 l 694 174 l 868 174 l 868 0 l 694 0 z "},"ヶ":{"ha":1389,"x_min":0,"x_max":868,"o":"m 521 0 l 521 347 l 174 347 l 174 694 l 347 694 l 347 521 l 868 521 l 868 347 l 694 347 l 694 0 l 521 0 m 0 174 l 0 347 l 174 347 l 174 174 l 0 174 m 347 -174 l 347 0 l 521 0 l 521 -174 l 347 -174 z "},"ゲ":{"ha":1389,"x_min":0,"x_max":1215,"o":"m 868 174 l 868 694 l 347 694 l 347 521 l 174 521 l 174 1215 l 347 1215 l 347 868 l 1215 868 l 1215 694 l 1042 694 l 1042 174 l 868 174 m 347 -174 l 347 0 l 694 0 l 694 -174 l 347 -174 m 0 347 l 0 521 l 174 521 l 174 347 l 0 347 m 694 0 l 694 174 l 868 174 l 868 0 l 694 0 m 521 1389 l 521 1563 l 694 1563 l 694 1389 l 521 1389 m 694 1215 l 694 1389 l 868 1389 l 868 1215 l 694 1215 m 868 1563 l 868 1736 l 1042 1736 l 1042 1563 l 868 1563 m 1042 1389 l 1042 1563 l 1215 1563 l 1215 1389 l 1042 1389 z "},"コ":{"ha":1389,"x_min":0,"x_max":1042,"o":"m 0 -174 l 0 0 l 868 0 l 868 868 l 0 868 l 0 1042 l 1042 1042 l 1042 -174 l 0 -174 z "},"ゴ":{"ha":1389,"x_min":0,"x_max":1215,"o":"m 0 -174 l 0 0 l 868 0 l 868 868 l 0 868 l 0 1042 l 1042 1042 l 1042 -174 l 0 -174 m 521 1389 l 521 1563 l 694 1563 l 694 1389 l 521 1389 m 694 1215 l 694 1389 l 868 1389 l 868 1215 l 694 1215 m 868 1563 l 868 1736 l 1042 1736 l 1042 1563 l 868 1563 m 1042 1389 l 1042 1563 l 1215 1563 l 1215 1389 l 1042 1389 z "},"サ":{"ha":1389,"x_min":0,"x_max":1215,"o":"m 868 0 l 868 694 l 347 694 l 347 347 l 174 347 l 174 694 l 0 694 l 0 868 l 174 868 l 174 1215 l 347 1215 l 347 868 l 868 868 l 868 1215 l 1042 1215 l 1042 868 l 1215 868 l 1215 694 l 1042 694 l 1042 0 l 868 0 m 347 -174 l 347 0 l 868 0 l 868 -174 l 347 -174 z "},"ザ":{"ha":1389,"x_min":0,"x_max":1215,"o":"m 868 0 l 868 694 l 347 694 l 347 347 l 174 347 l 174 694 l 0 694 l 0 868 l 174 868 l 174 1215 l 347 1215 l 347 868 l 868 868 l 868 1215 l 1042 1215 l 1042 868 l 1215 868 l 1215 694 l 1042 694 l 1042 0 l 868 0 m 347 -174 l 347 0 l 868 0 l 868 -174 l 347 -174 m 521 1389 l 521 1563 l 694 1563 l 694 1389 l 521 1389 m 694 1215 l 694 1389 l 868 1389 l 868 1215 l 694 1215 m 868 1563 l 868 1736 l 1042 1736 l 1042 1563 l 868 1563 m 1042 1389 l 1042 1563 l 1215 1563 l 1215 1389 l 1042 1389 z "},"シ":{"ha":1389,"x_min":0,"x_max":1042,"o":"m 868 174 l 868 868 l 1042 868 l 1042 174 l 868 174 m 0 -174 l 0 0 l 694 0 l 694 -174 l 0 -174 m 0 521 l 0 694 l 521 694 l 521 521 l 0 521 m 694 0 l 694 174 l 868 174 l 868 0 l 694 0 m 0 868 l 0 1042 l 521 1042 l 521 868 l 0 868 z "},"ジ":{"ha":1389,"x_min":0,"x_max":1042,"o":"m 868 174 l 868 868 l 1042 868 l 1042 174 l 868 174 m 0 -174 l 0 0 l 694 0 l 694 -174 l 0 -174 m 0 521 l 0 694 l 521 694 l 521 521 l 0 521 m 694 0 l 694 174 l 868 174 l 868 0 l 694 0 m 0 868 l 0 1042 l 521 1042 l 521 868 l 0 868 m 347 1389 l 347 1563 l 521 1563 l 521 1389 l 347 1389 m 521 1215 l 521 1389 l 694 1389 l 694 1215 l 521 1215 m 694 1563 l 694 1736 l 868 1736 l 868 1563 l 694 1563 m 868 1389 l 868 1563 l 1042 1563 l 1042 1389 l 868 1389 z "},"ス":{"ha":1389,"x_min":0,"x_max":1215,"o":"m 868 521 l 868 868 l 0 868 l 0 1042 l 1042 1042 l 1042 521 l 868 521 m 0 -174 l 0 0 l 347 0 l 347 -174 l 0 -174 m 347 0 l 347 174 l 521 174 l 521 0 l 347 0 m 521 174 l 521 347 l 694 347 l 694 521 l 868 521 l 868 174 l 521 174 m 868 0 l 868 174 l 1042 174 l 1042 0 l 868 0 m 1042 -174 l 1042 0 l 1215 0 l 1215 -174 l 1042 -174 z "},"ズ":{"ha":1389,"x_min":0,"x_max":1215,"o":"m 868 521 l 868 868 l 0 868 l 0 1042 l 1042 1042 l 1042 521 l 868 521 m 0 -174 l 0 0 l 347 0 l 347 -174 l 0 -174 m 347 0 l 347 174 l 521 174 l 521 0 l 347 0 m 521 174 l 521 347 l 694 347 l 694 521 l 868 521 l 868 174 l 521 174 m 868 0 l 868 174 l 1042 174 l 1042 0 l 868 0 m 1042 -174 l 1042 0 l 1215 0 l 1215 -174 l 1042 -174 m 521 1389 l 521 1563 l 694 1563 l 694 1389 l 521 1389 m 694 1215 l 694 1389 l 868 1389 l 868 1215 l 694 1215 m 868 1563 l 868 1736 l 1042 1736 l 1042 1563 l 868 1563 m 1042 1389 l 1042 1563 l 1215 1563 l 1215 1389 l 1042 1389 z "},"セ":{"ha":1389,"x_min":0,"x_max":1215,"o":"m 174 0 l 174 694 l 0 694 l 0 868 l 174 868 l 174 1215 l 347 1215 l 347 868 l 1215 868 l 1215 521 l 1042 521 l 1042 694 l 347 694 l 347 0 l 174 0 m 347 -174 l 347 0 l 1042 0 l 1042 -174 l 347 -174 m 868 347 l 868 521 l 1042 521 l 1042 347 l 868 347 z "},"ゼ":{"ha":1389,"x_min":0,"x_max":1215,"o":"m 174 0 l 174 694 l 0 694 l 0 868 l 174 868 l 174 1215 l 347 1215 l 347 868 l 1215 868 l 1215 521 l 1042 521 l 1042 694 l 347 694 l 347 0 l 174 0 m 347 -174 l 347 0 l 1042 0 l 1042 -174 l 347 -174 m 868 347 l 868 521 l 1042 521 l 1042 347 l 868 347 m 521 1389 l 521 1563 l 694 1563 l 694 1389 l 521 1389 m 694 1215 l 694 1389 l 868 1389 l 868 1215 l 694 1215 m 868 1563 l 868 1736 l 1042 1736 l 1042 1563 l 868 1563 m 1042 1389 l 1042 1563 l 1215 1563 l 1215 1389 l 1042 1389 z "},"ソ":{"ha":1389,"x_min":0,"x_max":1215,"o":"m 1042 521 l 1042 1042 l 1215 1042 l 1215 521 l 1042 521 m 347 -174 l 347 0 l 694 0 l 694 -174 l 347 -174 m 174 521 l 174 694 l 347 694 l 347 521 l 174 521 m 694 0 l 694 174 l 868 174 l 868 0 l 694 0 m 0 694 l 0 1042 l 174 1042 l 174 694 l 0 694 m 868 174 l 868 521 l 1042 521 l 1042 174 l 868 174 z "},"ゾ":{"ha":1389,"x_min":0,"x_max":1215,"o":"m 1042 521 l 1042 1042 l 1215 1042 l 1215 521 l 1042 521 m 347 -174 l 347 0 l 694 0 l 694 -174 l 347 -174 m 174 521 l 174 694 l 347 694 l 347 521 l 174 521 m 694 0 l 694 174 l 868 174 l 868 0 l 694 0 m 0 694 l 0 1042 l 174 1042 l 174 694 l 0 694 m 868 174 l 868 521 l 1042 521 l 1042 174 l 868 174 m 521 1389 l 521 1563 l 694 1563 l 694 1389 l 521 1389 m 694 1215 l 694 1389 l 868 1389 l 868 1215 l 694 1215 m 868 1563 l 868 1736 l 1042 1736 l 1042 1563 l 868 1563 m 1042 1389 l 1042 1563 l 1215 1563 l 1215 1389 l 1042 1389 z "},"タ":{"ha":1389,"x_min":0,"x_max":1215,"o":"m 1042 174 l 1042 347 l 694 347 l 694 521 l 1042 521 l 1042 868 l 347 868 l 347 694 l 694 694 l 694 521 l 174 521 l 174 1042 l 1215 1042 l 1215 174 l 1042 174 m 0 347 l 0 521 l 174 521 l 174 347 l 0 347 m 347 -174 l 347 0 l 868 0 l 868 -174 l 347 -174 m 868 0 l 868 174 l 1042 174 l 1042 0 l 868 0 z "},"ダ":{"ha":1389,"x_min":0,"x_max":1215,"o":"m 1042 174 l 1042 347 l 694 347 l 694 521 l 1042 521 l 1042 868 l 347 868 l 347 694 l 694 694 l 694 521 l 174 521 l 174 1042 l 1215 1042 l 1215 174 l 1042 174 m 0 347 l 0 521 l 174 521 l 174 347 l 0 347 m 347 -174 l 347 0 l 868 0 l 868 -174 l 347 -174 m 868 0 l 868 174 l 1042 174 l 1042 0 l 868 0 m 521 1389 l 521 1563 l 694 1563 l 694 1389 l 521 1389 m 694 1215 l 694 1389 l 868 1389 l 868 1215 l 694 1215 m 868 1563 l 868 1736 l 1042 1736 l 1042 1563 l 868 1563 m 1042 1389 l 1042 1563 l 1215 1563 l 1215 1389 l 1042 1389 z "},"チ":{"ha":1389,"x_min":0,"x_max":1215,"o":"m 694 174 l 694 521 l 0 521 l 0 694 l 694 694 l 694 868 l 174 868 l 174 1042 l 868 1042 l 868 694 l 1215 694 l 1215 521 l 868 521 l 868 174 l 694 174 m 174 -174 l 174 0 l 521 0 l 521 -174 l 174 -174 m 521 0 l 521 174 l 694 174 l 694 0 l 521 0 m 868 1042 l 868 1215 l 1215 1215 l 1215 1042 l 868 1042 z "},"ヂ":{"ha":1389,"x_min":0,"x_max":1215,"o":"m 694 174 l 694 521 l 0 521 l 0 694 l 694 694 l 694 868 l 174 868 l 174 1042 l 868 1042 l 868 694 l 1215 694 l 1215 521 l 868 521 l 868 174 l 694 174 m 174 -174 l 174 0 l 521 0 l 521 -174 l 174 -174 m 521 0 l 521 174 l 694 174 l 694 0 l 521 0 m 521 1389 l 521 1563 l 694 1563 l 694 1389 l 521 1389 m 694 1215 l 694 1389 l 868 1389 l 868 1215 l 694 1215 m 868 1042 l 868 1215 l 1215 1215 l 1215 1042 l 868 1042 m 868 1563 l 868 1736 l 1042 1736 l 1042 1563 l 868 1563 m 1042 1389 l 1042 1563 l 1215 1563 l 1215 1389 l 1042 1389 z "},"ツ":{"ha":1389,"x_min":0,"x_max":1042,"o":"m 868 174 l 868 1042 l 1042 1042 l 1042 174 l 868 174 m 174 -174 l 174 0 l 694 0 l 694 -174 l 174 -174 m 0 521 l 0 1042 l 174 1042 l 174 521 l 0 521 m 694 0 l 694 174 l 868 174 l 868 0 l 694 0 m 347 521 l 347 1042 l 521 1042 l 521 521 l 347 521 z "},"ッ":{"ha":1389,"x_min":0,"x_max":868,"o":"m 694 174 l 694 694 l 868 694 l 868 174 l 694 174 m 174 -174 l 174 0 l 521 0 l 521 -174 l 174 -174 m 0 347 l 0 694 l 174 694 l 174 347 l 0 347 m 521 0 l 521 174 l 694 174 l 694 0 l 521 0 m 347 347 l 347 694 l 521 694 l 521 347 l 347 347 z "},"ヅ":{"ha":1389,"x_min":0,"x_max":1042,"o":"m 868 174 l 868 1042 l 1042 1042 l 1042 174 l 868 174 m 174 -174 l 174 0 l 694 0 l 694 -174 l 174 -174 m 0 521 l 0 1042 l 174 1042 l 174 521 l 0 521 m 694 0 l 694 174 l 868 174 l 868 0 l 694 0 m 347 521 l 347 1042 l 521 1042 l 521 521 l 347 521 m 347 1389 l 347 1563 l 521 1563 l 521 1389 l 347 1389 m 521 1215 l 521 1389 l 694 1389 l 694 1215 l 521 1215 m 694 1563 l 694 1736 l 868 1736 l 868 1563 l 694 1563 m 868 1389 l 868 1563 l 1042 1563 l 1042 1389 l 868 1389 z "},"テ":{"ha":1389,"x_min":0,"x_max":1215,"o":"m 694 0 l 694 521 l 0 521 l 0 694 l 1215 694 l 1215 521 l 868 521 l 868 0 l 694 0 m 347 -174 l 347 0 l 694 0 l 694 -174 l 347 -174 m 174 868 l 174 1042 l 1042 1042 l 1042 868 l 174 868 z "},"デ":{"ha":1389,"x_min":0,"x_max":1215,"o":"m 694 0 l 694 521 l 0 521 l 0 694 l 1215 694 l 1215 521 l 868 521 l 868 0 l 694 0 m 347 -174 l 347 0 l 694 0 l 694 -174 l 347 -174 m 174 868 l 174 1042 l 1042 1042 l 1042 868 l 174 868 m 521 1389 l 521 1563 l 694 1563 l 694 1389 l 521 1389 m 694 1215 l 694 1389 l 868 1389 l 868 1215 l 694 1215 m 868 1563 l 868 1736 l 1042 1736 l 1042 1563 l 868 1563 m 1042 1389 l 1042 1563 l 1215 1563 l 1215 1389 l 1042 1389 z "},"ト":{"ha":1389,"x_min":0,"x_max":868,"o":"m 0 -174 l 0 1215 l 174 1215 l 174 694 l 694 694 l 694 521 l 174 521 l 174 -174 l 0 -174 m 694 347 l 694 521 l 868 521 l 868 347 l 694 347 z "},"ド":{"ha":1389,"x_min":0,"x_max":868,"o":"m 0 -174 l 0 1215 l 174 1215 l 174 694 l 694 694 l 694 521 l 174 521 l 174 -174 l 0 -174 m 694 347 l 694 521 l 868 521 l 868 347 l 694 347 m 174 1389 l 174 1563 l 347 1563 l 347 1389 l 174 1389 m 347 1215 l 347 1389 l 521 1389 l 521 1215 l 347 1215 m 521 1563 l 521 1736 l 694 1736 l 694 1563 l 521 1563 m 694 1389 l 694 1563 l 868 1563 l 868 1389 l 694 1389 z "},"ナ":{"ha":1389,"x_min":0,"x_max":1215,"o":"m 694 174 l 694 694 l 0 694 l 0 868 l 694 868 l 694 1215 l 868 1215 l 868 868 l 1215 868 l 1215 694 l 868 694 l 868 174 l 694 174 m 174 -174 l 174 0 l 521 0 l 521 -174 l 174 -174 m 521 0 l 521 174 l 694 174 l 694 0 l 521 0 z "},"ニ":{"ha":1389,"x_min":0,"x_max":1215,"o":"m 0 -174 l 0 0 l 1215 0 l 1215 -174 l 0 -174 m 174 868 l 174 1042 l 1042 1042 l 1042 868 l 174 868 z "},"ヌ":{"ha":1389,"x_min":0,"x_max":1215,"o":"m 1042 521 l 1042 868 l 0 868 l 0 1042 l 1215 1042 l 1215 521 l 1042 521 m 174 -174 l 174 0 l 521 0 l 521 -174 l 174 -174 m 521 0 l 521 174 l 694 174 l 694 0 l 521 0 m 521 347 l 521 521 l 694 521 l 694 347 l 521 347 m 694 174 l 694 347 l 868 347 l 868 174 l 694 174 m 868 0 l 868 174 l 1042 174 l 1042 0 l 868 0 m 1042 -174 l 1042 0 l 1215 0 l 1215 -174 l 1042 -174 m 868 347 l 868 521 l 1042 521 l 1042 347 l 868 347 z "},"ネ":{"ha":1389,"x_min":0,"x_max":1215,"o":"m 868 521 l 868 694 l 0 694 l 0 868 l 521 868 l 521 1215 l 694 1215 l 694 868 l 1215 868 l 1215 694 l 1042 694 l 1042 521 l 868 521 m 0 0 l 0 174 l 347 174 l 347 0 l 0 0 m 521 -174 l 521 174 l 347 174 l 347 347 l 521 347 l 521 521 l 868 521 l 868 347 l 694 347 l 694 -174 l 521 -174 m 868 174 l 868 347 l 1042 347 l 1042 174 l 868 174 m 1042 0 l 1042 174 l 1215 174 l 1215 0 l 1042 0 z "},"ノ":{"ha":1389,"x_min":0,"x_max":1042,"o":"m 868 521 l 868 1042 l 1042 1042 l 1042 521 l 868 521 m 0 -174 l 0 0 l 347 0 l 347 -174 l 0 -174 m 347 0 l 347 174 l 694 174 l 694 0 l 347 0 m 694 174 l 694 521 l 868 521 l 868 174 l 694 174 z "},"ハ":{"ha":1389,"x_min":0,"x_max":1215,"o":"m 174 174 l 174 868 l 347 868 l 347 174 l 174 174 m 0 -174 l 0 174 l 174 174 l 174 -174 l 0 -174 m 1042 -174 l 1042 347 l 1215 347 l 1215 -174 l 1042 -174 m 868 347 l 868 694 l 1042 694 l 1042 347 l 868 347 m 694 694 l 694 868 l 868 868 l 868 694 l 694 694 z "},"バ":{"ha":1389,"x_min":0,"x_max":1215,"o":"m 174 174 l 174 868 l 347 868 l 347 174 l 174 174 m 0 -174 l 0 174 l 174 174 l 174 -174 l 0 -174 m 1042 -174 l 1042 347 l 1215 347 l 1215 -174 l 1042 -174 m 868 347 l 868 694 l 1042 694 l 1042 347 l 868 347 m 694 694 l 694 868 l 868 868 l 868 694 l 694 694 m 521 1389 l 521 1563 l 694 1563 l 694 1389 l 521 1389 m 694 1215 l 694 1389 l 868 1389 l 868 1215 l 694 1215 m 868 1563 l 868 1736 l 1042 1736 l 1042 1563 l 868 1563 m 1042 1389 l 1042 1563 l 1215 1563 l 1215 1389 l 1042 1389 z "},"パ":{"ha":1389,"x_min":0,"x_max":1215,"o":"m 694 1215 l 694 1736 l 1215 1736 l 1215 1215 l 694 1215 m 0 -174 l 0 174 l 174 174 l 174 -174 l 0 -174 m 174 174 l 174 868 l 347 868 l 347 174 l 174 174 m 1042 -174 l 1042 347 l 1215 347 l 1215 -174 l 1042 -174 m 868 347 l 868 694 l 1042 694 l 1042 347 l 868 347 m 694 694 l 694 868 l 868 868 l 868 694 l 694 694 m 868 1389 l 1042 1389 l 1042 1563 l 868 1563 l 868 1389 z "},"ヒ":{"ha":1389,"x_min":0,"x_max":1215,"o":"m 0 0 l 0 1215 l 174 1215 l 174 694 l 694 694 l 694 521 l 174 521 l 174 0 l 0 0 m 174 -174 l 174 0 l 1215 0 l 1215 -174 l 174 -174 m 694 694 l 694 868 l 1042 868 l 1042 694 l 694 694 z "},"ビ":{"ha":1389,"x_min":0,"x_max":1215,"o":"m 0 0 l 0 1215 l 174 1215 l 174 694 l 694 694 l 694 521 l 174 521 l 174 0 l 0 0 m 174 -174 l 174 0 l 1215 0 l 1215 -174 l 174 -174 m 694 694 l 694 868 l 1042 868 l 1042 694 l 694 694 m 521 1389 l 521 1563 l 694 1563 l 694 1389 l 521 1389 m 694 1215 l 694 1389 l 868 1389 l 868 1215 l 694 1215 m 868 1563 l 868 1736 l 1042 1736 l 1042 1563 l 868 1563 m 1042 1389 l 1042 1563 l 1215 1563 l 1215 1389 l 1042 1389 z "},"ピ":{"ha":1389,"x_min":0,"x_max":1215,"o":"m 0 0 l 0 1215 l 174 1215 l 174 694 l 694 694 l 694 521 l 174 521 l 174 0 l 0 0 m 174 -174 l 174 0 l 1215 0 l 1215 -174 l 174 -174 m 694 694 l 694 868 l 1042 868 l 1042 694 l 694 694 m 694 1215 l 694 1736 l 1215 1736 l 1215 1215 l 694 1215 m 868 1389 l 1042 1389 l 1042 1563 l 868 1563 l 868 1389 z "},"フ":{"ha":1389,"x_min":0,"x_max":1215,"o":"m 1042 521 l 1042 868 l 0 868 l 0 1042 l 1215 1042 l 1215 521 l 1042 521 m 347 -174 l 347 0 l 694 0 l 694 -174 l 347 -174 m 694 0 l 694 174 l 868 174 l 868 0 l 694 0 m 868 174 l 868 521 l 1042 521 l 1042 174 l 868 174 z "},"ブ":{"ha":1389,"x_min":0,"x_max":1215,"o":"m 1042 521 l 1042 868 l 0 868 l 0 1042 l 1215 1042 l 1215 521 l 1042 521 m 347 -174 l 347 0 l 694 0 l 694 -174 l 347 -174 m 694 0 l 694 174 l 868 174 l 868 0 l 694 0 m 868 174 l 868 521 l 1042 521 l 1042 174 l 868 174 m 521 1389 l 521 1563 l 694 1563 l 694 1389 l 521 1389 m 694 1215 l 694 1389 l 868 1389 l 868 1215 l 694 1215 m 868 1563 l 868 1736 l 1042 1736 l 1042 1563 l 868 1563 m 1042 1389 l 1042 1563 l 1215 1563 l 1215 1389 l 1042 1389 z "},"プ":{"ha":1389,"x_min":0,"x_max":1215,"o":"m 1042 521 l 1042 868 l 0 868 l 0 1042 l 1215 1042 l 1215 521 l 1042 521 m 347 -174 l 347 0 l 694 0 l 694 -174 l 347 -174 m 694 0 l 694 174 l 868 174 l 868 0 l 694 0 m 868 174 l 868 521 l 1042 521 l 1042 174 l 868 174 m 694 1215 l 694 1736 l 1215 1736 l 1215 1215 l 694 1215 m 868 1389 l 1042 1389 l 1042 1563 l 868 1563 l 868 1389 z "},"ヘ":{"ha":1389,"x_min":0,"x_max":1215,"o":"m 1042 0 l 1042 174 l 1215 174 l 1215 0 l 1042 0 m 0 347 l 0 521 l 174 521 l 174 347 l 0 347 m 174 521 l 174 694 l 347 694 l 347 521 l 174 521 m 347 694 l 347 868 l 521 868 l 521 694 l 347 694 m 521 521 l 521 694 l 694 694 l 694 521 l 521 521 m 694 347 l 694 521 l 868 521 l 868 347 l 694 347 m 868 174 l 868 347 l 1042 347 l 1042 174 l 868 174 z "},"ベ":{"ha":1389,"x_min":0,"x_max":1215,"o":"m 868 1563 l 868 1736 l 1042 1736 l 1042 1563 l 868 1563 m 0 347 l 0 521 l 174 521 l 174 347 l 0 347 m 174 521 l 174 694 l 347 694 l 347 521 l 174 521 m 347 694 l 347 868 l 521 868 l 521 694 l 347 694 m 521 521 l 521 694 l 694 694 l 694 521 l 521 521 m 694 347 l 694 521 l 868 521 l 868 347 l 694 347 m 868 174 l 868 347 l 1042 347 l 1042 174 l 868 174 m 1042 0 l 1042 174 l 1215 174 l 1215 0 l 1042 0 m 521 1389 l 521 1563 l 694 1563 l 694 1389 l 521 1389 m 694 1215 l 694 1389 l 868 1389 l 868 1215 l 694 1215 m 1042 1389 l 1042 1563 l 1215 1563 l 1215 1389 l 1042 1389 z "},"ペ":{"ha":1389,"x_min":0,"x_max":1215,"o":"m 694 1215 l 694 1736 l 1215 1736 l 1215 1215 l 694 1215 m 0 347 l 0 521 l 174 521 l 174 347 l 0 347 m 174 521 l 174 694 l 347 694 l 347 521 l 174 521 m 347 694 l 347 868 l 521 868 l 521 694 l 347 694 m 521 521 l 521 694 l 694 694 l 694 521 l 521 521 m 694 347 l 694 521 l 868 521 l 868 347 l 694 347 m 868 174 l 868 347 l 1042 347 l 1042 174 l 868 174 m 1042 0 l 1042 174 l 1215 174 l 1215 0 l 1042 0 m 868 1389 l 1042 1389 l 1042 1563 l 868 1563 l 868 1389 z "},"ホ":{"ha":1389,"x_min":0,"x_max":1215,"o":"m 521 -174 l 521 694 l 0 694 l 0 868 l 521 868 l 521 1215 l 694 1215 l 694 868 l 1215 868 l 1215 694 l 694 694 l 694 -174 l 521 -174 m 0 -174 l 0 0 l 174 0 l 174 -174 l 0 -174 m 174 0 l 174 521 l 347 521 l 347 0 l 174 0 m 1042 -174 l 1042 347 l 1215 347 l 1215 -174 l 1042 -174 m 868 347 l 868 521 l 1042 521 l 1042 347 l 868 347 z "},"ボ":{"ha":1389,"x_min":0,"x_max":1215,"o":"m 521 -174 l 521 694 l 0 694 l 0 868 l 521 868 l 521 1215 l 694 1215 l 694 868 l 1215 868 l 1215 694 l 694 694 l 694 -174 l 521 -174 m 0 -174 l 0 0 l 174 0 l 174 -174 l 0 -174 m 174 0 l 174 521 l 347 521 l 347 0 l 174 0 m 1042 -174 l 1042 347 l 1215 347 l 1215 -174 l 1042 -174 m 868 347 l 868 521 l 1042 521 l 1042 347 l 868 347 m 521 1389 l 521 1563 l 694 1563 l 694 1389 l 521 1389 m 694 1215 l 694 1389 l 868 1389 l 868 1215 l 694 1215 m 868 1563 l 868 1736 l 1042 1736 l 1042 1563 l 868 1563 m 1042 1389 l 1042 1563 l 1215 1563 l 1215 1389 l 1042 1389 z "},"ポ":{"ha":1389,"x_min":0,"x_max":1215,"o":"m 521 -174 l 521 694 l 0 694 l 0 868 l 521 868 l 521 1215 l 694 1215 l 694 868 l 1215 868 l 1215 694 l 694 694 l 694 -174 l 521 -174 m 0 -174 l 0 0 l 174 0 l 174 -174 l 0 -174 m 174 0 l 174 521 l 347 521 l 347 0 l 174 0 m 1042 -174 l 1042 347 l 1215 347 l 1215 -174 l 1042 -174 m 868 347 l 868 521 l 1042 521 l 1042 347 l 868 347 m 694 1215 l 694 1736 l 1215 1736 l 1215 1215 l 694 1215 m 868 1389 l 1042 1389 l 1042 1563 l 868 1563 l 868 1389 z "},"マ":{"ha":1389,"x_min":0,"x_max":1215,"o":"m 1042 521 l 1042 868 l 0 868 l 0 1042 l 1215 1042 l 1215 521 l 1042 521 m 174 347 l 174 521 l 347 521 l 347 347 l 174 347 m 347 174 l 347 347 l 521 347 l 521 174 l 347 174 m 521 0 l 521 174 l 694 174 l 694 0 l 521 0 m 694 -174 l 694 0 l 868 0 l 868 -174 l 694 -174 m 694 174 l 694 347 l 868 347 l 868 174 l 694 174 m 868 347 l 868 521 l 1042 521 l 1042 347 l 868 347 z "},"ミ":{"ha":1389,"x_min":0,"x_max":1042,"o":"m 174 1042 l 174 1215 l 868 1215 l 868 1042 l 174 1042 m 0 0 l 0 174 l 694 174 l 694 0 l 0 0 m 694 -174 l 694 0 l 1042 0 l 1042 -174 l 694 -174 m 174 521 l 174 694 l 868 694 l 868 521 l 174 521 z "},"ム":{"ha":1389,"x_min":0,"x_max":1215,"o":"m 0 -174 l 0 174 l 174 174 l 174 0 l 1042 0 l 1042 174 l 1215 174 l 1215 -174 l 0 -174 m 174 174 l 174 521 l 347 521 l 347 174 l 174 174 m 347 521 l 347 1042 l 521 1042 l 521 521 l 347 521 m 868 174 l 868 521 l 1042 521 l 1042 174 l 868 174 z "},"メ":{"ha":1389,"x_min":0,"x_max":1215,"o":"m 694 174 l 694 521 l 868 521 l 868 347 l 1042 347 l 1042 174 l 694 174 m 0 -174 l 0 0 l 347 0 l 347 -174 l 0 -174 m 347 0 l 347 174 l 694 174 l 694 0 l 347 0 m 347 694 l 347 868 l 521 868 l 521 694 l 347 694 m 521 521 l 521 694 l 694 694 l 694 521 l 521 521 m 1042 0 l 1042 174 l 1215 174 l 1215 0 l 1042 0 m 868 521 l 868 1042 l 1042 1042 l 1042 521 l 868 521 z "},"モ":{"ha":1389,"x_min":0,"x_max":1215,"o":"m 347 0 l 347 347 l 0 347 l 0 521 l 347 521 l 347 868 l 0 868 l 0 1042 l 1042 1042 l 1042 868 l 521 868 l 521 521 l 1215 521 l 1215 347 l 521 347 l 521 0 l 347 0 m 521 -174 l 521 0 l 1215 0 l 1215 -174 l 521 -174 z "},"ヤ":{"ha":1389,"x_min":0,"x_max":1215,"o":"m 347 -174 l 347 694 l 0 694 l 0 868 l 347 868 l 347 1042 l 521 1042 l 521 868 l 1215 868 l 1215 521 l 1042 521 l 1042 694 l 521 694 l 521 -174 l 347 -174 m 694 174 l 694 347 l 868 347 l 868 174 l 694 174 m 868 347 l 868 521 l 1042 521 l 1042 347 l 868 347 z "},"ャ":{"ha":1389,"x_min":0,"x_max":868,"o":"m 174 -174 l 174 347 l 0 347 l 0 521 l 174 521 l 174 694 l 347 694 l 347 521 l 868 521 l 868 174 l 694 174 l 694 347 l 347 347 l 347 -174 l 174 -174 m 521 0 l 521 174 l 694 174 l 694 0 l 521 0 z "},"ユ":{"ha":1389,"x_min":0,"x_max":1215,"o":"m 0 -174 l 0 0 l 694 0 l 694 694 l 174 694 l 174 868 l 868 868 l 868 0 l 1215 0 l 1215 -174 l 0 -174 z "},"ュ":{"ha":1389,"x_min":0,"x_max":868,"o":"m 0 -174 l 0 0 l 521 0 l 521 347 l 174 347 l 174 521 l 694 521 l 694 0 l 868 0 l 868 -174 l 0 -174 z "},"ヨ":{"ha":1389,"x_min":0,"x_max":1215,"o":"m 0 -174 l 0 0 l 1042 0 l 1042 347 l 174 347 l 174 521 l 1042 521 l 1042 868 l 0 868 l 0 1042 l 1215 1042 l 1215 -174 l 0 -174 z "},"ョ":{"ha":1389,"x_min":0,"x_max":694,"o":"m 0 -174 l 0 0 l 521 0 l 521 174 l 0 174 l 0 347 l 521 347 l 521 521 l 0 521 l 0 694 l 694 694 l 694 -174 l 0 -174 z "},"ラ":{"ha":1389,"x_min":0,"x_max":1215,"o":"m 1042 347 l 1042 521 l 0 521 l 0 694 l 1215 694 l 1215 347 l 1042 347 m 347 -174 l 347 0 l 694 0 l 694 -174 l 347 -174 m 694 0 l 694 174 l 868 174 l 868 0 l 694 0 m 868 174 l 868 347 l 1042 347 l 1042 174 l 868 174 m 174 868 l 174 1042 l 1042 1042 l 1042 868 l 174 868 z "},"リ":{"ha":1389,"x_min":0,"x_max":1042,"o":"m 868 174 l 868 1042 l 1042 1042 l 1042 174 l 868 174 m 347 -174 l 347 0 l 694 0 l 694 -174 l 347 -174 m 0 347 l 0 1042 l 174 1042 l 174 347 l 0 347 m 694 0 l 694 174 l 868 174 l 868 0 l 694 0 z "},"ル":{"ha":1389,"x_min":0,"x_max":1215,"o":"m 521 -174 l 521 1042 l 694 1042 l 694 0 l 1042 0 l 1042 -174 l 521 -174 m 0 -174 l 0 0 l 174 0 l 174 -174 l 0 -174 m 174 0 l 174 1042 l 347 1042 l 347 0 l 174 0 m 1042 0 l 1042 174 l 1215 174 l 1215 0 l 1042 0 z "},"レ":{"ha":1389,"x_min":0,"x_max":1042,"o":"m 0 -174 l 0 1042 l 174 1042 l 174 0 l 347 0 l 347 -174 l 0 -174 m 347 0 l 347 174 l 694 174 l 694 0 l 347 0 m 694 174 l 694 347 l 868 347 l 868 174 l 694 174 m 868 347 l 868 521 l 1042 521 l 1042 347 l 868 347 z "},"ロ":{"ha":1389,"x_min":0,"x_max":1215,"o":"m 0 -174 l 0 1042 l 1215 1042 l 1215 -174 l 1042 -174 l 1042 0 l 174 0 l 174 -174 l 0 -174 m 174 174 l 1042 174 l 1042 868 l 174 868 l 174 174 z "},"ワ":{"ha":1389,"x_min":0,"x_max":1215,"o":"m 1042 174 l 1042 868 l 174 868 l 174 347 l 0 347 l 0 1042 l 1215 1042 l 1215 174 l 1042 174 m 347 -174 l 347 0 l 868 0 l 868 -174 l 347 -174 m 868 0 l 868 174 l 1042 174 l 1042 0 l 868 0 z "},"ヮ":{"ha":1389,"x_min":0,"x_max":868,"o":"m 0 174 l 0 521 l 868 521 l 868 174 l 694 174 l 694 347 l 174 347 l 174 174 l 0 174 m 174 -174 l 174 0 l 521 0 l 521 -174 l 174 -174 m 521 0 l 521 174 l 694 174 l 694 0 l 521 0 z "},"ヷ":{"ha":1389,"x_min":0,"x_max":1215,"o":"m 1042 174 l 1042 868 l 174 868 l 174 347 l 0 347 l 0 1042 l 1215 1042 l 1215 174 l 1042 174 m 347 -174 l 347 0 l 868 0 l 868 -174 l 347 -174 m 868 0 l 868 174 l 1042 174 l 1042 0 l 868 0 m 521 1389 l 521 1563 l 694 1563 l 694 1389 l 521 1389 m 694 1215 l 694 1389 l 868 1389 l 868 1215 l 694 1215 m 868 1563 l 868 1736 l 1042 1736 l 1042 1563 l 868 1563 m 1042 1389 l 1042 1563 l 1215 1563 l 1215 1389 l 1042 1389 z "},"ヰ":{"ha":1389,"x_min":0,"x_max":1215,"o":"m 694 -174 l 694 347 l 0 347 l 0 521 l 174 521 l 174 868 l 0 868 l 0 1042 l 694 1042 l 694 1215 l 868 1215 l 868 1042 l 1215 1042 l 1215 868 l 868 868 l 868 521 l 1215 521 l 1215 347 l 868 347 l 868 -174 l 694 -174 m 347 521 l 694 521 l 694 868 l 347 868 l 347 521 z "},"ヸ":{"ha":1389,"x_min":0,"x_max":1215,"o":"m 694 -174 l 694 347 l 0 347 l 0 521 l 174 521 l 174 868 l 0 868 l 0 1042 l 694 1042 l 694 1389 l 868 1389 l 868 1042 l 1215 1042 l 1215 868 l 868 868 l 868 521 l 1215 521 l 1215 347 l 868 347 l 868 -174 l 694 -174 m 347 521 l 694 521 l 694 868 l 347 868 l 347 521 m 521 1389 l 521 1563 l 694 1563 l 694 1389 l 521 1389 m 868 1563 l 868 1736 l 1042 1736 l 1042 1563 l 868 1563 m 1042 1389 l 1042 1563 l 1215 1563 l 1215 1389 l 1042 1389 z "},"ヱ":{"ha":1389,"x_min":0,"x_max":1215,"o":"m 0 -174 l 0 0 l 521 0 l 521 694 l 694 694 l 694 521 l 1042 521 l 1042 347 l 694 347 l 694 0 l 1215 0 l 1215 -174 l 0 -174 m 1042 521 l 1042 868 l 0 868 l 0 1042 l 1215 1042 l 1215 521 l 1042 521 z "},"ヹ":{"ha":1389,"x_min":0,"x_max":1215,"o":"m 0 -174 l 0 0 l 521 0 l 521 694 l 694 694 l 694 521 l 1042 521 l 1042 347 l 694 347 l 694 0 l 1215 0 l 1215 -174 l 0 -174 m 1042 521 l 1042 868 l 0 868 l 0 1042 l 1215 1042 l 1215 521 l 1042 521 m 521 1389 l 521 1563 l 694 1563 l 694 1389 l 521 1389 m 694 1215 l 694 1389 l 868 1389 l 868 1215 l 694 1215 m 868 1563 l 868 1736 l 1042 1736 l 1042 1563 l 868 1563 m 1042 1389 l 1042 1563 l 1215 1563 l 1215 1389 l 1042 1389 z "},"ヲ":{"ha":1389,"x_min":0,"x_max":1215,"o":"m 1042 174 l 1042 347 l 174 347 l 174 521 l 1042 521 l 1042 868 l 0 868 l 0 1042 l 1215 1042 l 1215 174 l 1042 174 m 174 -174 l 174 0 l 868 0 l 868 -174 l 174 -174 m 868 0 l 868 174 l 1042 174 l 1042 0 l 868 0 z "},"ヺ":{"ha":1389,"x_min":0,"x_max":1215,"o":"m 1042 174 l 1042 347 l 174 347 l 174 521 l 1042 521 l 1042 868 l 0 868 l 0 1042 l 1215 1042 l 1215 174 l 1042 174 m 174 -174 l 174 0 l 868 0 l 868 -174 l 174 -174 m 868 0 l 868 174 l 1042 174 l 1042 0 l 868 0 m 521 1389 l 521 1563 l 694 1563 l 694 1389 l 521 1389 m 694 1215 l 694 1389 l 868 1389 l 868 1215 l 694 1215 m 868 1563 l 868 1736 l 1042 1736 l 1042 1563 l 868 1563 m 1042 1389 l 1042 1563 l 1215 1563 l 1215 1389 l 1042 1389 z "},"ン":{"ha":1389,"x_min":0,"x_max":1215,"o":"m 1042 174 l 1042 1042 l 1215 1042 l 1215 174 l 1042 174 m 0 -174 l 0 0 l 868 0 l 868 -174 l 0 -174 m 868 0 l 868 174 l 1042 174 l 1042 0 l 868 0 m 0 868 l 0 1042 l 521 1042 l 521 868 l 0 868 z "},"ヴ":{"ha":1389,"x_min":0,"x_max":1215,"o":"m 1042 174 l 1042 694 l 174 694 l 174 347 l 0 347 l 0 868 l 521 868 l 521 1215 l 694 1215 l 694 868 l 1215 868 l 1215 174 l 1042 174 m 521 -174 l 521 0 l 868 0 l 868 -174 l 521 -174 m 868 0 l 868 174 l 1042 174 l 1042 0 l 868 0 m 521 1389 l 521 1563 l 694 1563 l 694 1389 l 521 1389 m 694 1215 l 694 1389 l 868 1389 l 868 1215 l 694 1215 m 868 1563 l 868 1736 l 1042 1736 l 1042 1563 l 868 1563 m 1042 1389 l 1042 1563 l 1215 1563 l 1215 1389 l 1042 1389 z "},"ヿ":{"ha":1389,"x_min":0,"x_max":1042,"o":"m 868 -174 l 868 868 l 0 868 l 0 1042 l 1042 1042 l 1042 -174 l 868 -174 z "},"가":{"ha":1389,"x_min":0,"x_max":1215,"o":"m 0 347 l 0 521 l 347 521 l 347 694 l 521 694 l 521 1042 l 0 1042 l 0 1215 l 694 1215 l 694 694 l 521 694 l 521 521 l 347 521 l 347 347 l 0 347 m 868 0 l 868 1215 l 1042 1215 l 1042 694 l 1215 694 l 1215 521 l 1042 521 l 1042 0 l 868 0 z "},"각":{"ha":1389,"x_min":0,"x_max":1215,"o":"m 1042 -174 l 1042 174 l 0 174 l 0 347 l 1215 347 l 1215 -174 l 1042 -174 m 0 521 l 0 694 l 347 694 l 347 868 l 521 868 l 521 1215 l 0 1215 l 0 1389 l 694 1389 l 694 868 l 521 868 l 521 694 l 347 694 l 347 521 l 0 521 m 868 521 l 868 1389 l 1042 1389 l 1042 1042 l 1215 1042 l 1215 868 l 1042 868 l 1042 521 l 868 521 z "},"ᄀ":{"ha":1389,"x_min":0,"x_max":1215,"o":"m 1042 0 l 1042 694 l 0 694 l 0 868 l 1215 868 l 1215 0 l 1042 0 z "},"ᄁ":{"ha":1389,"x_min":0,"x_max":1215,"o":"m 1042 0 l 1042 694 l 694 694 l 694 868 l 1215 868 l 1215 0 l 1042 0 m 347 0 l 347 694 l 0 694 l 0 868 l 521 868 l 521 0 l 347 0 z "},"ᄂ":{"ha":1389,"x_min":0,"x_max":1215,"o":"m 0 0 l 0 868 l 174 868 l 174 174 l 1215 174 l 1215 0 l 0 0 z "},"ᄃ":{"ha":1389,"x_min":0,"x_max":1215,"o":"m 0 0 l 0 868 l 1215 868 l 1215 694 l 174 694 l 174 174 l 1215 174 l 1215 0 l 0 0 z "},"ᄄ":{"ha":1389,"x_min":0,"x_max":1215,"o":"m 694 0 l 694 868 l 1215 868 l 1215 694 l 868 694 l 868 174 l 1215 174 l 1215 0 l 694 0 m 0 0 l 0 868 l 521 868 l 521 694 l 174 694 l 174 174 l 521 174 l 521 0 l 0 0 z "},"ᄅ":{"ha":1389,"x_min":0,"x_max":1215,"o":"m 0 0 l 0 521 l 1042 521 l 1042 694 l 0 694 l 0 868 l 1215 868 l 1215 347 l 174 347 l 174 174 l 1215 174 l 1215 0 l 0 0 z "},"ᄆ":{"ha":1389,"x_min":0,"x_max":1215,"o":"m 0 0 l 0 868 l 1215 868 l 1215 0 l 0 0 m 174 174 l 1042 174 l 1042 694 l 174 694 l 174 174 z "},"ᄇ":{"ha":1389,"x_min":0,"x_max":1215,"o":"m 0 0 l 0 521 l 174 521 l 174 868 l 0 868 l 0 521 l 1215 521 l 1215 0 l 0 0 m 174 174 l 1042 174 l 1042 347 l 174 347 l 174 174 m 1042 521 l 1042 868 l 1215 868 l 1215 521 l 1042 521 z "},"ᄈ":{"ha":1389,"x_min":0,"x_max":1215,"o":"m 694 0 l 694 521 l 868 521 l 868 868 l 694 868 l 694 521 l 1215 521 l 1215 0 l 694 0 m 174 174 l 347 174 l 347 347 l 174 347 l 174 174 m 0 0 l 0 521 l 174 521 l 174 868 l 0 868 l 0 521 l 521 521 l 521 0 l 0 0 m 347 521 l 347 868 l 521 868 l 521 521 l 347 521 m 868 174 l 1042 174 l 1042 347 l 868 347 l 868 174 m 1042 521 l 1042 868 l 1215 868 l 1215 521 l 1042 521 z "},"ᄉ":{"ha":1389,"x_min":0,"x_max":1215,"o":"m 0 0 l 0 174 l 174 174 l 174 347 l 347 347 l 347 521 l 521 521 l 521 868 l 694 868 l 694 521 l 868 521 l 868 347 l 1042 347 l 1042 174 l 1215 174 l 1215 0 l 1042 0 l 1042 174 l 868 174 l 868 347 l 694 347 l 694 521 l 521 521 l 521 347 l 347 347 l 347 174 l 174 174 l 174 0 l 0 0 z "},"ᄊ":{"ha":1389,"x_min":0,"x_max":1215,"o":"m 694 0 l 694 347 l 868 347 l 868 868 l 1042 868 l 1042 347 l 1215 347 l 1215 0 l 1042 0 l 1042 347 l 868 347 l 868 0 l 694 0 m 0 0 l 0 347 l 174 347 l 174 868 l 347 868 l 347 347 l 521 347 l 521 0 l 347 0 l 347 347 l 174 347 l 174 0 l 0 0 z "},"ᄋ":{"ha":1389,"x_min":0,"x_max":1215,"o":"m 174 694 l 174 868 l 1042 868 l 1042 694 l 174 694 m 0 174 l 0 694 l 174 694 l 174 174 l 0 174 m 174 0 l 174 174 l 1042 174 l 1042 0 l 174 0 m 1042 174 l 1042 694 l 1215 694 l 1215 174 l 1042 174 z "},"ᄌ":{"ha":1389,"x_min":0,"x_max":1215,"o":"m 0 0 l 0 174 l 174 174 l 174 347 l 347 347 l 347 521 l 521 521 l 521 868 l 694 868 l 694 521 l 868 521 l 868 347 l 1042 347 l 1042 174 l 1215 174 l 1215 0 l 1042 0 l 1042 174 l 868 174 l 868 347 l 694 347 l 694 521 l 521 521 l 521 347 l 347 347 l 347 174 l 174 174 l 174 0 l 0 0 m 0 694 l 0 868 l 1215 868 l 1215 694 l 0 694 z "},"ᄍ":{"ha":1389,"x_min":0,"x_max":1215,"o":"m 694 0 l 694 347 l 868 347 l 868 694 l 694 694 l 694 868 l 1215 868 l 1215 694 l 1042 694 l 1042 347 l 1215 347 l 1215 0 l 1042 0 l 1042 347 l 868 347 l 868 0 l 694 0 m 0 0 l 0 347 l 174 347 l 174 694 l 0 694 l 0 868 l 521 868 l 521 694 l 347 694 l 347 347 l 521 347 l 521 0 l 347 0 l 347 347 l 174 347 l 174 0 l 0 0 z "},"ᄎ":{"ha":1389,"x_min":0,"x_max":1215,"o":"m 0 0 l 0 174 l 174 174 l 174 347 l 347 347 l 347 521 l 521 521 l 521 694 l 0 694 l 0 868 l 1215 868 l 1215 694 l 694 694 l 694 521 l 868 521 l 868 347 l 1042 347 l 1042 174 l 1215 174 l 1215 0 l 1042 0 l 1042 174 l 868 174 l 868 347 l 694 347 l 694 521 l 521 521 l 521 347 l 347 347 l 347 174 l 174 174 l 174 0 l 0 0 m 174 1042 l 174 1215 l 1042 1215 l 1042 1042 l 174 1042 z "},"ᄏ":{"ha":1389,"x_min":0,"x_max":1215,"o":"m 1042 0 l 1042 347 l 0 347 l 0 521 l 1042 521 l 1042 694 l 0 694 l 0 868 l 1215 868 l 1215 0 l 1042 0 z "},"ᄐ":{"ha":1389,"x_min":0,"x_max":1215,"o":"m 0 0 l 0 868 l 1215 868 l 1215 694 l 174 694 l 174 521 l 1215 521 l 1215 347 l 174 347 l 174 174 l 1215 174 l 1215 0 l 0 0 z "},"ᄑ":{"ha":1389,"x_min":0,"x_max":1215,"o":"m 0 0 l 0 174 l 174 174 l 174 521 l 347 521 l 347 174 l 868 174 l 868 521 l 1042 521 l 1042 174 l 1215 174 l 1215 0 l 0 0 m 0 694 l 0 868 l 1215 868 l 1215 694 l 0 694 z "},"ᄒ":{"ha":1389,"x_min":0,"x_max":1215,"o":"m 174 0 l 174 174 l 0 174 l 0 521 l 174 521 l 174 694 l 1042 694 l 1042 521 l 1215 521 l 1215 174 l 1042 174 l 1042 0 l 174 0 m 174 174 l 1042 174 l 1042 521 l 174 521 l 174 174 m 0 868 l 0 1042 l 1215 1042 l 1215 868 l 0 868 m 174 1215 l 174 1389 l 1042 1389 l 1042 1215 l 174 1215 z "},"ᅡ":{"ha":1389,"x_min":0,"x_max":347,"o":"m 0 0 l 0 1215 l 174 1215 l 174 694 l 347 694 l 347 521 l 174 521 l 174 0 l 0 0 z "},"ᅢ":{"ha":1389,"x_min":0,"x_max":521,"o":"m 347 0 l 347 521 l 174 521 l 174 694 l 347 694 l 347 1215 l 521 1215 l 521 0 l 347 0 m 0 0 l 0 1215 l 174 1215 l 174 694 l 347 694 l 347 521 l 174 521 l 174 0 l 0 0 z "},"ᅣ":{"ha":1389,"x_min":0,"x_max":347,"o":"m 0 0 l 0 1215 l 174 1215 l 174 868 l 347 868 l 347 694 l 174 694 l 174 521 l 347 521 l 347 347 l 174 347 l 174 0 l 0 0 z "},"ᅤ":{"ha":1389,"x_min":0,"x_max":521,"o":"m 347 0 l 347 347 l 174 347 l 174 521 l 347 521 l 347 694 l 174 694 l 174 868 l 347 868 l 347 1215 l 521 1215 l 521 0 l 347 0 m 0 0 l 0 1215 l 174 1215 l 174 868 l 347 868 l 347 694 l 174 694 l 174 521 l 347 521 l 347 347 l 174 347 l 174 0 l 0 0 z "},"ᅥ":{"ha":1389,"x_min":0,"x_max":347,"o":"m 174 0 l 174 521 l 0 521 l 0 694 l 174 694 l 174 1215 l 347 1215 l 347 0 l 174 0 z "},"ᅦ":{"ha":1389,"x_min":0,"x_max":694,"o":"m 174 0 l 174 521 l 0 521 l 0 694 l 174 694 l 174 1215 l 347 1215 l 347 0 l 174 0 m 521 0 l 521 1215 l 694 1215 l 694 0 l 521 0 z "},"ᅧ":{"ha":1389,"x_min":0,"x_max":347,"o":"m 174 0 l 174 347 l 0 347 l 0 521 l 174 521 l 174 694 l 0 694 l 0 868 l 174 868 l 174 1215 l 347 1215 l 347 0 l 174 0 z "},"ᅨ":{"ha":1389,"x_min":0,"x_max":694,"o":"m 174 0 l 174 347 l 0 347 l 0 521 l 174 521 l 174 694 l 0 694 l 0 868 l 174 868 l 174 1215 l 347 1215 l 347 0 l 174 0 m 521 0 l 521 1215 l 694 1215 l 694 0 l 521 0 z "},"ᅩ":{"ha":1389,"x_min":0,"x_max":1215,"o":"m 0 174 l 0 347 l 521 347 l 521 694 l 694 694 l 694 347 l 1215 347 l 1215 174 l 0 174 z "},"ᅪ":{"ha":1389,"x_min":0,"x_max":1215,"o":"m 868 0 l 868 1215 l 1042 1215 l 1042 694 l 1215 694 l 1215 521 l 1042 521 l 1042 0 l 868 0 m 0 174 l 0 347 l 347 347 l 347 521 l 521 521 l 521 347 l 694 347 l 694 174 l 0 174 z "},"ᅫ":{"ha":1389,"x_min":0,"x_max":1215,"o":"m 694 0 l 694 1215 l 868 1215 l 868 694 l 1042 694 l 1042 521 l 868 521 l 868 0 l 694 0 m 0 174 l 0 347 l 174 347 l 174 521 l 347 521 l 347 347 l 521 347 l 521 174 l 0 174 m 1042 0 l 1042 1215 l 1215 1215 l 1215 0 l 1042 0 z "},"ᅬ":{"ha":1389,"x_min":0,"x_max":1215,"o":"m 0 174 l 0 347 l 347 347 l 347 521 l 521 521 l 521 347 l 868 347 l 868 174 l 0 174 m 1042 0 l 1042 1215 l 1215 1215 l 1215 0 l 1042 0 z "},"ᅭ":{"ha":1389,"x_min":0,"x_max":1215,"o":"m 0 174 l 0 347 l 347 347 l 347 694 l 521 694 l 521 347 l 694 347 l 694 694 l 868 694 l 868 347 l 1215 347 l 1215 174 l 0 174 z "},"ᅮ":{"ha":1389,"x_min":0,"x_max":1215,"o":"m 521 174 l 521 521 l 0 521 l 0 694 l 1215 694 l 1215 521 l 694 521 l 694 174 l 521 174 z "},"ᅯ":{"ha":1389,"x_min":0,"x_max":1215,"o":"m 1042 0 l 1042 174 l 868 174 l 868 347 l 1042 347 l 1042 1215 l 1215 1215 l 1215 0 l 1042 0 m 347 174 l 347 347 l 0 347 l 0 521 l 868 521 l 868 347 l 521 347 l 521 174 l 347 174 z "},"ᅰ":{"ha":1389,"x_min":0,"x_max":1215,"o":"m 694 0 l 694 174 l 521 174 l 521 347 l 694 347 l 694 1215 l 868 1215 l 868 0 l 694 0 m 174 174 l 174 347 l 0 347 l 0 521 l 521 521 l 521 347 l 347 347 l 347 174 l 174 174 m 1042 0 l 1042 1215 l 1215 1215 l 1215 0 l 1042 0 z "},"ᅱ":{"ha":1389,"x_min":0,"x_max":1215,"o":"m 347 174 l 347 347 l 0 347 l 0 521 l 868 521 l 868 347 l 521 347 l 521 174 l 347 174 m 1042 0 l 1042 1215 l 1215 1215 l 1215 0 l 1042 0 z "},"ᅲ":{"ha":1389,"x_min":0,"x_max":1215,"o":"m 347 174 l 347 521 l 0 521 l 0 694 l 1215 694 l 1215 521 l 868 521 l 868 174 l 694 174 l 694 521 l 521 521 l 521 174 l 347 174 z "},"ᅳ":{"ha":1389,"x_min":0,"x_max":1215,"o":"m 0 174 l 0 347 l 1215 347 l 1215 174 l 0 174 z "},"ᅴ":{"ha":1389,"x_min":0,"x_max":1215,"o":"m 1042 0 l 1042 1215 l 1215 1215 l 1215 0 l 1042 0 m 0 174 l 0 347 l 868 347 l 868 174 l 0 174 z "},"ᅵ":{"ha":1389,"x_min":0,"x_max":174,"o":"m 0 0 l 0 1215 l 174 1215 l 174 0 l 0 0 z "},"⁄":{"ha":1389,"x_min":0,"x_max":1215,"o":"m 1042 868 l 1042 1042 l 1215 1042 l 1215 868 l 1042 868 m 0 -174 l 0 0 l 174 0 l 174 -174 l 0 -174 m 174 0 l 174 174 l 347 174 l 347 0 l 174 0 m 347 174 l 347 347 l 521 347 l 521 174 l 347 174 m 521 347 l 521 521 l 694 521 l 694 347 l 521 347 m 694 521 l 694 694 l 868 694 l 868 521 l 694 521 m 868 694 l 868 868 l 1042 868 l 1042 694 l 868 694 z "},"*":{"ha":1389,"x_min":174,"x_max":1042,"o":"m 868 1389 l 868 1563 l 1042 1563 l 1042 1389 l 868 1389 m 174 868 l 174 1042 l 347 1042 l 347 868 l 174 868 m 521 694 l 521 868 l 694 868 l 694 694 l 521 694 m 521 868 l 521 1042 l 694 1042 l 694 868 l 521 868 m 347 1042 l 347 1215 l 521 1215 l 521 1042 l 347 1042 m 174 1389 l 174 1563 l 347 1563 l 347 1389 l 174 1389 m 521 1042 l 521 1215 l 694 1215 l 694 1042 l 521 1042 m 347 1215 l 347 1389 l 521 1389 l 521 1215 l 347 1215 m 521 1042 l 521 1215 l 694 1215 l 694 1042 l 521 1042 m 521 1215 l 521 1389 l 694 1389 l 694 1215 l 521 1215 m 868 868 l 868 1042 l 1042 1042 l 1042 868 l 868 868 m 694 1042 l 694 1215 l 868 1215 l 868 1042 l 694 1042 m 694 1215 l 694 1389 l 868 1389 l 868 1215 l 694 1215 m 521 1389 l 521 1563 l 694 1563 l 694 1389 l 521 1389 m 521 1563 l 521 1736 l 694 1736 l 694 1563 l 521 1563 z "},"\\":{"ha":1389,"x_min":0,"x_max":1215,"o":"m 174 694 l 174 868 l 347 868 l 347 694 l 174 694 m 347 521 l 347 694 l 521 694 l 521 521 l 347 521 m 521 347 l 521 521 l 694 521 l 694 347 l 521 347 m 694 174 l 694 347 l 868 347 l 868 174 l 694 174 m 868 0 l 868 174 l 1042 174 l 1042 0 l 868 0 m 1042 -174 l 1042 0 l 1215 0 l 1215 -174 l 1042 -174 m 0 868 l 0 1042 l 174 1042 l 174 868 l 0 868 z "},"·":{"ha":1389,"x_min":521,"x_max":868,"o":"m 521 347 l 521 694 l 868 694 l 868 347 l 521 347 z "},"•":{"ha":1389,"x_min":347,"x_max":1042,"o":"m 521 174 l 521 347 l 347 347 l 347 694 l 521 694 l 521 868 l 868 868 l 868 694 l 1042 694 l 1042 347 l 868 347 l 868 174 l 521 174 z "},":":{"ha":1389,"x_min":521,"x_max":868,"o":"m 521 694 l 521 1042 l 868 1042 l 868 694 l 521 694 m 521 0 l 521 347 l 868 347 l 868 0 l 521 0 z "},",":{"ha":1389,"x_min":521,"x_max":868,"o":"m 694 0 l 694 174 l 521 174 l 521 521 l 868 521 l 868 0 l 694 0 m 521 -174 l 521 0 l 694 0 l 694 -174 l 521 -174 z "},"…":{"ha":1389,"x_min":174,"x_max":1042,"o":"m 868 347 l 868 521 l 1042 521 l 1042 347 l 868 347 m 174 347 l 174 521 l 347 521 l 347 347 l 174 347 m 521 347 l 521 521 l 694 521 l 694 347 l 521 347 z "},"!":{"ha":1389,"x_min":347,"x_max":1042,"o":"m 521 521 l 521 694 l 347 694 l 347 1215 l 521 1215 l 521 1389 l 868 1389 l 868 1215 l 1042 1215 l 1042 694 l 868 694 l 868 521 l 521 521 m 521 0 l 521 347 l 868 347 l 868 0 l 521 0 z "},"¡":{"ha":1389,"x_min":347,"x_max":1042,"o":"m 521 0 l 521 174 l 347 174 l 347 694 l 521 694 l 521 868 l 868 868 l 868 694 l 1042 694 l 1042 174 l 868 174 l 868 0 l 521 0 m 521 1042 l 521 1389 l 868 1389 l 868 1042 l 521 1042 z "},"#":{"ha":1389,"x_min":0,"x_max":1215,"o":"m 0 694 l 0 868 l 1215 868 l 1215 694 l 0 694 m 174 0 l 174 347 l 347 347 l 347 0 l 174 0 m 174 347 l 174 694 l 347 694 l 347 347 l 174 347 m 0 174 l 0 347 l 1215 347 l 1215 174 l 0 174 m 694 0 l 694 347 l 868 347 l 868 0 l 694 0 m 868 0 l 868 347 l 1042 347 l 1042 0 l 868 0 m 174 694 l 174 1042 l 347 1042 l 347 694 l 174 694 m 694 347 l 694 694 l 868 694 l 868 347 l 694 347 m 868 347 l 868 694 l 1042 694 l 1042 347 l 868 347 m 694 694 l 694 1042 l 868 1042 l 868 694 l 694 694 m 868 694 l 868 1042 l 1042 1042 l 1042 694 l 868 694 z "},".":{"ha":1389,"x_min":521,"x_max":868,"o":"m 521 0 l 521 347 l 868 347 l 868 0 l 521 0 z "},"。":{"ha":1389,"x_min":347,"x_max":868,"o":"m 347 0 l 347 521 l 868 521 l 868 0 l 347 0 m 521 174 l 694 174 l 694 347 l 521 347 l 521 174 z "},"?":{"ha":1389,"x_min":0,"x_max":1389,"o":"m 521 521 l 521 694 l 694 694 l 694 868 l 868 868 l 868 1042 l 521 1042 l 521 868 l 347 868 l 347 694 l 0 694 l 0 1042 l 174 1042 l 174 1215 l 1215 1215 l 1215 1042 l 1389 1042 l 1389 868 l 1215 868 l 1215 694 l 868 694 l 868 521 l 521 521 m 521 0 l 521 347 l 868 347 l 868 0 l 521 0 z "},"¿":{"ha":1389,"x_min":0,"x_max":1389,"o":"m 174 0 l 174 174 l 0 174 l 0 347 l 174 347 l 174 521 l 521 521 l 521 174 l 868 174 l 868 347 l 1042 347 l 1042 521 l 1389 521 l 1389 347 l 1215 347 l 1215 0 l 174 0 m 521 521 l 521 694 l 868 694 l 868 521 l 521 521 m 521 868 l 521 1215 l 868 1215 l 868 868 l 521 868 z "},"\"":{"ha":1389,"x_min":347,"x_max":868,"o":"m 694 868 l 694 1389 l 868 1389 l 868 868 l 694 868 m 347 868 l 347 1389 l 521 1389 l 521 868 l 347 868 z "},"'":{"ha":1389,"x_min":521,"x_max":694,"o":"m 521 868 l 521 1389 l 694 1389 l 694 868 l 521 868 z "},";":{"ha":1389,"x_min":521,"x_max":868,"o":"m 694 0 l 694 174 l 521 174 l 521 521 l 868 521 l 868 0 l 694 0 m 521 -174 l 521 0 l 694 0 l 694 -174 l 521 -174 m 521 694 l 521 1042 l 868 1042 l 868 694 l 521 694 z "},"/":{"ha":1389,"x_min":0,"x_max":1215,"o":"m 1042 868 l 1042 1042 l 1215 1042 l 1215 868 l 1042 868 m 0 -174 l 0 0 l 174 0 l 174 -174 l 0 -174 m 174 0 l 174 174 l 347 174 l 347 0 l 174 0 m 347 174 l 347 347 l 521 347 l 521 174 l 347 174 m 521 347 l 521 521 l 694 521 l 694 347 l 521 347 m 694 521 l 694 694 l 868 694 l 868 521 l 694 521 m 868 694 l 868 868 l 1042 868 l 1042 694 l 868 694 z "},"_":{"ha":1389,"x_min":0,"x_max":1215,"o":"m 0 -174 l 0 0 l 1215 0 l 1215 -174 l 0 -174 z "},"{":{"ha":1389,"x_min":347,"x_max":868,"o":"m 694 -174 l 694 0 l 521 0 l 521 521 l 347 521 l 347 694 l 521 694 l 521 1215 l 694 1215 l 694 694 l 521 694 l 521 521 l 694 521 l 694 0 l 868 0 l 868 -174 l 694 -174 m 694 1215 l 694 1389 l 868 1389 l 868 1215 l 694 1215 z "},"}":{"ha":1389,"x_min":347,"x_max":868,"o":"m 347 -174 l 347 0 l 521 0 l 521 521 l 694 521 l 694 694 l 521 694 l 521 1215 l 694 1215 l 694 694 l 868 694 l 868 521 l 694 521 l 694 0 l 521 0 l 521 -174 l 347 -174 m 347 1215 l 347 1389 l 521 1389 l 521 1215 l 347 1215 z "},"[":{"ha":1389,"x_min":347,"x_max":868,"o":"m 347 0 l 347 1215 l 868 1215 l 868 1042 l 521 1042 l 521 174 l 868 174 l 868 0 l 347 0 z "},"]":{"ha":1389,"x_min":347,"x_max":868,"o":"m 347 0 l 347 174 l 694 174 l 694 1042 l 347 1042 l 347 1215 l 868 1215 l 868 0 l 347 0 z "},"(":{"ha":1389,"x_min":347,"x_max":1042,"o":"m 347 347 l 347 868 l 521 868 l 521 347 l 347 347 m 521 174 l 521 347 l 694 347 l 694 174 l 521 174 m 694 0 l 694 174 l 1042 174 l 1042 0 l 694 0 m 521 868 l 521 1042 l 694 1042 l 694 868 l 521 868 m 694 1042 l 694 1215 l 1042 1215 l 1042 1042 l 694 1042 z "},")":{"ha":1389,"x_min":347,"x_max":1042,"o":"m 868 347 l 868 868 l 1042 868 l 1042 347 l 868 347 m 347 0 l 347 174 l 694 174 l 694 0 l 347 0 m 694 174 l 694 347 l 868 347 l 868 174 l 694 174 m 347 1042 l 347 1215 l 694 1215 l 694 1042 l 347 1042 m 694 868 l 694 1042 l 868 1042 l 868 868 l 694 868 z "},"—":{"ha":1389,"x_min":0,"x_max":1389,"o":"m 0 347 l 0 521 l 1389 521 l 1389 347 l 0 347 z "},"–":{"ha":1389,"x_min":174,"x_max":1215,"o":"m 174 347 l 174 521 l 1215 521 l 1215 347 l 174 347 z "},"-":{"ha":1389,"x_min":347,"x_max":1042,"o":"m 347 347 l 347 521 l 1042 521 l 1042 347 l 347 347 z "},"«":{"ha":1389,"x_min":0,"x_max":1215,"o":"m 521 -174 l 521 0 l 347 0 l 347 174 l 174 174 l 174 347 l 0 347 l 0 521 l 174 521 l 174 694 l 347 694 l 347 868 l 521 868 l 521 1042 l 694 1042 l 694 694 l 868 694 l 868 868 l 1042 868 l 1042 1042 l 1215 1042 l 1215 694 l 1042 694 l 1042 174 l 1215 174 l 1215 -174 l 1042 -174 l 1042 0 l 868 0 l 868 174 l 694 174 l 694 -174 l 521 -174 m 521 174 l 694 174 l 694 347 l 521 347 l 521 174 m 521 521 l 694 521 l 694 694 l 521 694 l 521 521 z "},"»":{"ha":1389,"x_min":0,"x_max":1215,"o":"m 0 -174 l 0 174 l 174 174 l 174 694 l 0 694 l 0 1042 l 174 1042 l 174 868 l 347 868 l 347 694 l 521 694 l 521 1042 l 694 1042 l 694 868 l 868 868 l 868 694 l 1042 694 l 1042 521 l 1215 521 l 1215 347 l 1042 347 l 1042 174 l 868 174 l 868 0 l 694 0 l 694 -174 l 521 -174 l 521 174 l 347 174 l 347 0 l 174 0 l 174 -174 l 0 -174 m 521 174 l 694 174 l 694 347 l 521 347 l 521 174 m 521 521 l 694 521 l 694 694 l 521 694 l 521 521 z "},"‹":{"ha":1389,"x_min":347,"x_max":1042,"o":"m 868 -174 l 868 0 l 694 0 l 694 174 l 521 174 l 521 347 l 347 347 l 347 521 l 521 521 l 521 694 l 694 694 l 694 868 l 868 868 l 868 1042 l 1042 1042 l 1042 694 l 868 694 l 868 174 l 1042 174 l 1042 -174 l 868 -174 z "},"›":{"ha":1389,"x_min":347,"x_max":1042,"o":"m 347 -174 l 347 174 l 521 174 l 521 694 l 347 694 l 347 1042 l 521 1042 l 521 868 l 694 868 l 694 694 l 868 694 l 868 521 l 1042 521 l 1042 347 l 868 347 l 868 174 l 694 174 l 694 0 l 521 0 l 521 -174 l 347 -174 z "},"„":{"ha":1389,"x_min":521,"x_max":868,"o":"m 694 174 l 521 174 l 521 521 l 868 521 l 868 0 l 694 0 l 694 174 m 521 0 l 694 0 l 694 -174 l 521 -174 l 521 0 m 694 174 l 521 174 l 521 521 l 868 521 l 868 0 l 694 0 l 694 174 m 521 0 l 694 0 l 694 -174 l 521 -174 l 521 0 z "},"“":{"ha":1389,"x_min":174,"x_max":1042,"o":"m 694 694 l 694 1042 l 868 1042 l 868 868 l 1042 868 l 1042 694 l 694 694 m 174 694 l 174 1042 l 347 1042 l 347 868 l 521 868 l 521 694 l 174 694 m 347 1042 l 347 1215 l 521 1215 l 521 1042 l 347 1042 m 868 1042 l 868 1215 l 1042 1215 l 1042 1042 l 868 1042 z "},"”":{"ha":1389,"x_min":174,"x_max":1042,"o":"m 868 868 l 868 1042 l 694 1042 l 694 1215 l 1042 1215 l 1042 868 l 868 868 m 174 694 l 174 868 l 347 868 l 347 694 l 174 694 m 347 868 l 347 1042 l 174 1042 l 174 1215 l 521 1215 l 521 868 l 347 868 m 694 694 l 694 868 l 868 868 l 868 694 l 694 694 z "},"‘":{"ha":1389,"x_min":521,"x_max":868,"o":"m 521 694 l 521 1042 l 694 1042 l 694 868 l 868 868 l 868 694 l 521 694 m 694 1042 l 694 1215 l 868 1215 l 868 1042 l 694 1042 z "},"’":{"ha":1389,"x_min":521,"x_max":868,"o":"m 694 868 l 694 1042 l 521 1042 l 521 1215 l 868 1215 l 868 868 l 694 868 m 521 694 l 521 868 l 694 868 l 694 694 l 521 694 z "},"‚":{"ha":1389,"x_min":521,"x_max":868,"o":"m 694 0 l 694 174 l 521 174 l 521 521 l 868 521 l 868 0 l 694 0 m 521 -174 l 521 0 l 694 0 l 694 -174 l 521 -174 z "},"・":{"ha":1389,"x_min":521,"x_max":868,"o":"m 521 347 l 521 694 l 868 694 l 868 347 l 521 347 z "},"゠":{"ha":1389,"x_min":347,"x_max":1042,"o":"m 347 521 l 347 694 l 1042 694 l 1042 521 l 347 521 m 347 174 l 347 347 l 1042 347 l 1042 174 l 347 174 z "},"¢":{"ha":1389,"x_min":174,"x_max":1042,"o":"m 521 -174 l 521 0 l 347 0 l 347 174 l 521 174 l 521 694 l 347 694 l 347 868 l 521 868 l 521 1042 l 694 1042 l 694 868 l 1042 868 l 1042 694 l 694 694 l 694 174 l 1042 174 l 1042 0 l 694 0 l 694 -174 l 521 -174 m 174 174 l 174 694 l 347 694 l 347 174 l 174 174 z "},"¤":{"ha":1389,"x_min":174,"x_max":1215,"o":"m 347 174 l 347 868 l 1042 868 l 1042 174 l 347 174 m 174 0 l 174 174 l 347 174 l 347 0 l 174 0 m 174 868 l 174 1042 l 347 1042 l 347 868 l 174 868 m 521 347 l 868 347 l 868 694 l 521 694 l 521 347 m 1042 0 l 1042 174 l 1215 174 l 1215 0 l 1042 0 m 1042 868 l 1042 1042 l 1215 1042 l 1215 868 l 1042 868 z "},"$":{"ha":1389,"x_min":174,"x_max":1042,"o":"m 521 -174 l 521 0 l 347 0 l 347 174 l 521 174 l 521 521 l 347 521 l 347 694 l 521 694 l 521 868 l 347 868 l 347 1042 l 521 1042 l 521 1215 l 694 1215 l 694 1042 l 1042 1042 l 1042 868 l 694 868 l 694 694 l 868 694 l 868 521 l 694 521 l 694 174 l 868 174 l 868 0 l 694 0 l 694 -174 l 521 -174 m 174 174 l 174 347 l 347 347 l 347 174 l 174 174 m 174 694 l 174 868 l 347 868 l 347 694 l 174 694 m 868 174 l 868 521 l 1042 521 l 1042 174 l 868 174 z "},"€":{"ha":1389,"x_min":174,"x_max":1215,"o":"m 347 0 l 347 347 l 174 347 l 174 521 l 347 521 l 347 694 l 174 694 l 174 868 l 347 868 l 347 1042 l 521 1042 l 521 868 l 1042 868 l 1042 694 l 521 694 l 521 521 l 1042 521 l 1042 347 l 521 347 l 521 0 l 347 0 m 521 -174 l 521 0 l 1215 0 l 1215 -174 l 521 -174 m 521 1042 l 521 1215 l 1215 1215 l 1215 1042 l 521 1042 z "},"£":{"ha":1389,"x_min":174,"x_max":1215,"o":"m 174 -174 l 174 0 l 347 0 l 347 347 l 174 347 l 174 521 l 347 521 l 347 1042 l 521 1042 l 521 521 l 868 521 l 868 347 l 521 347 l 521 0 l 1215 0 l 1215 -174 l 174 -174 m 521 1042 l 521 1215 l 1042 1215 l 1042 1042 l 521 1042 m 1042 868 l 1042 1042 l 1215 1042 l 1215 868 l 1042 868 z "},"¥":{"ha":1389,"x_min":174,"x_max":1042,"o":"m 347 -174 l 347 0 l 174 0 l 174 174 l 347 174 l 347 347 l 174 347 l 174 521 l 347 521 l 347 1215 l 1042 1215 l 1042 694 l 521 694 l 521 521 l 694 521 l 694 347 l 521 347 l 521 174 l 694 174 l 694 0 l 521 0 l 521 -174 l 347 -174 m 521 868 l 868 868 l 868 1042 l 521 1042 l 521 868 z "},"+":{"ha":1389,"x_min":174,"x_max":1042,"o":"m 521 0 l 521 347 l 174 347 l 174 521 l 521 521 l 521 868 l 694 868 l 694 521 l 1042 521 l 1042 347 l 694 347 l 694 0 l 521 0 z "},"−":{"ha":1389,"x_min":174,"x_max":1042,"o":"m 174 347 l 174 521 l 1042 521 l 1042 347 l 174 347 z "},"×":{"ha":1389,"x_min":174,"x_max":1042,"o":"m 868 694 l 868 868 l 1042 868 l 1042 694 l 868 694 m 174 0 l 174 174 l 347 174 l 347 0 l 174 0 m 347 174 l 347 347 l 521 347 l 521 174 l 347 174 m 174 694 l 174 868 l 347 868 l 347 694 l 174 694 m 347 521 l 347 694 l 521 694 l 521 521 l 347 521 m 521 347 l 521 521 l 694 521 l 694 347 l 521 347 m 694 174 l 694 347 l 868 347 l 868 174 l 694 174 m 868 0 l 868 174 l 1042 174 l 1042 0 l 868 0 m 694 521 l 694 694 l 868 694 l 868 521 l 694 521 z "},"÷":{"ha":1389,"x_min":174,"x_max":1042,"o":"m 174 347 l 174 521 l 1042 521 l 1042 347 l 174 347 m 521 0 l 521 174 l 694 174 l 694 0 l 521 0 m 521 694 l 521 868 l 694 868 l 694 694 l 521 694 z "},"=":{"ha":1389,"x_min":174,"x_max":1042,"o":"m 174 694 l 174 868 l 1042 868 l 1042 694 l 174 694 m 174 174 l 174 347 l 1042 347 l 1042 174 l 174 174 z "},"≠":{"ha":1389,"x_min":174,"x_max":1042,"o":"m 174 694 l 174 868 l 1042 868 l 1042 694 l 174 694 m 347 0 l 347 174 l 521 174 l 521 0 l 347 0 m 174 174 l 174 347 l 1042 347 l 1042 174 l 174 174 m 521 347 l 521 521 l 694 521 l 694 347 l 521 347 m 521 521 l 521 694 l 694 694 l 694 521 l 521 521 m 694 868 l 694 1042 l 868 1042 l 868 868 l 694 868 z "},">":{"ha":1389,"x_min":174,"x_max":1042,"o":"m 174 -174 l 174 0 l 347 0 l 347 174 l 521 174 l 521 347 l 694 347 l 694 521 l 521 521 l 521 694 l 347 694 l 347 868 l 174 868 l 174 1042 l 521 1042 l 521 868 l 694 868 l 694 694 l 868 694 l 868 521 l 1042 521 l 1042 347 l 868 347 l 868 174 l 694 174 l 694 0 l 521 0 l 521 -174 l 174 -174 z "},"<":{"ha":1389,"x_min":174,"x_max":1042,"o":"m 694 -174 l 694 0 l 521 0 l 521 174 l 347 174 l 347 347 l 174 347 l 174 521 l 347 521 l 347 694 l 521 694 l 521 868 l 694 868 l 694 1042 l 1042 1042 l 1042 868 l 868 868 l 868 694 l 694 694 l 694 521 l 521 521 l 521 347 l 694 347 l 694 174 l 868 174 l 868 0 l 1042 0 l 1042 -174 l 694 -174 z "},"≥":{"ha":1389,"x_min":174,"x_max":1042,"o":"m 174 0 l 174 174 l 1042 174 l 1042 0 l 174 0 m 174 347 l 174 521 l 521 521 l 521 694 l 174 694 l 174 868 l 694 868 l 694 694 l 1042 694 l 1042 521 l 694 521 l 694 347 l 174 347 z "},"≤":{"ha":1389,"x_min":174,"x_max":1042,"o":"m 1042 0 l 174 0 l 174 174 l 1042 174 l 1042 0 m 1042 347 l 521 347 l 521 521 l 174 521 l 174 694 l 521 694 l 521 868 l 1042 868 l 1042 694 l 694 694 l 694 521 l 1042 521 l 1042 347 z "},"±":{"ha":1389,"x_min":174,"x_max":1042,"o":"m 521 347 l 521 521 l 174 521 l 174 694 l 521 694 l 521 868 l 694 868 l 694 694 l 1042 694 l 1042 521 l 694 521 l 694 347 l 521 347 m 174 0 l 174 174 l 1042 174 l 1042 0 l 174 0 z "},"≈":{"ha":1389,"x_min":174,"x_max":1042,"o":"m 347 694 l 347 868 l 694 868 l 694 694 l 347 694 m 174 0 l 174 174 l 347 174 l 347 0 l 174 0 m 347 174 l 347 347 l 694 347 l 694 174 l 347 174 m 174 521 l 174 694 l 347 694 l 347 521 l 174 521 m 694 0 l 694 174 l 868 174 l 868 0 l 694 0 m 868 174 l 868 347 l 1042 347 l 1042 174 l 868 174 m 694 521 l 694 694 l 868 694 l 868 521 l 694 521 m 868 694 l 868 868 l 1042 868 l 1042 694 l 868 694 z "},"~":{"ha":1389,"x_min":0,"x_max":1042,"o":"m 521 868 l 521 1042 l 868 1042 l 868 868 l 521 868 m 0 868 l 0 1042 l 174 1042 l 174 868 l 0 868 m 174 1042 l 174 1215 l 521 1215 l 521 1042 l 174 1042 m 868 1042 l 868 1215 l 1042 1215 l 1042 1042 l 868 1042 z "},"¬":{"ha":1389,"x_min":174,"x_max":1042,"o":"m 174 347 l 174 521 l 1042 521 l 1042 0 l 868 0 l 868 347 l 174 347 z "},"∅":{"ha":1389,"x_min":0,"x_max":1215,"o":"m 1042 1042 l 1042 1215 l 1215 1215 l 1215 1042 l 1042 1042 m 0 0 l 0 174 l 174 174 l 174 0 l 0 0 m 174 174 l 174 347 l 347 347 l 347 174 l 174 174 m 347 347 l 347 521 l 521 521 l 521 347 l 347 347 m 521 521 l 521 694 l 694 694 l 694 521 l 521 521 m 694 694 l 694 868 l 868 868 l 868 694 l 694 694 m 868 868 l 868 1042 l 1042 1042 l 1042 868 l 868 868 m 347 1215 l 868 1215 l 868 1042 l 347 1042 l 347 1215 m 174 347 l 347 347 l 347 174 l 174 174 l 174 347 m 0 868 l 174 868 l 174 347 l 0 347 l 0 868 m 347 174 l 868 174 l 868 0 l 347 0 l 347 174 m 174 1042 l 347 1042 l 347 868 l 174 868 l 174 1042 m 868 347 l 1042 347 l 1042 174 l 868 174 l 868 347 m 1042 868 l 1215 868 l 1215 347 l 1042 347 l 1042 868 m 868 1042 l 1042 1042 l 1042 868 l 868 868 l 868 1042 z "},"∞":{"ha":1389,"x_min":0,"x_max":1215,"o":"m 0 347 l 0 694 l 174 694 l 174 868 l 521 868 l 521 694 l 694 694 l 694 868 l 1042 868 l 1042 694 l 1215 694 l 1215 347 l 1042 347 l 1042 174 l 694 174 l 694 347 l 521 347 l 521 174 l 174 174 l 174 347 l 0 347 m 174 347 l 521 347 l 521 694 l 174 694 l 174 347 m 694 347 l 1042 347 l 1042 694 l 694 694 l 694 347 z "},"∫":{"ha":1389,"x_min":174,"x_max":1215,"o":"m 174 -174 l 174 0 l 521 0 l 521 521 l 694 521 l 694 1215 l 868 1215 l 868 1389 l 1215 1389 l 1215 1215 l 868 1215 l 868 521 l 694 521 l 694 0 l 521 0 l 521 -174 l 174 -174 z "},"∏":{"ha":1389,"x_min":0,"x_max":1128,"o":"m 0 1389 l 1128 1389 l 1128 1215 l 0 1215 l 0 1389 m 174 1215 l 347 1215 l 347 -174 l 174 -174 l 174 1215 m 781 1215 l 955 1215 l 955 -174 l 781 -174 l 781 1215 z "},"∑":{"ha":1389,"x_min":174,"x_max":1042,"o":"m 174 -174 l 174 174 l 347 174 l 347 521 l 521 521 l 521 694 l 347 694 l 347 1042 l 174 1042 l 174 1389 l 1042 1389 l 1042 1215 l 347 1215 l 347 1042 l 521 1042 l 521 694 l 694 694 l 694 521 l 521 521 l 521 174 l 347 174 l 347 0 l 1042 0 l 1042 -174 l 174 -174 z "},"√":{"ha":1389,"x_min":0,"x_max":1215,"o":"m 0 174 l 0 347 l 174 347 l 174 174 l 347 174 l 347 0 l 521 0 l 521 347 l 694 347 l 694 868 l 868 868 l 868 1389 l 1215 1389 l 1215 1215 l 1042 1215 l 1042 868 l 868 868 l 868 347 l 694 347 l 694 0 l 521 0 l 521 -174 l 347 -174 l 347 0 l 174 0 l 174 174 l 0 174 z "},"∂":{"ha":1389,"x_min":174,"x_max":1042,"o":"m 174 174 l 174 521 l 347 521 l 347 694 l 868 694 l 868 1042 l 1042 1042 l 1042 174 l 868 174 l 868 0 l 347 0 l 347 174 l 174 174 m 347 174 l 868 174 l 868 521 l 347 521 l 347 174 m 694 1215 l 868 1215 l 868 1042 l 694 1042 l 694 1215 z "},"%":{"ha":1389,"x_min":0,"x_max":1215,"o":"m 1042 1042 l 1042 1215 l 1215 1215 l 1215 1042 l 1042 1042 m 0 0 l 0 174 l 174 174 l 174 0 l 0 0 m 174 174 l 174 347 l 347 347 l 347 174 l 174 174 m 347 347 l 347 521 l 521 521 l 521 347 l 347 347 m 0 868 l 0 1042 l 174 1042 l 174 868 l 0 868 m 174 694 l 174 868 l 347 868 l 347 694 l 174 694 m 694 174 l 694 347 l 868 347 l 868 174 l 694 174 m 868 0 l 868 174 l 1042 174 l 1042 0 l 868 0 m 521 521 l 521 694 l 694 694 l 694 521 l 521 521 m 347 868 l 347 1042 l 521 1042 l 521 868 l 347 868 m 174 1042 l 174 1215 l 347 1215 l 347 1042 l 174 1042 m 1042 174 l 1042 347 l 1215 347 l 1215 174 l 1042 174 m 868 347 l 868 521 l 1042 521 l 1042 347 l 868 347 m 694 694 l 694 868 l 868 868 l 868 694 l 694 694 m 868 868 l 868 1042 l 1042 1042 l 1042 868 l 868 868 z "},"‰":{"ha":1389,"x_min":0,"x_max":1389,"o":"m 1042 1042 l 1042 1215 l 1215 1215 l 1215 1042 l 1042 1042 m 0 0 l 0 174 l 174 174 l 174 0 l 0 0 m 174 174 l 174 347 l 347 347 l 347 174 l 174 174 m 347 347 l 347 521 l 521 521 l 521 347 l 347 347 m 0 868 l 0 1042 l 174 1042 l 174 868 l 0 868 m 174 694 l 174 868 l 347 868 l 347 694 l 174 694 m 521 174 l 521 347 l 694 347 l 694 174 l 521 174 m 694 0 l 694 174 l 868 174 l 868 0 l 694 0 m 521 521 l 521 694 l 694 694 l 694 521 l 521 521 m 347 868 l 347 1042 l 521 1042 l 521 868 l 347 868 m 174 1042 l 174 1215 l 347 1215 l 347 1042 l 174 1042 m 868 174 l 868 347 l 1042 347 l 1042 174 l 868 174 m 694 347 l 694 521 l 868 521 l 868 347 l 694 347 m 694 694 l 694 868 l 868 868 l 868 694 l 694 694 m 868 868 l 868 1042 l 1042 1042 l 1042 868 l 868 868 m 868 174 l 868 347 l 1042 347 l 1042 174 l 868 174 m 1042 0 l 1042 174 l 1215 174 l 1215 0 l 1042 0 m 1215 174 l 1215 347 l 1389 347 l 1389 174 l 1215 174 m 1042 347 l 1042 521 l 1215 521 l 1215 347 l 1042 347 z "},"↑":{"ha":1389,"x_min":0,"x_max":1215,"o":"m 0 521 l 0 694 l 174 694 l 174 868 l 347 868 l 347 1042 l 521 1042 l 521 1215 l 694 1215 l 694 1042 l 868 1042 l 868 868 l 1042 868 l 1042 694 l 1215 694 l 1215 521 l 1042 521 l 1042 694 l 868 694 l 868 868 l 694 868 l 694 1042 l 521 1042 l 521 868 l 347 868 l 347 694 l 174 694 l 174 521 l 0 521 m 521 0 l 521 1215 l 694 1215 l 694 0 l 521 0 z "},"↗":{"ha":1389,"x_min":0,"x_max":1215,"o":"m 0 0 l 0 174 l 174 174 l 174 347 l 347 347 l 347 521 l 521 521 l 521 694 l 694 694 l 694 868 l 868 868 l 868 1042 l 174 1042 l 174 1215 l 1215 1215 l 1215 174 l 1042 174 l 1042 868 l 868 868 l 868 694 l 694 694 l 694 521 l 521 521 l 521 347 l 347 347 l 347 174 l 174 174 l 174 0 l 0 0 z "},"→":{"ha":1389,"x_min":0,"x_max":1215,"o":"m 521 1215 l 694 1215 l 694 1042 l 868 1042 l 868 868 l 1042 868 l 1042 694 l 1215 694 l 1215 521 l 1042 521 l 1042 347 l 868 347 l 868 174 l 694 174 l 694 0 l 521 0 l 521 174 l 694 174 l 694 347 l 868 347 l 868 521 l 1042 521 l 1042 694 l 868 694 l 868 868 l 694 868 l 694 1042 l 521 1042 l 521 1215 m 0 694 l 1215 694 l 1215 521 l 0 521 l 0 694 z "},"↘":{"ha":1389,"x_min":0,"x_max":1215,"o":"m 0 1215 l 174 1215 l 174 1042 l 347 1042 l 347 868 l 521 868 l 521 694 l 694 694 l 694 521 l 868 521 l 868 347 l 1042 347 l 1042 1042 l 1215 1042 l 1215 0 l 174 0 l 174 174 l 868 174 l 868 347 l 694 347 l 694 521 l 521 521 l 521 694 l 347 694 l 347 868 l 174 868 l 174 1042 l 0 1042 l 0 1215 z "},"↓":{"ha":1389,"x_min":0,"x_max":1215,"o":"m 0 694 l 174 694 l 174 521 l 347 521 l 347 347 l 521 347 l 521 174 l 694 174 l 694 347 l 868 347 l 868 521 l 1042 521 l 1042 694 l 1215 694 l 1215 521 l 1042 521 l 1042 347 l 868 347 l 868 174 l 694 174 l 694 0 l 521 0 l 521 174 l 347 174 l 347 347 l 174 347 l 174 521 l 0 521 l 0 694 m 521 1215 l 694 1215 l 694 0 l 521 0 l 521 1215 z "},"↙":{"ha":1389,"x_min":0,"x_max":1215,"o":"m 1215 1215 l 1215 1042 l 1042 1042 l 1042 868 l 868 868 l 868 694 l 694 694 l 694 521 l 521 521 l 521 347 l 347 347 l 347 174 l 1042 174 l 1042 0 l 0 0 l 0 1042 l 174 1042 l 174 347 l 347 347 l 347 521 l 521 521 l 521 694 l 694 694 l 694 868 l 868 868 l 868 1042 l 1042 1042 l 1042 1215 l 1215 1215 z "},"←":{"ha":1389,"x_min":0,"x_max":1215,"o":"m 694 0 l 521 0 l 521 174 l 347 174 l 347 347 l 174 347 l 174 521 l 0 521 l 0 694 l 174 694 l 174 868 l 347 868 l 347 1042 l 521 1042 l 521 1215 l 694 1215 l 694 1042 l 521 1042 l 521 868 l 347 868 l 347 694 l 174 694 l 174 521 l 347 521 l 347 347 l 521 347 l 521 174 l 694 174 l 694 0 m 1215 521 l 0 521 l 0 694 l 1215 694 l 1215 521 z "},"↖":{"ha":1389,"x_min":0,"x_max":1215,"o":"m 1215 0 l 1042 0 l 1042 174 l 868 174 l 868 347 l 694 347 l 694 521 l 521 521 l 521 694 l 347 694 l 347 868 l 174 868 l 174 174 l 0 174 l 0 1215 l 1042 1215 l 1042 1042 l 347 1042 l 347 868 l 521 868 l 521 694 l 694 694 l 694 521 l 868 521 l 868 347 l 1042 347 l 1042 174 l 1215 174 l 1215 0 z "},"↔":{"ha":1389,"x_min":0,"x_max":1389,"o":"m 0 521 l 0 694 l 174 694 l 174 868 l 347 868 l 347 1042 l 521 1042 l 521 868 l 347 868 l 347 694 l 1042 694 l 1042 868 l 868 868 l 868 1042 l 1042 1042 l 1042 868 l 1215 868 l 1215 694 l 1389 694 l 1389 521 l 1215 521 l 1215 347 l 1042 347 l 1042 174 l 868 174 l 868 347 l 1042 347 l 1042 521 l 347 521 l 347 347 l 521 347 l 521 174 l 347 174 l 347 347 l 174 347 l 174 521 l 0 521 z "},"↕":{"ha":1389,"x_min":174,"x_max":1042,"o":"m 521 1389 l 694 1389 l 694 1215 l 868 1215 l 868 1042 l 1042 1042 l 1042 868 l 868 868 l 868 1042 l 694 1042 l 694 347 l 868 347 l 868 521 l 1042 521 l 1042 347 l 868 347 l 868 174 l 694 174 l 694 0 l 521 0 l 521 174 l 347 174 l 347 347 l 174 347 l 174 521 l 347 521 l 347 347 l 521 347 l 521 1042 l 347 1042 l 347 868 l 174 868 l 174 1042 l 347 1042 l 347 1215 l 521 1215 l 521 1389 z "},"◊":{"ha":1389,"x_min":174,"x_max":1042,"o":"m 174 347 l 174 694 l 347 694 l 347 1042 l 521 1042 l 521 1215 l 694 1215 l 694 1042 l 868 1042 l 868 694 l 1042 694 l 1042 347 l 868 347 l 868 0 l 694 0 l 694 -174 l 521 -174 l 521 0 l 347 0 l 347 347 l 174 347 m 347 347 l 521 347 l 521 0 l 694 0 l 694 347 l 868 347 l 868 694 l 694 694 l 694 1042 l 521 1042 l 521 694 l 347 694 l 347 347 z "},"▲":{"ha":1389,"x_min":0,"x_max":1215,"o":"m 0 174 l 0 521 l 174 521 l 174 694 l 347 694 l 347 868 l 521 868 l 521 1042 l 694 1042 l 694 868 l 868 868 l 868 694 l 1042 694 l 1042 521 l 1215 521 l 1215 174 l 0 174 z "},"▶":{"ha":1389,"x_min":174,"x_max":1042,"o":"m 174 -174 l 174 1042 l 521 1042 l 521 868 l 694 868 l 694 694 l 868 694 l 868 521 l 1042 521 l 1042 347 l 868 347 l 868 174 l 694 174 l 694 0 l 521 0 l 521 -174 l 174 -174 z "},"▼":{"ha":1389,"x_min":0,"x_max":1215,"o":"m 521 174 l 521 347 l 347 347 l 347 521 l 174 521 l 174 694 l 0 694 l 0 1042 l 1215 1042 l 1215 694 l 1042 694 l 1042 521 l 868 521 l 868 347 l 694 347 l 694 174 l 521 174 z "},"▷":{"ha":1389,"x_min":174,"x_max":1042,"o":"m 174 -174 l 174 1042 l 521 1042 l 521 868 l 347 868 l 347 0 l 521 0 l 521 -174 l 174 -174 m 521 0 l 521 174 l 694 174 l 694 0 l 521 0 m 694 174 l 694 347 l 868 347 l 868 174 l 694 174 m 521 694 l 521 868 l 694 868 l 694 694 l 521 694 m 694 521 l 694 694 l 868 694 l 868 521 l 694 521 m 868 347 l 868 521 l 1042 521 l 1042 347 l 868 347 z "},"♀":{"ha":1389,"x_min":0,"x_max":868,"o":"m 347 -174 l 347 174 l 0 174 l 0 347 l 347 347 l 347 521 l 174 521 l 174 694 l 694 694 l 694 521 l 521 521 l 521 347 l 868 347 l 868 174 l 521 174 l 521 -174 l 347 -174 m 0 694 l 0 1042 l 174 1042 l 174 694 l 0 694 m 174 1042 l 174 1215 l 694 1215 l 694 1042 l 174 1042 m 694 694 l 694 1042 l 868 1042 l 868 694 l 694 694 z "},"♂":{"ha":1389,"x_min":0,"x_max":1215,"o":"m 347 347 l 347 521 l 521 521 l 521 868 l 347 868 l 347 1042 l 521 1042 l 521 1215 l 694 1215 l 694 1042 l 868 1042 l 868 868 l 694 868 l 694 521 l 868 521 l 868 347 l 347 347 m 174 0 l 174 347 l 347 347 l 347 0 l 174 0 m 347 -174 l 347 0 l 868 0 l 868 -174 l 347 -174 m 0 521 l 0 694 l 174 694 l 174 521 l 0 521 m 174 694 l 174 868 l 347 868 l 347 694 l 174 694 m 868 0 l 868 347 l 1042 347 l 1042 0 l 868 0 m 868 694 l 868 868 l 1042 868 l 1042 694 l 868 694 m 1042 521 l 1042 694 l 1215 694 l 1215 521 l 1042 521 z "},"@":{"ha":1389,"x_min":0,"x_max":1215,"o":"m 1042 0 l 1042 174 l 347 174 l 347 521 l 521 521 l 521 347 l 694 347 l 694 521 l 521 521 l 521 694 l 347 694 l 347 868 l 868 868 l 868 347 l 1215 347 l 1215 0 l 1042 0 m 174 0 l 174 174 l 347 174 l 347 0 l 174 0 m 0 174 l 0 868 l 174 868 l 174 174 l 0 174 m 347 -174 l 347 0 l 1042 0 l 1042 -174 l 347 -174 m 174 868 l 174 1042 l 347 1042 l 347 868 l 174 868 m 347 1042 l 347 1215 l 868 1215 l 868 1042 l 347 1042 m 868 868 l 868 1042 l 1042 1042 l 1042 868 l 868 868 m 1042 694 l 1042 868 l 1215 868 l 1215 694 l 1042 694 z "},"&":{"ha":1389,"x_min":0,"x_max":1215,"o":"m 174 0 l 174 174 l 0 174 l 0 347 l 174 347 l 174 521 l 347 521 l 347 174 l 694 174 l 694 347 l 521 347 l 521 521 l 347 521 l 347 694 l 174 694 l 174 1042 l 347 1042 l 347 1215 l 694 1215 l 694 1042 l 521 1042 l 521 694 l 694 694 l 694 521 l 868 521 l 868 347 l 1042 347 l 1042 174 l 868 174 l 868 0 l 174 0 m 1042 0 l 1042 174 l 1215 174 l 1215 0 l 1042 0 m 694 694 l 694 1042 l 868 1042 l 868 694 l 694 694 m 1042 347 l 1042 694 l 1215 694 l 1215 347 l 1042 347 z "},"¶":{"ha":1389,"x_min":174,"x_max":1042,"o":"m 521 -174 l 521 521 l 347 521 l 347 694 l 174 694 l 174 1042 l 347 1042 l 347 1215 l 694 1215 l 694 -174 l 521 -174 m 868 -174 l 868 1215 l 1042 1215 l 1042 -174 l 868 -174 z "},"§":{"ha":1389,"x_min":174,"x_max":1042,"o":"m 347 -174 l 347 0 l 174 0 l 174 347 l 347 347 l 347 0 l 694 0 l 694 347 l 521 347 l 521 521 l 347 521 l 347 694 l 174 694 l 174 1042 l 347 1042 l 347 1215 l 174 1215 l 174 1563 l 347 1563 l 347 1736 l 868 1736 l 868 1563 l 1042 1563 l 1042 1215 l 868 1215 l 868 1563 l 521 1563 l 521 1215 l 694 1215 l 694 1042 l 868 1042 l 868 868 l 1042 868 l 1042 521 l 868 521 l 868 347 l 1042 347 l 1042 0 l 868 0 l 868 -174 l 347 -174 m 694 521 l 868 521 l 868 868 l 521 868 l 521 1042 l 347 1042 l 347 694 l 694 694 l 694 521 z "},"©":{"ha":1389,"x_min":0,"x_max":1215,"o":"m 347 347 l 347 521 l 174 521 l 174 694 l 0 694 l 0 1389 l 174 1389 l 174 1563 l 347 1563 l 347 1736 l 868 1736 l 868 1563 l 1042 1563 l 1042 1389 l 1215 1389 l 1215 694 l 1042 694 l 1042 521 l 868 521 l 868 347 l 347 347 m 347 521 l 868 521 l 868 694 l 347 694 l 347 521 m 174 694 l 347 694 l 347 1389 l 174 1389 l 174 694 m 868 694 l 1042 694 l 1042 1389 l 868 1389 l 868 1215 l 521 1215 l 521 868 l 868 868 l 868 694 m 347 1389 l 868 1389 l 868 1563 l 347 1563 l 347 1389 z "},"®":{"ha":1389,"x_min":0,"x_max":1215,"o":"m 347 347 l 347 521 l 174 521 l 174 694 l 0 694 l 0 1389 l 174 1389 l 174 1563 l 347 1563 l 347 1736 l 868 1736 l 868 1563 l 1042 1563 l 1042 1389 l 1215 1389 l 1215 694 l 1042 694 l 1042 521 l 868 521 l 868 347 l 347 347 m 174 694 l 347 694 l 347 1389 l 174 1389 l 174 694 m 347 521 l 868 521 l 868 694 l 694 694 l 694 868 l 521 868 l 521 694 l 347 694 l 347 521 m 521 1042 l 694 1042 l 694 1215 l 521 1215 l 521 1042 m 868 694 l 1042 694 l 1042 1389 l 868 1389 l 868 1042 l 694 1042 l 694 868 l 868 868 l 868 694 m 347 1389 l 868 1389 l 868 1563 l 347 1563 l 347 1389 z "},"™":{"ha":1389,"x_min":0,"x_max":1215,"o":"m 694 1215 l 694 1736 l 868 1736 l 868 1563 l 1042 1563 l 1042 1736 l 1215 1736 l 1215 1215 l 1042 1215 l 1042 1389 l 868 1389 l 868 1215 l 694 1215 m 174 1215 l 174 1563 l 0 1563 l 0 1736 l 521 1736 l 521 1563 l 347 1563 l 347 1215 l 174 1215 z "},"°":{"ha":1389,"x_min":0,"x_max":694,"o":"m 174 1042 l 174 1215 l 521 1215 l 521 1042 l 174 1042 m 0 694 l 0 1042 l 174 1042 l 174 694 l 0 694 m 174 521 l 174 694 l 521 694 l 521 521 l 174 521 m 521 694 l 521 1042 l 694 1042 l 694 694 l 521 694 z "},"|":{"ha":1389,"x_min":521,"x_max":694,"o":"m 521 -174 l 521 1736 l 694 1736 l 694 -174 l 521 -174 z "},"¦":{"ha":1389,"x_min":521,"x_max":694,"o":"m 521 1042 l 521 1736 l 694 1736 l 694 1042 l 521 1042 m 521 -174 l 521 521 l 694 521 l 694 -174 l 521 -174 z "},"†":{"ha":1389,"x_min":347,"x_max":868,"o":"m 521 694 l 521 1563 l 694 1563 l 694 694 l 521 694 m 347 1389 l 868 1389 l 868 1215 l 347 1215 l 347 1389 z "},"‡":{"ha":1389,"x_min":347,"x_max":868,"o":"m 521 694 l 521 1563 l 694 1563 l 694 694 l 521 694 m 347 1389 l 868 1389 l 868 1215 l 347 1215 l 347 1389 m 347 1042 l 868 1042 l 868 868 l 347 868 l 347 1042 z "},"№":{"ha":1389,"x_min":0,"x_max":1389,"o":"m 521 0 l 521 347 l 347 347 l 347 521 l 521 521 l 521 868 l 694 868 l 694 0 l 521 0 m 0 0 l 0 868 l 174 868 l 174 694 l 347 694 l 347 521 l 174 521 l 174 0 l 0 0 m 868 0 l 868 174 l 1389 174 l 1389 0 l 868 0 m 868 347 l 868 868 l 1389 868 l 1389 347 l 868 347 m 1042 521 l 1215 521 l 1215 694 l 1042 694 l 1042 521 z "},"^":{"ha":1389,"x_min":174,"x_max":1042,"o":"m 694 1398 l 694 1571 l 868 1571 l 868 1398 l 694 1398 m 174 1224 l 174 1398 l 347 1398 l 347 1224 l 174 1224 m 347 1398 l 347 1571 l 521 1571 l 521 1398 l 347 1398 m 521 1571 l 521 1745 l 694 1745 l 694 1571 l 521 1571 m 868 1224 l 868 1398 l 1042 1398 l 1042 1224 l 868 1224 z "},"�":{"ha":1389,"x_min":0,"x_max":868,"o":"m 694 1215 l 694 1389 l 868 1389 l 868 1215 l 694 1215 m 0 174 l 0 347 l 174 347 l 174 174 l 0 174 m 174 0 l 174 174 l 347 174 l 347 0 l 174 0 m 0 521 l 0 694 l 174 694 l 174 521 l 0 521 m 174 347 l 174 521 l 347 521 l 347 347 l 174 347 m 347 174 l 347 347 l 521 347 l 521 174 l 347 174 m 521 0 l 521 174 l 694 174 l 694 0 l 521 0 m 347 521 l 347 694 l 521 694 l 521 521 l 347 521 m 521 347 l 521 521 l 694 521 l 694 347 l 521 347 m 694 174 l 694 347 l 868 347 l 868 174 l 694 174 m 347 868 l 347 1042 l 521 1042 l 521 868 l 347 868 m 521 694 l 521 868 l 694 868 l 694 694 l 521 694 m 694 521 l 694 694 l 868 694 l 868 521 l 694 521 m 347 1215 l 347 1389 l 521 1389 l 521 1215 l 347 1215 m 521 1042 l 521 1215 l 694 1215 l 694 1042 l 521 1042 m 694 868 l 694 1042 l 868 1042 l 868 868 l 694 868 z "},"̈":{"ha":0,"x_min":-1389,"x_max":-868,"o":"m -1042 1042 l -1042 1215 l -868 1215 l -868 1042 l -1042 1042 m -1389 1042 l -1389 1215 l -1215 1215 l -1215 1042 l -1389 1042 z "},"̇":{"ha":0,"x_min":-1389,"x_max":-1215,"o":"m -1389 1042 l -1389 1215 l -1215 1215 l -1215 1042 l -1389 1042 z "},"̀":{"ha":0,"x_min":-1389,"x_max":-1042,"o":"m -1389 1042 l -1389 1215 l -1215 1215 l -1215 1042 l -1389 1042 m -1215 868 l -1215 1042 l -1042 1042 l -1042 868 l -1215 868 z "},"́":{"ha":0,"x_min":-1389,"x_max":-1042,"o":"m -1215 1042 l -1215 1215 l -1042 1215 l -1042 1042 l -1215 1042 m -1389 868 l -1389 1042 l -1215 1042 l -1215 868 l -1389 868 z "},"̋":{"ha":0,"x_min":-1389,"x_max":-694,"o":"m -868 1042 l -868 1215 l -694 1215 l -694 1042 l -868 1042 m -1389 868 l -1389 1042 l -1215 1042 l -1215 868 l -1389 868 m -1215 1042 l -1215 1215 l -1042 1215 l -1042 1042 l -1215 1042 m -1042 868 l -1042 1042 l -868 1042 l -868 868 l -1042 868 z "},"̂":{"ha":0,"x_min":-1389,"x_max":-868,"o":"m -1215 1042 l -1215 1215 l -1042 1215 l -1042 1042 l -1215 1042 m -1389 868 l -1389 1042 l -1215 1042 l -1215 868 l -1389 868 m -1042 868 l -1042 1042 l -868 1042 l -868 868 l -1042 868 z "},"̌":{"ha":0,"x_min":-1389,"x_max":-868,"o":"m -1042 1042 l -1042 1215 l -868 1215 l -868 1042 l -1042 1042 m -1389 1042 l -1389 1215 l -1215 1215 l -1215 1042 l -1389 1042 m -1215 868 l -1215 1042 l -1042 1042 l -1042 868 l -1215 868 z "},"̆":{"ha":0,"x_min":-1389,"x_max":-868,"o":"m -1389 868 l -1389 1215 l -1215 1215 l -1215 1042 l -1042 1042 l -1042 1215 l -868 1215 l -868 868 l -1389 868 z "},"̊":{"ha":0,"x_min":-1389,"x_max":-868,"o":"m -1215 1042 l -1215 1215 l -1042 1215 l -1042 1042 l -1215 1042 m -1389 868 l -1389 1042 l -1215 1042 l -1215 868 l -1389 868 m -1215 694 l -1215 868 l -1042 868 l -1042 694 l -1215 694 m -1042 868 l -1042 1042 l -868 1042 l -868 868 l -1042 868 z "},"̃":{"ha":0,"x_min":-1389,"x_max":-347,"o":"m -868 868 l -868 1042 l -521 1042 l -521 868 l -868 868 m -1389 868 l -1389 1042 l -1215 1042 l -1215 868 l -1389 868 m -1215 1042 l -1215 1215 l -868 1215 l -868 1042 l -1215 1042 m -521 1042 l -521 1215 l -347 1215 l -347 1042 l -521 1042 z "},"̄":{"ha":0,"x_min":-1389,"x_max":-503,"o":"m -1389 1042 l -1389 1215 l -503 1215 l -503 1042 l -1389 1042 z "},"̒":{"ha":0,"x_min":-1389,"x_max":-1042,"o":"m -1389 868 l -1389 1215 l -1215 1215 l -1215 1042 l -1042 1042 l -1042 868 l -1389 868 z "},"̦":{"ha":0,"x_min":-1389,"x_max":-1215,"o":"m -1389 -174 l -1389 174 l -1215 174 l -1215 -174 l -1389 -174 z "},"̧":{"ha":0,"x_min":-1389,"x_max":-1042,"o":"m -1389 -174 l -1389 0 l -1215 0 l -1215 174 l -1042 174 l -1042 -174 l -1389 -174 z "},"̨":{"ha":0,"x_min":-1389,"x_max":-1042,"o":"m -1389 -174 l -1389 174 l -1215 174 l -1215 0 l -1042 0 l -1042 -174 l -1389 -174 z "},"̵":{"ha":0,"x_min":-1389,"x_max":-694,"o":"m -1389 521 l -1389 694 l -694 694 l -694 521 l -1389 521 z "},"̷":{"ha":0,"x_min":-1389,"x_max":-174,"o":"m -347 868 l -347 1042 l -174 1042 l -174 868 l -347 868 m -1389 -174 l -1389 0 l -1215 0 l -1215 -174 l -1389 -174 m -1215 0 l -1215 174 l -1042 174 l -1042 0 l -1215 0 m -1042 174 l -1042 347 l -868 347 l -868 174 l -1042 174 m -868 347 l -868 521 l -694 521 l -694 347 l -868 347 m -694 521 l -694 694 l -521 694 l -521 521 l -694 521 m -521 694 l -521 868 l -347 868 l -347 694 l -521 694 z "},"̸":{"ha":0,"x_min":-1389,"x_max":-174,"o":"m -347 868 l -347 1042 l -174 1042 l -174 868 l -347 868 m -1389 -174 l -1389 0 l -1215 0 l -1215 -174 l -1389 -174 m -1215 0 l -1215 174 l -1042 174 l -1042 0 l -1215 0 m -1042 174 l -1042 347 l -868 347 l -868 174 l -1042 174 m -868 347 l -868 521 l -694 521 l -694 347 l -868 347 m -694 521 l -694 694 l -521 694 l -521 521 l -694 521 m -521 694 l -521 868 l -347 868 l -347 694 l -521 694 z "},"´":{"ha":1389,"x_min":0,"x_max":347,"o":"m 174 1042 l 174 1215 l 347 1215 l 347 1042 l 174 1042 m 0 868 l 0 1042 l 174 1042 l 174 868 l 0 868 z "},"˘":{"ha":1389,"x_min":0,"x_max":521,"o":"m 0 868 l 0 1215 l 174 1215 l 174 1042 l 347 1042 l 347 1215 l 521 1215 l 521 868 l 0 868 z "},"ˇ":{"ha":1389,"x_min":0,"x_max":521,"o":"m 347 1042 l 347 1215 l 521 1215 l 521 1042 l 347 1042 m 0 1042 l 0 1215 l 174 1215 l 174 1042 l 0 1042 m 174 868 l 174 1042 l 347 1042 l 347 868 l 174 868 z "},"¸":{"ha":1389,"x_min":0,"x_max":347,"o":"m 0 -174 l 0 0 l 174 0 l 174 174 l 347 174 l 347 -174 l 0 -174 z "},"ˆ":{"ha":1389,"x_min":0,"x_max":521,"o":"m 174 1042 l 174 1215 l 347 1215 l 347 1042 l 174 1042 m 0 868 l 0 1042 l 174 1042 l 174 868 l 0 868 m 347 868 l 347 1042 l 521 1042 l 521 868 l 347 868 z "},"¨":{"ha":1389,"x_min":0,"x_max":521,"o":"m 347 1042 l 347 1215 l 521 1215 l 521 1042 l 347 1042 m 0 1042 l 0 1215 l 174 1215 l 174 1042 l 0 1042 z "},"˙":{"ha":1389,"x_min":0,"x_max":174,"o":"m 0 1042 l 0 1215 l 174 1215 l 174 1042 l 0 1042 z "},"`":{"ha":1389,"x_min":0,"x_max":347,"o":"m 0 1042 l 0 1215 l 174 1215 l 174 1042 l 0 1042 m 174 868 l 174 1042 l 347 1042 l 347 868 l 174 868 z "},"˝":{"ha":1389,"x_min":0,"x_max":694,"o":"m 521 1042 l 521 1215 l 694 1215 l 694 1042 l 521 1042 m 0 868 l 0 1042 l 174 1042 l 174 868 l 0 868 m 174 1042 l 174 1215 l 347 1215 l 347 1042 l 174 1042 m 347 868 l 347 1042 l 521 1042 l 521 868 l 347 868 z "},"¯":{"ha":1389,"x_min":0,"x_max":885,"o":"m 0 1042 l 0 1215 l 885 1215 l 885 1042 l 0 1042 z "},"˛":{"ha":1389,"x_min":0,"x_max":347,"o":"m 0 -174 l 0 174 l 174 174 l 174 0 l 347 0 l 347 -174 l 0 -174 z "},"˚":{"ha":1389,"x_min":0,"x_max":521,"o":"m 174 1042 l 174 1215 l 347 1215 l 347 1042 l 174 1042 m 0 868 l 0 1042 l 174 1042 l 174 868 l 0 868 m 174 694 l 174 868 l 347 868 l 347 694 l 174 694 m 347 868 l 347 1042 l 521 1042 l 521 868 l 347 868 z "},"˜":{"ha":1389,"x_min":0,"x_max":1042,"o":"m 521 868 l 521 1042 l 868 1042 l 868 868 l 521 868 m 0 868 l 0 1042 l 174 1042 l 174 868 l 0 868 m 174 1042 l 174 1215 l 521 1215 l 521 1042 l 174 1042 m 868 1042 l 868 1215 l 1042 1215 l 1042 1042 l 868 1042 z "},"゙":{"ha":0,"x_min":-1389,"x_max":-694,"o":"m -1042 1563 l -1042 1736 l -868 1736 l -868 1563 l -1042 1563 m -1389 1389 l -1389 1563 l -1215 1563 l -1215 1389 l -1389 1389 m -1215 1215 l -1215 1389 l -1042 1389 l -1042 1215 l -1215 1215 m -868 1389 l -868 1563 l -694 1563 l -694 1389 l -868 1389 z "},"゚":{"ha":0,"x_min":-1389,"x_max":-868,"o":"m -1389 1215 l -1389 1736 l -868 1736 l -868 1215 l -1389 1215 m -1215 1389 l -1042 1389 l -1042 1563 l -1215 1563 l -1215 1389 z "},"ゝ":{"ha":1389,"x_min":0,"x_max":521,"o":"m 347 174 l 347 521 l 521 521 l 521 174 l 347 174 m 174 0 l 174 174 l 347 174 l 347 0 l 174 0 m 0 694 l 0 868 l 174 868 l 174 694 l 0 694 m 174 521 l 174 694 l 347 694 l 347 521 l 174 521 z "},"ゞ":{"ha":1389,"x_min":0,"x_max":868,"o":"m 347 174 l 347 521 l 521 521 l 521 174 l 347 174 m 174 0 l 174 174 l 347 174 l 347 0 l 174 0 m 0 694 l 0 868 l 174 868 l 174 694 l 0 694 m 174 521 l 174 694 l 347 694 l 347 521 l 174 521 m 174 1042 l 174 1215 l 347 1215 l 347 1042 l 174 1042 m 347 868 l 347 1042 l 521 1042 l 521 868 l 347 868 m 521 1215 l 521 1389 l 694 1389 l 694 1215 l 521 1215 m 694 1042 l 694 1215 l 868 1215 l 868 1042 l 694 1042 z "},"ー":{"ha":1389,"x_min":0,"x_max":1042,"o":"m 0 521 l 0 694 l 1042 694 l 1042 521 l 0 521 z "},"ヽ":{"ha":1389,"x_min":0,"x_max":694,"o":"m 347 313 l 347 486 l 521 486 l 521 313 l 347 313 m 521 139 l 521 313 l 694 313 l 694 139 l 521 139 m 0 660 l 0 833 l 174 833 l 174 660 l 0 660 m 174 486 l 174 660 l 347 660 l 347 486 l 174 486 z "},"ヾ":{"ha":1389,"x_min":0,"x_max":972,"o":"m 625 1042 l 625 1215 l 799 1215 l 799 1042 l 625 1042 m 0 660 l 0 833 l 174 833 l 174 660 l 0 660 m 174 486 l 174 660 l 347 660 l 347 486 l 174 486 m 347 313 l 347 486 l 521 486 l 521 313 l 347 313 m 521 139 l 521 313 l 694 313 l 694 139 l 521 139 m 278 868 l 278 1042 l 451 1042 l 451 868 l 278 868 m 451 694 l 451 868 l 625 868 l 625 694 l 451 694 m 799 868 l 799 1042 l 972 1042 l 972 868 l 799 868 z "},"゛":{"ha":1389,"x_min":0,"x_max":694,"o":"m 347 1042 l 347 1215 l 521 1215 l 521 1042 l 347 1042 m 0 868 l 0 1042 l 174 1042 l 174 868 l 0 868 m 174 694 l 174 868 l 347 868 l 347 694 l 174 694 m 521 868 l 521 1042 l 694 1042 l 694 868 l 521 868 z "},"゜":{"ha":1389,"x_min":0,"x_max":521,"o":"m 0 694 l 0 1215 l 521 1215 l 521 694 l 0 694 m 174 868 l 347 868 l 347 1042 l 174 1042 l 174 868 z "}}}
